<svg width="248" height="193" viewBox="0 0 248 193" fill="none" xmlns="http://www.w3.org/2000/svg">
<g clip-path="url(#clip0_3823_3520)">
<path d="M245.691 89.86H175.357C174.082 89.86 173.049 90.8951 173.049 92.1719V148.273C173.049 149.55 174.082 150.585 175.357 150.585H245.691C246.966 150.585 248 149.55 248 148.273V92.1719C248 90.8951 246.966 89.86 245.691 89.86Z" fill="#F4F4F4"/>
<path d="M74.9148 88.8526H2.40396C1.07629 88.8526 0 89.9305 0 91.2601V150.205C0 151.535 1.07629 152.612 2.40396 152.612H74.9148C76.2425 152.612 77.3188 151.535 77.3188 150.205V91.2601C77.3188 89.9305 76.2425 88.8526 74.9148 88.8526Z" fill="#F4F4F4"/>
<path d="M100.489 0H10.3848C8.87192 0 7.64551 1.22822 7.64551 2.7433V82.3146C7.64551 83.8297 8.87192 85.0579 10.3848 85.0579H100.489C102.002 85.0579 103.229 83.8297 103.229 82.3146V2.7433C103.229 1.22822 102.002 0 100.489 0Z" fill="#F4F4F4"/>
<path d="M82.653 74.839H24.6459C24.4034 74.839 24.21 74.6427 24.21 74.4024C24.21 74.1622 24.406 73.9659 24.6459 73.9659H82.653C82.8955 73.9659 83.0889 74.1622 83.0889 74.4024C83.0889 74.6427 82.8929 74.839 82.653 74.839Z" fill="#C2C2C2"/>
<path d="M29.1263 39.0572L29.8356 41.24C29.864 41.3252 29.9414 41.382 30.0291 41.382H32.3221C32.5208 41.382 32.6007 41.6352 32.4408 41.7514L30.5862 43.0998C30.514 43.1515 30.4856 43.2445 30.5114 43.3271L31.2208 45.5099C31.2827 45.6985 31.066 45.8535 30.9061 45.7372L29.0515 44.3888C28.9793 44.3372 28.8839 44.3372 28.8116 44.3888L26.9571 45.7372C26.7972 45.8535 26.5831 45.6959 26.6424 45.5099L27.3517 43.3271C27.3801 43.2419 27.3491 43.1515 27.2769 43.0998L25.4224 41.7514C25.2624 41.6352 25.345 41.382 25.541 41.382H27.8341C27.9218 41.382 28.0017 41.3252 28.0275 41.24L28.7368 39.0572C28.7987 38.8686 29.0644 38.8686 29.1237 39.0572H29.1263Z" fill="#FFC401"/>
<path d="M41.4837 39.0572L42.1931 41.24C42.2214 41.3252 42.2988 41.382 42.3865 41.382H44.6796C44.8782 41.382 44.9581 41.6352 44.7982 41.7514L42.9437 43.0998C42.8714 43.1515 42.8431 43.2445 42.8689 43.3271L43.5782 45.5099C43.6401 45.6985 43.4234 45.8535 43.2635 45.7372L41.4089 44.3888C41.3367 44.3372 41.2413 44.3372 41.1691 44.3888L39.3145 45.7372C39.1546 45.8535 38.9405 45.6959 38.9998 45.5099L39.7092 43.3271C39.7375 43.2419 39.7066 43.1515 39.6344 43.0998L37.7798 41.7514C37.6199 41.6352 37.7024 41.382 37.8984 41.382H40.1915C40.2792 41.382 40.3592 41.3252 40.3849 41.24L41.0943 39.0572C41.1562 38.8686 41.4218 38.8686 41.4812 39.0572H41.4837Z" fill="#FFC401"/>
<path d="M53.8421 39.0572L54.5515 41.24C54.5798 41.3252 54.6572 41.382 54.7449 41.382H57.038C57.2366 41.382 57.3165 41.6352 57.1566 41.7514L55.3021 43.0998C55.2298 43.1515 55.2015 43.2445 55.2273 43.3271L55.9366 45.5099C55.9985 45.6985 55.7818 45.8535 55.6219 45.7372L53.7673 44.3888C53.6951 44.3372 53.5997 44.3372 53.5275 44.3888L51.6729 45.7372C51.513 45.8535 51.2989 45.6959 51.3582 45.5099L52.0675 43.3271C52.0959 43.2419 52.065 43.1515 51.9927 43.0998L50.1382 41.7514C49.9783 41.6352 50.0608 41.382 50.2568 41.382H52.5499C52.6376 41.382 52.7175 41.3252 52.7433 41.24L53.4527 39.0572C53.5146 38.8686 53.7802 38.8686 53.8396 39.0572H53.8421Z" fill="#FFC401"/>
<path d="M66.2015 39.0572L66.9108 41.24C66.9392 41.3252 67.0166 41.382 67.1043 41.382H69.3973C69.596 41.382 69.6759 41.6352 69.516 41.7514L67.6614 43.0998C67.5892 43.1515 67.5608 43.2445 67.5866 43.3271L68.296 45.5099C68.3579 45.6985 68.1412 45.8535 67.9813 45.7372L66.1267 44.3888C66.0545 44.3372 65.9591 44.3372 65.8868 44.3888L64.0323 45.7372C63.8724 45.8535 63.6583 45.6959 63.7176 45.5099L64.4269 43.3271C64.4553 43.2419 64.4243 43.1515 64.3521 43.0998L62.4976 41.7514C62.3376 41.6352 62.4202 41.382 62.6162 41.382H64.9093C64.997 41.382 65.0769 41.3252 65.1027 41.24L65.812 39.0572C65.8739 38.8686 66.1396 38.8686 66.1989 39.0572H66.2015Z" fill="#FFC401"/>
<path d="M78.5599 39.0572L79.2692 41.24C79.2976 41.3252 79.375 41.382 79.4627 41.382H81.7557C81.9544 41.382 82.0343 41.6352 81.8744 41.7514L80.0198 43.0998C79.9476 43.1515 79.9192 43.2445 79.945 43.3271L80.6544 45.5099C80.7163 45.6985 80.4996 45.8535 80.3397 45.7372L78.4851 44.3888C78.4129 44.3372 78.3175 44.3372 78.2452 44.3888L76.3907 45.7372C76.2308 45.8535 76.0167 45.6959 76.076 45.5099L76.7853 43.3271C76.8137 43.2419 76.7827 43.1515 76.7105 43.0998L74.856 41.7514C74.696 41.6352 74.7786 41.382 74.9746 41.382H77.2677C77.3554 41.382 77.4353 41.3252 77.4611 41.24L78.1704 39.0572C78.2323 38.8686 78.498 38.8686 78.5573 39.0572H78.5599Z" fill="#C2C2C2"/>
<path d="M229.996 0.100769H111.965C110.016 0.100769 108.437 1.68288 108.437 3.63452V81.5242C108.437 83.4759 110.016 85.058 111.965 85.058H229.996C231.945 85.058 233.525 83.4759 233.525 81.5242V3.63452C233.525 1.68288 231.945 0.100769 229.996 0.100769Z" fill="#F4F4F4"/>
<path d="M162.613 40.1732C162.461 40.1215 162.306 40.0724 162.144 40.0259C162.169 39.9175 162.195 39.8115 162.216 39.7056C162.572 37.9801 162.34 36.5904 161.545 36.1331C160.784 35.694 159.544 36.1512 158.287 37.2465C158.166 37.3524 158.045 37.4635 157.924 37.5797C157.844 37.5022 157.764 37.4273 157.681 37.3576C156.366 36.1874 155.048 35.694 154.256 36.1538C153.497 36.5929 153.273 37.9 153.59 39.5351C153.621 39.6927 153.657 39.8555 153.699 40.0182C153.513 40.0724 153.332 40.1267 153.16 40.1887C151.617 40.726 150.632 41.5707 150.632 42.4464C150.632 43.322 151.689 44.2571 153.296 44.8074C153.423 44.8513 153.554 44.8926 153.691 44.9313C153.647 45.1096 153.608 45.2827 153.577 45.4531C153.273 47.0599 153.51 48.3359 154.269 48.7725C155.05 49.2245 156.363 48.7596 157.64 47.6411C157.741 47.5532 157.841 47.4577 157.944 47.3595C158.076 47.4861 158.207 47.6075 158.339 47.7186C159.577 48.7854 160.8 49.2168 161.555 48.7777C162.337 48.3256 162.59 46.954 162.26 45.2878C162.234 45.1612 162.205 45.0295 162.172 44.8978C162.265 44.8693 162.355 44.8435 162.443 44.8125C164.112 44.2571 165.2 43.3634 165.2 42.4464C165.2 41.5293 164.184 40.7182 162.61 40.1758L162.613 40.1732ZM158.697 37.714C159.773 36.7763 160.779 36.407 161.236 36.6704C161.723 36.952 161.914 38.0886 161.607 39.5765C161.586 39.6721 161.566 39.7676 161.543 39.8658C160.939 39.7263 160.281 39.623 159.595 39.5584C159.195 38.9875 158.78 38.4683 158.365 38.0188C158.476 37.9103 158.589 37.807 158.7 37.7114L158.697 37.714ZM155.267 42.4567C155.455 42.0641 155.662 41.6714 155.886 41.2814C156.11 40.8913 156.348 40.5142 156.593 40.1551C157.026 40.1215 157.47 40.106 157.919 40.106C158.37 40.106 158.814 40.1241 159.247 40.1551C159.487 40.5116 159.724 40.8861 159.948 41.2762C160.178 41.6714 160.387 42.0615 160.575 42.4464C160.387 42.8364 160.178 43.2316 159.948 43.6269C159.721 44.0221 159.487 44.3992 159.249 44.7557C158.816 44.7867 158.37 44.8022 157.916 44.8022C157.462 44.8022 157.021 44.7893 156.598 44.7609C156.35 44.3992 156.113 44.0221 155.886 43.6294C155.662 43.2394 155.453 42.8467 155.264 42.4541L155.267 42.4567ZM154.937 43.1903C155.068 43.4435 155.205 43.694 155.349 43.9446C155.497 44.2003 155.649 44.4509 155.806 44.6937C155.329 44.6395 154.88 44.5671 154.465 44.4767C154.594 44.0608 154.751 43.6294 154.937 43.1877V43.1903ZM154.937 41.7257C154.756 41.2943 154.601 40.8732 154.475 40.4625C154.89 40.3695 155.334 40.292 155.796 40.2352C155.644 40.4728 155.494 40.7182 155.349 40.9688C155.205 41.2194 155.068 41.4699 154.939 41.7231L154.937 41.7257ZM160.49 43.942C160.64 43.6837 160.779 43.4254 160.913 43.1696C161.107 43.6139 161.272 44.0427 161.403 44.4535C160.98 44.549 160.524 44.6265 160.044 44.6859C160.196 44.4457 160.343 44.1977 160.49 43.9446V43.942ZM160.905 41.7257C160.774 41.4751 160.635 41.2219 160.488 40.9662C160.343 40.7156 160.196 40.4728 160.044 40.2378C160.508 40.2972 160.954 40.3747 161.372 40.4702C161.246 40.8732 161.091 41.2943 160.905 41.7257ZM157.924 38.4683C158.21 38.7783 158.499 39.127 158.78 39.5041C158.496 39.4912 158.207 39.4835 157.916 39.4835C157.624 39.4835 157.341 39.4912 157.06 39.5041C157.343 39.1296 157.632 38.7835 157.924 38.4683ZM154.568 36.6911C155.055 36.4095 156.134 36.8125 157.269 37.8225C157.341 37.8871 157.413 37.9543 157.488 38.024C157.065 38.4786 156.647 38.9979 156.247 39.561C155.561 39.6256 154.906 39.7263 154.302 39.8632C154.264 39.7108 154.23 39.561 154.202 39.4137C153.928 38.0137 154.109 36.9572 154.568 36.6911ZM153.859 44.3269C153.735 44.2907 153.614 44.2546 153.5 44.2132C152.791 43.9704 152.203 43.6553 151.8 43.3091C151.439 42.9992 151.256 42.6918 151.256 42.4412C151.256 41.9091 152.048 41.2323 153.366 40.7725C153.526 40.7156 153.694 40.664 153.866 40.6149C154.049 41.209 154.287 41.829 154.576 42.4567C154.284 43.0947 154.042 43.725 153.856 44.3243L153.859 44.3269ZM157.23 47.1684C156.665 47.6643 156.097 48.013 155.6 48.1913C155.151 48.3489 154.795 48.354 154.578 48.23C154.119 47.964 153.928 46.941 154.189 45.5668C154.22 45.4092 154.253 45.2491 154.295 45.0838C154.89 45.2155 155.551 45.3111 156.257 45.3679C156.66 45.9362 157.083 46.458 157.508 46.9152C157.416 47.0056 157.323 47.0909 157.23 47.1709V47.1684ZM157.942 46.4632C157.648 46.1454 157.354 45.7915 157.065 45.4118C157.343 45.4221 157.627 45.4273 157.916 45.4273C158.205 45.4273 158.507 45.4196 158.796 45.4066C158.512 45.7915 158.225 46.1454 157.939 46.4606L157.942 46.4632ZM161.72 47.3311C161.633 47.7986 161.46 48.1112 161.243 48.2378C160.784 48.5038 159.801 48.1577 158.744 47.2458C158.623 47.1399 158.501 47.0289 158.378 46.9126C158.788 46.4632 159.198 45.9414 159.598 45.3602C160.302 45.2982 160.967 45.1948 161.571 45.0553C161.602 45.1742 161.628 45.293 161.651 45.4092C161.798 46.1454 161.819 46.8119 161.72 47.3337V47.3311ZM162.249 44.2184C162.169 44.2442 162.087 44.2701 162.004 44.2959C161.821 43.7121 161.571 43.0896 161.267 42.4489C161.558 41.8212 161.795 41.209 161.976 40.6278C162.125 40.6717 162.27 40.7156 162.409 40.7647C163.758 41.2297 164.578 41.9168 164.578 42.4464C164.578 43.0095 163.691 43.7431 162.249 44.221V44.2184Z" fill="#53C0DD"/>
<path d="M157.918 43.7457C158.635 43.7457 159.218 43.1619 159.218 42.4438C159.218 41.7256 158.635 41.1418 157.918 41.1418C157.201 41.1418 156.618 41.7256 156.618 42.4438C156.618 43.1619 157.201 43.7457 157.918 43.7457Z" fill="#53C0DD"/>
<path d="M151.723 16.2145C151.932 15.7779 152.257 15.3931 152.659 15.1218C153.072 14.8403 153.557 14.6749 154.052 14.6517C154.101 14.6414 154.153 14.6414 154.207 14.6414H154.191C152.672 14.6414 151.444 15.8761 151.444 17.3976V20.5309L151.465 20.5516V17.4053C151.455 16.992 151.542 16.5839 151.723 16.2145Z" fill="url(#paint0_linear_3823_3520)"/>
<path d="M152.874 22.1428C152.889 22.1634 152.905 22.1815 152.92 22.2022C152.791 22.0213 152.727 21.9077 152.727 21.9077C155.861 23.9742 158.001 22.5096 158.001 22.5096C156.591 21.6881 153.586 17.7617 153.586 17.7617C156.201 19.9936 157.331 20.58 157.331 20.58C156.658 20.022 154.764 17.289 154.764 17.289C156.278 18.826 159.286 20.9674 159.286 20.9674C160.106 18.6891 158.597 16.6536 158.479 16.496C158.471 16.4908 158.466 16.4857 158.458 16.4805L156.642 14.6335H154.207C154.153 14.6335 154.101 14.6335 154.052 14.6439C153.557 14.6671 153.072 14.8324 152.66 15.114C152.257 15.3852 151.932 15.7701 151.723 16.2067C151.543 16.5761 151.458 16.9842 151.465 17.3975V20.5438L152.727 21.9077C152.77 21.9852 152.819 22.0627 152.871 22.135L152.874 22.1428Z" fill="url(#paint1_linear_3823_3520)"/>
<path d="M152.874 22.1428C152.889 22.1634 152.905 22.1815 152.92 22.2022C152.791 22.0213 152.727 21.9077 152.727 21.9077C155.861 23.9742 158.001 22.5096 158.001 22.5096C156.591 21.6881 153.586 17.7617 153.586 17.7617C156.201 19.9936 157.331 20.58 157.331 20.58C156.658 20.022 154.764 17.289 154.764 17.289C156.278 18.826 159.286 20.9674 159.286 20.9674C160.106 18.6891 158.597 16.6536 158.479 16.496C158.471 16.4908 158.466 16.4857 158.458 16.4805L156.642 14.6335H154.207C154.153 14.6335 154.101 14.6335 154.052 14.6439C153.557 14.6671 153.072 14.8324 152.66 15.114C152.257 15.3852 151.932 15.7701 151.723 16.2067C151.543 16.5761 151.458 16.9842 151.465 17.3975V20.5438L152.727 21.9077C152.77 21.9852 152.819 22.0627 152.871 22.135L152.874 22.1428Z" fill="url(#paint2_linear_3823_3520)"/>
<path d="M183.37 27.9962C183.177 27.9962 182.996 27.9445 182.831 27.8541L181.121 26.8364C180.863 26.6943 180.992 26.6426 181.069 26.6168C181.417 26.5006 181.482 26.4747 181.84 26.2681C181.879 26.2422 181.931 26.2552 181.969 26.281L183.282 27.0663C183.334 27.0921 183.398 27.0921 183.437 27.0663L188.567 24.0905C188.619 24.0646 188.645 24.013 188.645 23.9484V18.0123C188.645 17.9477 188.619 17.8961 188.567 17.8703L183.437 14.9074C183.385 14.8815 183.321 14.8815 183.282 14.9074L178.152 17.8703C178.1 17.8961 178.075 17.9607 178.075 18.0123V23.9484C178.075 24.0001 178.1 24.0646 178.152 24.0905L179.553 24.9016C180.311 25.2891 180.788 24.837 180.788 24.3875V18.529C180.788 18.4515 180.853 18.374 180.943 18.374H181.598C181.675 18.374 181.753 18.4385 181.753 18.529V24.3875C181.753 25.4053 181.201 25.9968 180.236 25.9968C179.939 25.9968 179.71 25.9968 179.052 25.6739L177.703 24.9016C177.368 24.7079 177.164 24.3488 177.164 23.9613V18.0252C177.164 17.6378 177.37 17.2787 177.703 17.085L182.833 14.1092C183.156 13.9284 183.592 13.9284 183.914 14.1092L189.045 17.085C189.38 17.2787 189.584 17.6378 189.584 18.0252V23.9613C189.584 24.3488 189.377 24.7079 189.045 24.9016L183.914 27.8774C183.747 27.9549 183.553 27.9936 183.375 27.9936L183.37 27.9962ZM184.951 23.9148C182.702 23.9148 182.238 22.8841 182.238 22.0085C182.238 21.931 182.302 21.8535 182.392 21.8535H183.06C183.138 21.8535 183.202 21.9051 183.202 21.9826C183.306 22.6646 183.602 23.0004 184.964 23.0004C186.045 23.0004 186.507 22.755 186.507 22.1764C186.507 21.8406 186.378 21.5977 184.693 21.4298C183.293 21.2878 182.418 20.9804 182.418 19.8593C182.418 18.8157 183.293 18.1983 184.758 18.1983C186.403 18.1983 187.213 18.764 187.316 20.0014C187.316 20.0401 187.304 20.0788 187.278 20.1176C187.252 20.1434 187.213 20.1693 187.175 20.1693H186.507C186.442 20.1693 186.378 20.1176 186.365 20.053C186.21 19.3452 185.813 19.1127 184.758 19.1127C183.574 19.1127 183.432 19.5261 183.432 19.8334C183.432 20.208 183.6 20.3217 185.194 20.5283C186.775 20.735 187.52 21.0294 187.52 22.1376C187.507 23.2716 186.581 23.9148 184.949 23.9148H184.951Z" fill="#539D43"/>
<path d="M183.7 35.3917C183.176 35.3917 182.676 35.4382 182.235 35.5157C180.938 35.7456 180.703 36.2261 180.703 37.1121V38.2823H183.767V38.6723H179.552C178.663 38.6723 177.881 39.2096 177.639 40.2274C177.357 41.395 177.345 42.126 177.639 43.3453C177.855 44.2545 178.376 44.9003 179.266 44.9003H180.319V43.4977C180.319 42.4851 181.193 41.5913 182.232 41.5913H185.294C186.145 41.5913 186.826 40.8887 186.826 40.0311V37.1095C186.826 36.2778 186.125 35.6526 185.294 35.5131C184.768 35.4253 184.221 35.3866 183.697 35.3892L183.7 35.3917ZM182.044 36.332C182.361 36.332 182.619 36.5955 182.619 36.9184C182.619 37.2413 182.361 37.5022 182.044 37.5022C181.727 37.5022 181.469 37.2413 181.469 36.9184C181.469 36.5955 181.727 36.332 182.044 36.332Z" fill="url(#paint3_linear_3823_3520)"/>
<path d="M187.211 38.6724V40.0363C187.211 41.0928 186.316 41.9814 185.297 41.9814H182.235C181.397 41.9814 180.703 42.6995 180.703 43.5416V46.4631C180.703 47.2949 181.425 47.7831 182.235 48.0234C183.205 48.3101 184.136 48.3618 185.297 48.0234C186.068 47.7986 186.829 47.3492 186.829 46.4631V45.293H183.767V44.9029H188.361C189.251 44.9029 189.584 44.2804 189.893 43.3479C190.213 42.3869 190.2 41.4622 189.893 40.23C189.674 39.3414 189.254 38.6749 188.361 38.6749H187.211V38.6724ZM185.49 46.0731C185.808 46.0731 186.066 46.334 186.066 46.6569C186.066 46.9798 185.808 47.2433 185.49 47.2433C185.173 47.2433 184.915 46.9798 184.915 46.6569C184.915 46.334 185.173 46.0731 185.49 46.0731Z" fill="url(#paint4_linear_3823_3520)"/>
<path d="M158.324 57.8315L151.853 60.1125L152.874 68.6033L158.329 71.6049L163.813 68.5619L164.834 60.0711L158.322 57.8315H158.324Z" fill="#B2B2B2"/>
<path d="M164.192 60.5645L158.312 58.5548V70.8893L163.241 68.1564L164.192 60.5619V60.5645Z" fill="#A5120D"/>
<path d="M152.58 60.6007L153.457 68.1952L158.311 70.892V58.5574L152.583 60.6033L152.58 60.6007Z" fill="#DC1B16"/>
<path d="M159.928 65.1212L158.308 65.8806H156.601L155.798 67.8903L154.308 67.9187L158.308 59.0043L159.928 65.1238V65.1212ZM159.771 64.7389L158.319 61.8612L157.127 64.6898H158.308L159.771 64.7389Z" fill="#F1F1F1"/>
<path d="M158.309 59.0017L158.319 61.8587L159.671 64.6898H158.311V65.8755H160.186L161.066 67.9136L162.495 67.9394L158.309 58.9991V59.0017Z" fill="#B2B2B2"/>
<path d="M134.798 45.0424C134.511 45.0424 134.277 44.8073 134.277 44.5206C134.277 44.2339 134.509 43.9988 134.798 43.9988C135.087 43.9988 135.319 44.2313 135.319 44.5206C135.319 44.8099 135.087 45.0424 134.798 45.0424ZM129.048 45.0424C128.762 45.0424 128.527 44.8073 128.527 44.5206C128.527 44.2339 128.759 43.9988 129.048 43.9988C129.337 43.9988 129.569 44.2313 129.569 44.5206C129.569 44.8099 129.337 45.0424 129.048 45.0424ZM134.986 41.9039L136.025 40.1008C136.085 39.9975 136.049 39.8658 135.945 39.8038C135.842 39.7444 135.711 39.7805 135.649 39.8838L134.596 41.7101C133.792 41.3433 132.886 41.1367 131.922 41.1367C130.957 41.1367 130.052 41.3407 129.247 41.7101L128.194 39.8838C128.135 39.7805 128.004 39.7444 127.898 39.8038C127.795 39.8632 127.759 39.9949 127.818 40.1008L128.857 41.9039C127.072 42.8751 125.85 44.6859 125.672 46.8248H138.166C137.988 44.6859 136.766 42.8751 134.981 41.9039" fill="#3DDA84"/>
<path d="M130.18 24.0027C130.18 24.0027 129.664 24.3023 130.547 24.4056C131.617 24.527 132.164 24.5115 133.34 24.2868C133.34 24.2868 133.65 24.4805 134.083 24.651C131.442 25.785 128.104 24.5865 130.178 24.0052M129.855 22.5251C129.855 22.5251 129.278 22.9539 130.16 23.0443C131.302 23.1631 132.205 23.1709 133.766 22.8712C133.766 22.8712 133.982 23.0908 134.32 23.2096C131.127 24.1447 127.567 23.2846 129.853 22.5225" fill="#5381A0"/>
<path d="M132.579 20.0143C133.229 20.766 132.409 21.4402 132.409 21.4402C132.409 21.4402 134.062 20.5852 133.304 19.5157C132.594 18.5186 132.05 18.0227 134.993 16.3126C134.993 16.3126 130.374 17.4673 132.579 20.0143Z" fill="#E66F00"/>
<path d="M136.074 25.0979C136.074 25.0979 136.456 25.413 135.654 25.6558C134.129 26.1182 129.306 26.2577 127.967 25.6739C127.485 25.4647 128.388 25.1728 128.674 25.1108C128.971 25.0462 129.138 25.0591 129.138 25.0591C128.602 24.682 125.677 25.8005 127.653 26.1208C133.038 26.9965 137.472 25.7256 136.074 25.0953M130.428 20.9881C130.428 20.9881 127.975 21.5719 129.559 21.7837C130.227 21.8741 131.56 21.8534 132.803 21.7501C133.82 21.6649 134.839 21.4815 134.839 21.4815C134.839 21.4815 134.48 21.6339 134.222 21.8121C131.73 22.4682 126.92 22.1634 128.305 21.4918C129.476 20.9235 130.43 20.9881 130.43 20.9881M134.831 23.4524C137.364 22.135 136.193 20.8693 135.375 21.0398C135.174 21.0811 135.086 21.1172 135.086 21.1172C135.086 21.1172 135.161 21.001 135.303 20.9493C136.92 20.381 138.163 22.6284 134.782 23.5196C134.782 23.5196 134.821 23.4834 134.833 23.4524" fill="#5381A0"/>
<path d="M133.301 13.5512C133.301 13.5512 134.704 14.9565 131.97 17.116C129.78 18.8493 131.47 19.836 131.97 20.9649C130.691 19.8102 129.752 18.7924 130.381 17.8444C131.305 16.4547 133.866 15.7805 133.301 13.5486" fill="#E66F00"/>
<path d="M130.678 27.0249C133.108 27.1799 136.84 26.9397 136.931 25.7876C136.931 25.7876 136.76 26.2241 134.921 26.5703C132.847 26.9603 130.289 26.9164 128.77 26.6659C128.77 26.6659 129.079 26.9242 130.678 27.0249Z" fill="#5381A0"/>
<path d="M136.173 67.3919L129.268 71.4965L138.208 70.8894L138.896 61.8613L136.173 67.3893V67.3919Z" fill="url(#paint5_linear_3823_3520)"/>
<path d="M138.22 70.8843L137.451 65.5733L135.359 68.3399L138.22 70.8843Z" fill="url(#paint6_linear_3823_3520)"/>
<path d="M138.231 70.8842L132.603 70.4425L129.296 71.4861L138.231 70.8842Z" fill="url(#paint7_linear_3823_3520)"/>
<path d="M129.306 71.4887L130.711 66.8752L127.616 67.5365L129.303 71.4861L129.306 71.4887Z" fill="url(#paint8_linear_3823_3520)"/>
<path d="M135.36 68.3579L134.065 63.282L130.361 66.759L135.358 68.3579H135.36Z" fill="url(#paint9_linear_3823_3520)"/>
<path d="M138.602 63.3518L135.102 60.4897L134.127 63.6463L138.602 63.3544V63.3518Z" fill="url(#paint10_linear_3823_3520)"/>
<path d="M136.964 59.4693L134.905 60.6085L133.605 59.4538L136.964 59.4693Z" fill="url(#paint11_linear_3823_3520)"/>
<path d="M126.802 69.0838L127.663 67.5081L126.967 65.6327L126.802 69.0838Z" fill="url(#paint12_linear_3823_3520)"/>
<path d="M126.92 65.5733L127.622 67.5675L130.67 66.8829L134.152 63.6411L135.135 60.5155L133.588 59.4202L130.957 60.407C130.129 61.1794 128.519 62.706 128.462 62.7344C128.406 62.7628 127.4 64.664 126.92 65.5733Z" fill="white"/>
<path d="M129.386 61.993C131.181 60.2107 133.497 59.1567 134.387 60.0531C135.274 60.952 134.333 63.1322 132.538 64.9172C130.743 66.6995 128.455 67.8129 127.567 66.9139C126.677 66.0176 127.591 63.7754 129.388 61.993H129.386Z" fill="url(#paint13_linear_3823_3520)"/>
<path d="M129.306 71.4861L130.701 66.8571L135.334 68.3476C133.657 69.9207 131.795 71.251 129.306 71.4861Z" fill="url(#paint14_linear_3823_3520)"/>
<path d="M134.16 63.6334L135.349 68.3528C136.75 66.8804 138.006 65.2943 138.62 63.3363L134.16 63.6359V63.6334Z" fill="url(#paint15_linear_3823_3520)"/>
<path d="M138.61 63.357C139.087 61.9182 139.195 59.8542 136.951 59.4719L135.109 60.4897L138.61 63.357Z" fill="url(#paint16_linear_3823_3520)"/>
<path d="M126.801 69.0631C126.868 71.437 128.579 71.4732 129.306 71.4938L127.622 67.5571L126.799 69.0631H126.801Z" fill="#9D1209"/>
<path d="M134.168 63.6411C135.243 64.3024 137.41 65.6327 137.454 65.656C137.521 65.6947 138.387 64.1939 138.583 63.3441L134.165 63.6385L134.168 63.6411Z" fill="url(#paint17_radial_3823_3520)"/>
<path d="M130.699 66.8571L132.564 70.4606C133.668 69.8613 134.53 69.1329 135.321 68.3502L130.699 66.8571Z" fill="url(#paint18_radial_3823_3520)"/>
<path d="M127.617 67.5623L127.354 70.7137C127.851 71.3957 128.537 71.4551 129.257 71.4009C128.736 70.1041 127.697 67.5081 127.617 67.5623Z" fill="url(#paint19_linear_3823_3520)"/>
<path d="M135.097 60.4974L138.803 61.0192C138.605 60.1797 137.998 59.6372 136.964 59.4693L135.099 60.4974H135.097Z" fill="url(#paint20_linear_3823_3520)"/>
<path d="M216.016 41.0824L209.72 34.777C209.359 34.4127 208.771 34.4127 208.407 34.777L207.099 36.0866L208.758 37.7476C209.142 37.6184 209.586 37.7037 209.893 38.0111C210.202 38.321 210.288 38.7679 210.156 39.1554L211.755 40.7569C212.142 40.6226 212.588 40.7104 212.898 41.0204C213.329 41.4518 213.329 42.1518 212.898 42.5858C212.467 43.0172 211.768 43.0172 211.335 42.5858C211.01 42.2603 210.93 41.7825 211.095 41.3821L209.604 39.889V43.818C209.712 43.8722 209.81 43.942 209.895 44.0272C210.326 44.4586 210.326 45.1586 209.895 45.5926C209.465 46.024 208.763 46.024 208.332 45.5926C207.902 45.1586 207.902 44.4586 208.332 44.0272C208.436 43.9239 208.559 43.8412 208.693 43.787V39.8218C208.557 39.7676 208.436 39.6849 208.332 39.5816C208.005 39.2535 207.927 38.7731 208.095 38.3727L206.46 36.735L202.142 41.0592C201.778 41.4234 201.778 42.0124 202.142 42.374L208.438 48.6795C208.802 49.0437 209.387 49.0437 209.751 48.6795L216.016 42.405C216.38 42.0408 216.38 41.4518 216.016 41.0902" fill="#DD4C36"/>
<path d="M214.497 24.8964C213.798 24.8784 213.254 24.9481 212.8 25.1418C212.669 25.1935 212.46 25.1935 212.442 25.3614C212.511 25.4312 212.522 25.5448 212.581 25.643C212.687 25.8186 212.87 26.0537 213.035 26.1777C213.218 26.3172 213.404 26.4593 213.595 26.5807C213.935 26.7899 214.322 26.9139 214.655 27.1231C214.848 27.2445 215.039 27.4047 215.233 27.5338C215.328 27.6036 215.39 27.7172 215.514 27.7612V27.7353C215.452 27.6553 215.434 27.5416 215.374 27.4538C215.287 27.3659 215.199 27.2884 215.111 27.2006C214.858 26.8596 214.541 26.56 214.201 26.3146C213.92 26.1209 213.308 25.86 213.195 25.5345C213.195 25.5345 213.187 25.5267 213.177 25.5164C213.37 25.4983 213.597 25.4286 213.78 25.3769C214.077 25.2968 214.35 25.3149 214.655 25.2374C214.794 25.2013 214.936 25.1573 215.075 25.1134V25.0334C214.918 24.8758 214.804 24.6665 214.637 24.5167C214.19 24.1318 213.7 23.7547 213.192 23.4396C212.921 23.2639 212.571 23.1502 212.282 23.0004C212.176 22.9488 212.001 22.9203 211.941 22.8351C211.784 22.6414 211.696 22.3882 211.583 22.1609C211.33 21.6778 211.085 21.1431 210.866 20.6368C210.708 20.2959 210.613 19.9523 210.419 19.6372C209.519 18.1467 208.539 17.2452 207.033 16.3591C206.708 16.1757 206.323 16.0957 205.913 16.0001C205.694 15.9923 205.475 15.9743 205.258 15.9639C205.119 15.9019 204.977 15.7366 204.856 15.6565C204.358 15.3414 203.071 14.6568 202.702 15.5609C202.465 16.1318 203.053 16.6924 203.254 16.9817C203.404 17.1832 203.594 17.4105 203.7 17.6378C203.762 17.7876 203.78 17.9452 203.839 18.1028C203.979 18.4877 204.11 18.919 204.293 19.2781C204.389 19.4615 204.495 19.6552 204.618 19.8206C204.688 19.9161 204.812 19.96 204.838 20.1176C204.716 20.2933 204.706 20.5568 204.637 20.7737C204.322 21.7631 204.443 22.9901 204.889 23.7185C205.029 23.9381 205.361 24.4186 205.808 24.2352C206.202 24.0776 206.114 23.579 206.228 23.1399C206.254 23.034 206.236 22.9643 206.29 22.8945V22.9126C206.414 23.158 206.535 23.3956 206.648 23.641C206.919 24.0698 207.391 24.5167 207.786 24.8164C207.995 24.9739 208.162 25.2452 208.426 25.3433V25.3175H208.408C208.356 25.2374 208.276 25.2038 208.206 25.1418C208.049 24.9843 207.874 24.7905 207.752 24.6149C207.386 24.1241 207.061 23.5816 206.772 23.0211C206.633 22.7499 206.509 22.4502 206.396 22.179C206.344 22.0731 206.344 21.9155 206.256 21.8638C206.125 22.0576 205.931 22.2229 205.836 22.4605C205.671 22.8377 205.653 23.3026 205.591 23.7831C205.555 23.7909 205.573 23.7831 205.555 23.8012C205.274 23.7314 205.178 23.4421 205.072 23.1967C204.809 22.5742 204.765 21.5745 204.992 20.8564C205.054 20.673 205.317 20.0944 205.212 19.9187C205.16 19.7534 204.985 19.6552 204.887 19.5235C204.773 19.3582 204.649 19.1464 204.572 18.963C204.363 18.4722 204.257 17.9297 204.03 17.4389C203.925 17.2116 203.741 16.9739 203.592 16.7647C203.427 16.527 203.241 16.3617 203.11 16.0802C203.066 15.9846 203.004 15.827 203.073 15.7211C203.091 15.6514 203.125 15.6255 203.197 15.6074C203.311 15.5119 203.636 15.6333 203.749 15.6875C204.074 15.8193 204.345 15.9407 204.616 16.1267C204.737 16.2145 204.869 16.3798 205.026 16.4237H205.209C205.49 16.4857 205.805 16.4418 206.065 16.5193C206.53 16.6691 206.95 16.8861 207.327 17.1238C208.472 17.8522 209.419 18.8855 210.056 20.1202C210.161 20.3217 210.205 20.5051 210.301 20.7169C210.484 21.1457 210.711 21.5849 210.897 22.0059C211.08 22.4166 211.255 22.8377 211.518 23.1812C211.65 23.3646 212.173 23.4628 212.411 23.5584C212.586 23.6385 212.857 23.7082 213.014 23.8038C213.311 23.9872 213.61 24.199 213.889 24.4005C214.028 24.5064 214.466 24.726 214.492 24.899L214.497 24.8964Z" fill="#00546B"/>
<path d="M205.57 17.2813C205.421 17.2813 205.318 17.2994 205.212 17.3252V17.3433H205.23C205.3 17.4828 205.423 17.581 205.511 17.7024C205.581 17.8419 205.643 17.9839 205.712 18.1234C205.72 18.1157 205.73 18.1053 205.73 18.1053C205.854 18.0175 205.913 17.878 205.913 17.6662C205.862 17.6042 205.852 17.5448 205.808 17.4828C205.756 17.395 205.643 17.3511 205.57 17.2813Z" fill="#00546B"/>
<path d="M185.435 58.9036L183.751 61.8251L182.067 58.9036H176.459L183.751 71.5507L191.043 58.9036H185.435Z" fill="#4DB986"/>
<path d="M185.435 58.9036L183.751 61.8251L182.066 58.9036H179.376L183.751 66.4929L188.125 58.9036H185.435Z" fill="#435466"/>
<path d="M204.922 64.9792C205.472 64.9792 205.918 64.5328 205.918 63.9821C205.918 63.4314 205.472 62.985 204.922 62.985C204.373 62.985 203.927 63.4314 203.927 63.9821C203.927 64.5328 204.373 64.9792 204.922 64.9792Z" fill="#00546B"/>
<path d="M208.366 64.9792C208.916 64.9792 209.361 64.5328 209.361 63.9821C209.361 63.4314 208.916 62.985 208.366 62.985C207.816 62.985 207.37 63.4314 207.37 63.9821C207.37 64.5328 207.816 64.9792 208.366 64.9792Z" fill="#00546B"/>
<path d="M211.807 64.9792C212.357 64.9792 212.802 64.5328 212.802 63.9821C212.802 63.4314 212.357 62.985 211.807 62.985C211.257 62.985 210.811 63.4314 210.811 63.9821C210.811 64.5328 211.257 64.9792 211.807 64.9792Z" fill="#00546B"/>
<path d="M35.4994 109.701C35.2569 109.701 35.0635 109.505 35.0635 109.265V106.219C35.0635 105.976 35.2595 105.783 35.4994 105.783C35.7393 105.783 35.9353 105.979 35.9353 106.219V109.265C35.9353 109.507 35.7393 109.701 35.4994 109.701Z" fill="#1E1E1E"/>
<path d="M35.4994 122.294C35.2569 122.294 35.0635 122.098 35.0635 121.857V119.365C35.0635 119.122 35.2595 118.928 35.4994 118.928C35.7393 118.928 35.9353 119.124 35.9353 119.365V121.857C35.9353 122.1 35.7393 122.294 35.4994 122.294Z" fill="#1E1E1E"/>
<path d="M35.4994 133.613C35.2569 133.613 35.0635 133.417 35.0635 133.177V130.087C35.0635 129.845 35.2595 129.651 35.4994 129.651C35.7393 129.651 35.9353 129.847 35.9353 130.087V133.177C35.9353 133.42 35.7393 133.613 35.4994 133.613Z" fill="#1E1E1E"/>
<path d="M33.8929 115.787H24.6459C24.4034 115.787 24.21 115.591 24.21 115.35C24.21 115.11 24.406 114.914 24.6459 114.914H33.8929C34.1353 114.914 34.3288 115.11 34.3288 115.35C34.3288 115.591 34.1327 115.787 33.8929 115.787Z" fill="#1E1E1E"/>
<path d="M52.5179 125.167C52.2754 125.167 52.082 124.97 52.082 124.73V118.536L49.3401 115.79H41.7826C41.5401 115.79 41.3467 115.593 41.3467 115.353C41.3467 115.113 41.5427 114.917 41.7826 114.917H49.5207C49.6367 114.917 49.7476 114.963 49.8302 115.046L52.83 118.05C52.9125 118.133 52.9589 118.244 52.9589 118.36V124.735C52.9589 124.978 52.7629 125.172 52.523 125.172L52.5179 125.167Z" fill="#1E1E1E"/>
<path d="M28.5821 127.292H22.5516C22.4355 127.292 22.3246 127.246 22.242 127.163L19.2422 124.159C19.1597 124.076 19.1133 123.965 19.1133 123.849V116.965C19.1133 116.722 19.3093 116.528 19.5492 116.528C19.7891 116.528 19.9851 116.725 19.9851 116.965V123.668L22.727 126.414H28.5769C28.8194 126.414 29.0129 126.61 29.0129 126.851C29.0129 127.091 28.8168 127.287 28.5769 127.287L28.5821 127.292Z" fill="#1E1E1E"/>
<path d="M42.363 100.957H28.6357C27.1941 100.957 26.0254 102.128 26.0254 103.571V104.251C26.0254 105.694 27.1941 106.865 28.6357 106.865H42.363C43.8047 106.865 44.9733 105.694 44.9733 104.251V103.571C44.9733 102.128 43.8047 100.957 42.363 100.957Z" fill="#444444"/>
<path d="M35.5013 111.171L31.3301 115.349L35.5013 119.526L39.6725 115.349L35.5013 111.171Z" fill="#F4F4F4"/>
<path d="M35.4996 119.964C35.3887 119.964 35.2752 119.92 35.1901 119.835L31.0193 115.658C30.849 115.487 30.849 115.211 31.0193 115.038L35.1901 110.861C35.3603 110.691 35.6363 110.691 35.8091 110.861L39.98 115.038C40.1502 115.208 40.1502 115.485 39.98 115.658L35.8091 119.835C35.724 119.92 35.6131 119.964 35.4996 119.964ZM31.9478 115.348L35.4996 118.905L39.0514 115.348L35.4996 111.791L31.9478 115.348Z" fill="#1E1E1E"/>
<path d="M16.6035 112.395V118.303H22.5025V112.395H16.6035Z" fill="#3EAAFF"/>
<path d="M25.3525 137.881V138.56C25.3525 140.004 26.5212 141.174 27.9628 141.174H43.0392C44.4808 141.174 45.6495 140.004 45.6495 138.56V137.881C45.6495 136.437 44.4808 135.267 43.0392 135.267H27.9628C26.5212 135.267 25.3525 136.437 25.3525 137.881Z" fill="#444444"/>
<path d="M52.5185 129.739C54.1468 129.739 55.4667 128.417 55.4667 126.786C55.4667 125.155 54.1468 123.834 52.5185 123.834C50.8903 123.834 49.5703 125.155 49.5703 126.786C49.5703 128.417 50.8903 129.739 52.5185 129.739Z" fill="#F4F4F4"/>
<path d="M52.5185 130.175C50.6511 130.175 49.1318 128.654 49.1318 126.784C49.1318 124.913 50.6511 123.392 52.5185 123.392C54.386 123.392 55.9052 124.913 55.9052 126.784C55.9052 128.654 54.386 130.175 52.5185 130.175ZM52.5185 124.268C51.1334 124.268 50.0062 125.396 50.0062 126.784C50.0062 128.171 51.1334 129.3 52.5185 129.3C53.9036 129.3 55.0308 128.171 55.0308 126.784C55.0308 125.396 53.9036 124.268 52.5185 124.268Z" fill="#1E1E1E"/>
<path d="M47.3907 127.223H35.7191C35.4767 127.223 35.2832 127.026 35.2832 126.786C35.2832 126.546 35.4792 126.35 35.7191 126.35H47.3907C47.6332 126.35 47.8266 126.546 47.8266 126.786C47.8266 127.026 47.6306 127.223 47.3907 127.223Z" fill="#1E1E1E"/>
<path d="M30.6865 123.831V129.739H40.3127V123.831H30.6865Z" fill="#F4F4F4"/>
<path d="M40.313 130.175H30.6869C30.4444 130.175 30.251 129.979 30.251 129.739V123.831C30.251 123.588 30.447 123.394 30.6869 123.394H40.313C40.5555 123.394 40.749 123.591 40.749 123.831V129.739C40.749 129.981 40.5529 130.175 40.313 130.175ZM31.1228 129.3H39.8746V124.268H31.1228V129.3Z" fill="#1E1E1E"/>
<path d="M36.6397 122.294H34.3363C34.0938 122.294 33.9004 122.098 33.9004 121.857C33.9004 121.617 34.0964 121.421 34.3363 121.421H36.6397C36.8821 121.421 37.0756 121.617 37.0756 121.857C37.0756 122.098 36.8796 122.294 36.6397 122.294Z" fill="#1E1E1E"/>
<path d="M41.7826 116.805C41.5401 116.805 41.3467 116.609 41.3467 116.368V114.062C41.3467 113.819 41.5427 113.625 41.7826 113.625C42.0225 113.625 42.2185 113.821 42.2185 114.062V116.368C42.2185 116.611 42.0225 116.805 41.7826 116.805Z" fill="#1E1E1E"/>
<path d="M47.391 128.377C47.1485 128.377 46.9551 128.181 46.9551 127.941V125.634C46.9551 125.391 47.1511 125.198 47.391 125.198C47.6309 125.198 47.8269 125.394 47.8269 125.634V127.941C47.8269 128.184 47.6309 128.377 47.391 128.377Z" fill="#1E1E1E"/>
<path d="M28.5814 128.447C28.339 128.447 28.1455 128.251 28.1455 128.011V125.704C28.1455 125.461 28.3415 125.267 28.5814 125.267C28.8213 125.267 29.0173 125.464 29.0173 125.704V128.011C29.0173 128.253 28.8213 128.447 28.5814 128.447Z" fill="#1E1E1E"/>
<path d="M24.6459 116.939C24.4034 116.939 24.21 116.743 24.21 116.503V114.196C24.21 113.953 24.406 113.759 24.6459 113.759C24.8858 113.759 25.0818 113.956 25.0818 114.196V116.503C25.0818 116.745 24.8858 116.939 24.6459 116.939Z" fill="#1E1E1E"/>
<path d="M36.6397 110.009H34.3363C34.0938 110.009 33.9004 109.812 33.9004 109.572C33.9004 109.332 34.0964 109.135 34.3363 109.135H36.6397C36.8821 109.135 37.0756 109.332 37.0756 109.572C37.0756 109.812 36.8796 110.009 36.6397 110.009Z" fill="#1E1E1E"/>
<path d="M36.6397 133.828H34.3363C34.0938 133.828 33.9004 133.631 33.9004 133.391C33.9004 133.151 34.0964 132.955 34.3363 132.955H36.6397C36.8821 132.955 37.0756 133.151 37.0756 133.391C37.0756 133.631 36.8796 133.828 36.6397 133.828Z" fill="#1E1E1E"/>
<path d="M76.9111 29.3962H24.8545V34.4876H76.9111V29.3962Z" fill="url(#paint21_linear_3823_3520)"/>
<path d="M70.4446 23.6539H24.8545V28.7453H70.4446V23.6539Z" fill="url(#paint22_linear_3823_3520)"/>
<path d="M66.2196 17.909H24.8545V23.0004H66.2196V17.909Z" fill="url(#paint23_linear_3823_3520)"/>
<path d="M82.8614 12.1641H24.8594V17.2554H82.8614V12.1641Z" fill="url(#paint24_linear_3823_3520)"/>
<path d="M120.456 175.037C154.876 175.037 182.779 147.093 182.779 112.623C182.779 78.1524 154.876 50.2087 120.456 50.2087C86.0365 50.2087 58.1338 78.1524 58.1338 112.623C58.1338 147.093 86.0365 175.037 120.456 175.037Z" fill="#1E1E1E"/>
<path d="M120.456 170.658C152.461 170.658 178.407 144.675 178.407 112.623C178.407 80.5705 152.461 54.5871 120.456 54.5871C88.4511 54.5871 62.5059 80.5705 62.5059 112.623C62.5059 144.675 88.4511 170.658 120.456 170.658Z" fill="#F4F4F4"/>
<path d="M120.456 167.352C150.638 167.352 175.105 142.849 175.105 112.623C175.105 82.3966 150.638 57.8936 120.456 57.8936C90.2747 57.8936 65.8076 82.3966 65.8076 112.623C65.8076 142.849 90.2747 167.352 120.456 167.352Z" fill="url(#paint25_linear_3823_3520)"/>
<path d="M71.2265 111.832C71.0743 111.832 70.9221 111.825 70.7673 111.809C68.366 111.558 66.6223 109.407 66.8725 107.002C68.1467 94.7499 73.6485 83.1981 82.359 74.4748C88.5185 68.3062 96.1431 63.685 104.41 61.1096C106.716 60.3915 109.164 61.6805 109.881 63.9898C110.598 66.2991 109.311 68.7505 107.005 69.4687C100.087 71.623 93.7004 75.4951 88.5391 80.664C81.2395 87.9743 76.6328 97.6508 75.5649 107.908C75.3302 110.158 73.4344 111.832 71.2239 111.832H71.2265Z" fill="#F4F4F4"/>
<path d="M113.41 67.6811C113.268 67.6811 113.123 67.6733 112.979 67.6604C112.837 67.6449 112.695 67.6243 112.556 67.5958C112.417 67.5674 112.277 67.5313 112.141 67.4899C112.004 67.4486 111.87 67.3995 111.738 67.3453C111.607 67.291 111.478 67.229 111.351 67.1619C111.225 67.0947 111.101 67.0198 110.983 66.9423C110.864 66.8622 110.748 66.777 110.637 66.6866C110.526 66.5962 110.418 66.498 110.317 66.3973C110.217 66.2965 110.118 66.188 110.028 66.077C109.938 65.9659 109.853 65.8496 109.773 65.7308C109.693 65.612 109.621 65.488 109.554 65.3614C109.487 65.2348 109.425 65.1057 109.37 64.9739C109.316 64.8422 109.267 64.7079 109.226 64.571C109.185 64.4341 109.149 64.2946 109.12 64.1551C109.092 64.0156 109.071 63.8709 109.056 63.7315C109.04 63.5894 109.035 63.4447 109.035 63.3001C109.035 63.1554 109.043 63.0133 109.056 62.8687C109.071 62.7266 109.092 62.5845 109.12 62.445C109.149 62.3056 109.185 62.1661 109.226 62.0292C109.267 61.8922 109.316 61.7579 109.37 61.6262C109.425 61.4944 109.487 61.3653 109.554 61.2387C109.621 61.1121 109.695 60.9881 109.773 60.8693C109.853 60.7505 109.938 60.6343 110.028 60.5232C110.118 60.4121 110.217 60.3036 110.317 60.2029C110.418 60.1021 110.526 60.004 110.637 59.9136C110.748 59.8231 110.864 59.7379 110.983 59.6578C111.101 59.5777 111.225 59.5054 111.351 59.4383C111.478 59.3711 111.607 59.3091 111.738 59.2549C111.87 59.2006 112.004 59.1515 112.141 59.1102C112.277 59.0689 112.417 59.0327 112.556 59.0043C112.695 58.9759 112.84 58.9552 112.979 58.9397C113.265 58.9113 113.554 58.9113 113.838 58.9397C113.98 58.9552 114.122 58.9759 114.261 59.0043C114.4 59.0327 114.54 59.0689 114.676 59.1102C114.813 59.1515 114.947 59.2006 115.079 59.2549C115.21 59.3091 115.339 59.3711 115.465 59.4383C115.592 59.5054 115.716 59.5803 115.834 59.6578C115.953 59.7379 116.069 59.8231 116.18 59.9136C116.291 60.004 116.399 60.1021 116.5 60.2029C116.6 60.3036 116.698 60.4121 116.789 60.5232C116.879 60.6343 116.964 60.7505 117.044 60.8693C117.121 60.9881 117.196 61.1121 117.263 61.2387C117.33 61.3653 117.392 61.4944 117.446 61.6262C117.501 61.7579 117.55 61.8922 117.591 62.0292C117.632 62.1661 117.668 62.3056 117.697 62.445C117.725 62.5845 117.746 62.7292 117.761 62.8687C117.777 63.0108 117.782 63.1554 117.782 63.3001C117.782 63.4447 117.774 63.5868 117.761 63.7315C117.746 63.8735 117.725 64.0156 117.697 64.1551C117.668 64.2946 117.632 64.4341 117.591 64.571C117.55 64.7079 117.501 64.8422 117.446 64.9739C117.392 65.1057 117.33 65.2348 117.263 65.3614C117.196 65.488 117.121 65.612 117.044 65.7308C116.964 65.8496 116.879 65.9659 116.789 66.077C116.698 66.188 116.6 66.2965 116.5 66.3973C116.399 66.498 116.291 66.5962 116.18 66.6866C116.069 66.777 115.953 66.8622 115.834 66.9423C115.716 67.0224 115.592 67.0947 115.465 67.1619C115.339 67.229 115.21 67.291 115.079 67.3453C114.947 67.3995 114.813 67.4486 114.676 67.4899C114.54 67.5313 114.4 67.5674 114.261 67.5958C114.122 67.6243 113.977 67.6449 113.838 67.6604C113.696 67.6759 113.552 67.6811 113.407 67.6811H113.41Z" fill="#F4F4F4"/>
<mask id="mask0_3823_3520" style="mask-type:luminance" maskUnits="userSpaceOnUse" x="65" y="57" width="111" height="111">
<path d="M120.456 167.352C150.638 167.352 175.105 142.849 175.105 112.623C175.105 82.3966 150.638 57.8936 120.456 57.8936C90.2747 57.8936 65.8076 82.3966 65.8076 112.623C65.8076 142.849 90.2747 167.352 120.456 167.352Z" fill="white"/>
</mask>
<g mask="url(#mask0_3823_3520)">
<path d="M91.5308 108.637C91.5308 108.637 92.1756 98.87 92.5238 92.1099C92.872 85.3498 96.9577 75.3117 107.438 74.5781C107.438 74.5781 113.491 66.6453 125.617 69.0837C137.743 71.5222 150.737 96.2456 147.885 103.91C147.885 103.91 153.647 112.959 156.221 117.489C158.795 122.02 154.828 128.013 154.828 128.013C154.828 128.013 161.439 137.142 158.656 140.836C155.873 144.53 122.29 158.399 122.29 158.399C122.29 158.399 97.6309 163.503 91.9254 151.168C86.2199 138.834 82.8486 128.897 86.0496 121.857C89.2506 114.818 91.5359 108.637 91.5359 108.637H91.5308Z" fill="black"/>
<path d="M159.1 151.323C161.024 149.396 162.776 147.358 164.354 145.235C165.035 144.318 165.061 143.073 164.416 142.13C162.252 138.955 159.572 137.395 155.621 136.168C150.472 134.564 136.229 131.498 136.229 131.498L105.099 136.168C105.099 136.168 91.5364 141.21 86.0708 144.403C84.9255 145.072 83.5146 146.129 82.0005 147.376C80.7934 148.374 80.6876 150.195 81.7916 151.303C81.7993 151.311 81.8045 151.316 81.8122 151.323C103.154 172.696 137.756 172.696 159.098 151.323H159.1Z" fill="#2B6FDF"/>
<path d="M103.861 105.832C103.861 105.832 102.287 102.021 99.7932 102.874C97.299 103.729 100.454 111.021 103.206 112.532C105.958 114.043 106.028 112.008 106.028 112.008L103.863 105.832H103.861Z" fill="#D35E24"/>
<path d="M110.319 114.423C110.319 114.423 111.712 128.571 111.573 134.006C111.434 139.441 110.319 140.557 112.339 142.577C114.356 144.597 119.437 149.477 123.962 145.922C128.486 142.368 131.756 134.631 132.244 133.518C132.731 132.402 128.904 126.228 128.277 121.336C127.65 116.443 127.929 106.129 127.929 106.129L110.322 114.423H110.319Z" fill="#FF8338"/>
<path d="M125.238 114.219L110.348 114.743C110.477 116.079 110.974 121.382 111.297 126.373C124.477 127.83 125.238 114.219 125.238 114.219Z" fill="#D35E24"/>
<path d="M101.629 100.247C101.629 100.247 103.729 107.475 105.369 112.6C107.01 117.724 112.718 121.338 117.113 121.338C121.508 121.338 127.02 119.367 128.921 107.606C130.825 95.8452 130.758 87.8943 130.758 87.8943L104.908 78.4322L100.775 96.5013L101.629 100.247Z" fill="#FF8338"/>
<path d="M108.913 89.0773C108.913 89.0773 114.085 99.428 129.961 101.854L130.631 98.356L108.913 89.0773Z" fill="#D35E24"/>
<path d="M108.914 89.0773C108.914 89.0773 105.504 100.435 102.997 103.52L101.591 97.4338L108.914 89.0773Z" fill="#D35E24"/>
<path d="M128.8 105.114C128.8 105.114 129.86 101.128 132.445 101.647C135.029 102.166 132.863 109.81 130.332 111.672C127.802 113.535 127.467 111.522 127.467 111.522L128.8 105.114Z" fill="#FF8338"/>
<path d="M111.57 134.006C111.57 134.006 113.866 141.185 119.226 141.882C124.583 142.58 131.54 131.141 130.405 128.204C130.405 128.204 133.072 128.075 135.017 129.152C136.962 130.229 138.765 130.656 138.277 132.676C137.79 134.696 130.709 151.569 121.803 152.336C112.896 153.103 104.08 140.88 103.383 138.581C102.687 136.282 103.92 134.696 106.355 133.51C108.79 132.324 111.503 130.7 111.503 130.7C111.503 130.7 111.666 132.123 111.573 134.009L111.57 134.006Z" fill="#444444"/>
<path d="M114.367 106.031C114.176 105.963 114.098 105.733 114.207 105.56C114.421 105.214 114.748 104.778 115.561 104.747C116.162 104.723 116.709 104.943 117.083 105.147C117.317 105.276 117.304 105.615 117.059 105.723C116.626 105.912 116.01 106.149 115.561 106.201C115.112 106.253 114.668 106.136 114.367 106.028V106.031Z" fill="#D35E24"/>
<path d="M115.354 110.479C114.212 110.479 113.219 110.238 112.432 109.944C112.13 109.83 111.978 109.495 112.089 109.192C112.202 108.89 112.538 108.738 112.84 108.849C114.33 109.407 116.683 109.735 119.414 108.125C119.693 107.963 120.049 108.056 120.211 108.332C120.374 108.611 120.281 108.968 120.005 109.13C118.303 110.133 116.721 110.476 115.354 110.476V110.479Z" fill="#1E1E1E"/>
<path d="M108.914 89.0773C108.914 89.0773 106.892 96.1732 102.458 100.838L104.016 108.244L103.734 108.12C103.216 107.893 102.811 107.467 102.607 106.94L100.779 102.161L96.3652 93.6702L101.38 77.8458L119.342 74.139L138.589 84.965L139.861 100.079L131.127 101.396L129.936 106.418C129.843 106.811 129.603 107.154 129.265 107.376L128.919 107.606L130.021 99.9808C130.021 99.9808 116.03 99.2162 108.909 89.0773H108.914Z" fill="black"/>
</g>
<path d="M171.092 149.006L157.412 162.705C156.54 163.579 156.54 164.995 157.412 165.869L159.123 167.582C159.996 168.456 161.41 168.456 162.282 167.582L175.961 153.883C176.834 153.009 176.834 151.593 175.961 150.719L174.251 149.006C173.378 148.132 171.964 148.132 171.092 149.006Z" fill="#8B8B8B"/>
<path d="M163.834 166.029L174.411 155.436L199.405 180.468C201.99 183.056 201.99 187.257 199.405 189.845L198.192 191.06C195.608 193.648 191.413 193.648 188.828 191.06L163.834 166.029Z" fill="#C2C2C2"/>
<path d="M174.409 155.436L175.446 156.474L170.13 165.435L169.562 166.667C168.598 168.765 169.039 171.242 170.669 172.875L163.831 166.027L174.406 155.436H174.409Z" fill="#1E1E1E"/>
<path d="M24.6458 72.2042C24.4627 72.2042 24.2899 72.0879 24.2305 71.902C24.1557 71.6721 24.2821 71.4241 24.5091 71.3492L38.9922 66.6142C39.0567 66.5936 39.1237 66.5884 39.1882 66.5962L45.843 67.539L52.0463 66.5962C52.067 66.5936 52.0902 66.591 52.1108 66.591H54.3033L54.9481 66.1622L56.1552 65.1418C56.2146 65.0928 56.2842 65.0592 56.359 65.0463L58.4251 64.6743C58.4251 64.6743 58.4483 64.6717 58.4586 64.6691L60.8213 64.4341L63.6147 59.6501C63.6612 59.57 63.7308 59.508 63.8133 59.4718L67.4967 57.8264C67.5766 57.7902 67.6669 57.7799 67.7546 57.7954L71.652 58.5161L76.4909 56.9481L78.7169 55.2716C78.7452 55.251 78.7762 55.2329 78.8097 55.2174L82.475 53.6804C82.6968 53.5874 82.9548 53.6933 83.0476 53.9155C83.1405 54.1376 83.0373 54.396 82.8129 54.4889L79.1966 56.0053L76.9552 57.6946C76.9165 57.723 76.8726 57.7463 76.8262 57.7618L71.8119 59.384C71.7423 59.4073 71.6701 59.4098 71.5978 59.3969L67.7262 58.6814L64.2957 60.2132L61.4584 65.0695C61.3888 65.1909 61.2649 65.271 61.1257 65.2839L58.5592 65.5397L56.6247 65.8858L55.4872 66.8467C55.4872 66.8467 55.4614 66.8674 55.4485 66.8777L54.6721 67.3944C54.5999 67.4409 54.5173 67.4667 54.4297 67.4667H52.1366L45.9023 68.4147C45.861 68.4199 45.8172 68.4225 45.7759 68.4147L39.1573 67.477L24.7696 72.1809C24.7258 72.1964 24.6793 72.2016 24.6329 72.2016L24.6458 72.2042Z" fill="#2B6FDF"/>
<path d="M24.6434 73.5397C24.4216 73.5397 24.2307 73.3718 24.2101 73.147C24.1869 72.9068 24.3597 72.6924 24.6022 72.6666L30.8803 72.0311L36.6529 69.7683L44.0247 64.5968C44.1124 64.5348 44.2182 64.509 44.3239 64.5193L50.6356 65.2297L53.5013 64.3643L59.831 61.5823C59.8852 61.559 59.9471 61.5461 60.0064 61.5461H70.574L82.2792 55.8709C82.4958 55.765 82.7589 55.8554 82.8621 56.075C82.9678 56.292 82.8776 56.5555 82.6583 56.6588L70.8629 62.3779C70.8036 62.4063 70.7391 62.4218 70.672 62.4218H60.0941L53.8237 65.1754C53.8082 65.1832 53.7902 65.1884 53.7747 65.1935L50.7955 66.0899C50.7388 66.108 50.6795 66.1131 50.6201 66.1054L44.3832 65.4053L37.1043 70.5096C37.0759 70.5303 37.045 70.5458 37.014 70.5587L31.1382 72.8629C31.1021 72.8784 31.0634 72.8861 31.0222 72.8913L24.6847 73.5345C24.6692 73.5345 24.6537 73.5345 24.6408 73.5345L24.6434 73.5397Z" fill="#3EAAFF"/>
<path d="M24.6461 70.6594C24.5042 70.6594 24.3623 70.5897 24.2798 70.4605C24.1482 70.259 24.205 69.9878 24.4087 69.8561L34.3212 63.3905C34.4115 63.331 34.5198 63.3078 34.6256 63.3233L40.5271 64.2222L52.0595 54.6439C52.1265 54.5871 52.2116 54.5535 52.2993 54.5458L82.6171 51.8696C82.857 51.8489 83.0685 52.0272 83.0917 52.2674C83.1123 52.5076 82.9344 52.7195 82.6945 52.7427L52.5134 55.4059L40.9347 65.0204C40.8393 65.1005 40.7129 65.1341 40.5891 65.116L34.6591 64.2145L24.8859 70.5897C24.8111 70.6388 24.7286 70.6594 24.6486 70.6594H24.6461Z" fill="#1E1E1E"/>
<path d="M52.3351 56.4547C51.5226 56.4547 50.8623 55.7934 50.8623 54.9797C50.8623 54.166 51.5226 53.5048 52.3351 53.5048C53.1476 53.5048 53.8079 54.166 53.8079 54.9797C53.8079 55.7934 53.1476 56.4547 52.3351 56.4547ZM52.3351 54.0886C51.845 54.0886 51.4452 54.4889 51.4452 54.9797C51.4452 55.4705 51.845 55.8709 52.3351 55.8709C52.8252 55.8709 53.225 55.4705 53.225 54.9797C53.225 54.4889 52.8252 54.0886 52.3351 54.0886Z" fill="#1E1E1E"/>
<path d="M67.682 59.7147C66.8618 59.7147 66.1963 59.0482 66.1963 58.2268C66.1963 57.4053 66.8618 56.7389 67.682 56.7389C68.5022 56.7389 69.1677 57.4053 69.1677 58.2268C69.1677 59.0482 68.5022 59.7147 67.682 59.7147ZM67.682 57.3227C67.1842 57.3227 66.7792 57.7282 66.7792 58.2268C66.7792 58.7253 67.1842 59.1309 67.682 59.1309C68.1798 59.1309 68.5848 58.7253 68.5848 58.2268C68.5848 57.7282 68.1798 57.3227 67.682 57.3227Z" fill="#2B6FDF"/>
<path d="M70.6742 63.5739C69.7998 63.5739 69.0879 62.8609 69.0879 61.9852C69.0879 61.1096 69.7998 60.3966 70.6742 60.3966C71.5486 60.3966 72.2605 61.1096 72.2605 61.9852C72.2605 62.8609 71.5486 63.5739 70.6742 63.5739ZM70.6742 60.9804C70.1196 60.9804 69.6708 61.4325 69.6708 61.9852C69.6708 62.538 70.1222 62.9901 70.6742 62.9901C71.2262 62.9901 71.6776 62.538 71.6776 61.9852C71.6776 61.4325 71.2262 60.9804 70.6742 60.9804Z" fill="#3EAAFF"/>
<path d="M24.646 67.6501C24.486 67.6501 24.3545 67.5184 24.3545 67.3582V66.7744C24.3545 66.6143 24.486 66.4825 24.646 66.4825C24.8059 66.4825 24.9374 66.6143 24.9374 66.7744V67.3582C24.9374 67.5184 24.8059 67.6501 24.646 67.6501ZM24.646 64.15C24.486 64.15 24.3545 64.0182 24.3545 63.8581V63.2743C24.3545 63.1141 24.486 62.9824 24.646 62.9824C24.8059 62.9824 24.9374 63.1141 24.9374 63.2743V63.8581C24.9374 64.0182 24.8059 64.15 24.646 64.15ZM24.646 60.6498C24.486 60.6498 24.3545 60.5181 24.3545 60.3579V59.7741C24.3545 59.6139 24.486 59.4822 24.646 59.4822C24.8059 59.4822 24.9374 59.6139 24.9374 59.7741V60.3579C24.9374 60.5181 24.8059 60.6498 24.646 60.6498ZM24.646 57.1496C24.486 57.1496 24.3545 57.0179 24.3545 56.8577V56.2739C24.3545 56.1138 24.486 55.982 24.646 55.982C24.8059 55.982 24.9374 56.1138 24.9374 56.2739V56.8577C24.9374 57.0179 24.8059 57.1496 24.646 57.1496ZM24.646 53.6495C24.486 53.6495 24.3545 53.5177 24.3545 53.3576V52.7738C24.3545 52.6136 24.486 52.4819 24.646 52.4819C24.8059 52.4819 24.9374 52.6136 24.9374 52.7738V53.3576C24.9374 53.5177 24.8059 53.6495 24.646 53.6495Z" fill="#1E1E1E"/>
<path d="M202.113 129.752C203.924 129.752 205.392 128.282 205.392 126.468C205.392 124.655 203.924 123.185 202.113 123.185C200.303 123.185 198.835 124.655 198.835 126.468C198.835 128.282 200.303 129.752 202.113 129.752Z" fill="#2B6FDF"/>
<path d="M202.604 130.121C205.539 130.121 208.051 131.924 209.099 134.484H196.106C197.156 131.924 199.669 130.121 202.601 130.121H202.604Z" fill="#2B6FDF"/>
<path d="M202.098 114.813C204.051 114.813 205.634 113.228 205.634 111.272C205.634 109.316 204.051 107.73 202.098 107.73C200.145 107.73 198.562 109.316 198.562 111.272C198.562 113.228 200.145 114.813 202.098 114.813Z" fill="#444444"/>
<path d="M200.651 115.211C197.484 115.211 194.773 117.156 193.641 119.92H207.659C206.527 117.159 203.816 115.211 200.649 115.211H200.651Z" fill="#444444"/>
<path d="M210.661 120.359H191.659C190.63 120.359 189.792 119.52 189.792 118.489V116.645C189.792 116.547 189.712 116.466 189.614 116.466H187.331C186.962 116.466 186.648 116.226 186.552 115.87C186.457 115.513 186.604 115.146 186.924 114.958L189.707 113.325C189.761 113.294 189.794 113.235 189.794 113.17V106.787C189.794 105.757 190.633 104.917 191.662 104.917H210.664C211.693 104.917 212.531 105.757 212.531 106.787V118.489C212.531 119.52 211.693 120.359 210.664 120.359H210.661ZM187.571 115.591H189.614C190.194 115.591 190.666 116.063 190.666 116.645V118.489C190.666 119.037 191.112 119.484 191.659 119.484H210.661C211.208 119.484 211.654 119.037 211.654 118.489V106.787C211.654 106.24 211.208 105.793 210.661 105.793H191.659C191.112 105.793 190.666 106.24 190.666 106.787V113.17C190.666 113.542 190.468 113.891 190.145 114.08L187.571 115.591Z" fill="#1E1E1E"/>
<path d="M221.121 114.813C223.074 114.813 224.657 113.228 224.657 111.272C224.657 109.316 223.074 107.73 221.121 107.73C219.168 107.73 217.584 109.316 217.584 111.272C217.584 113.228 219.168 114.813 221.121 114.813Z" fill="#3EAAFF"/>
<path d="M223.535 115.211C226.702 115.211 229.413 117.156 230.546 119.92H216.527C217.659 117.159 220.37 115.211 223.538 115.211H223.535Z" fill="#3EAAFF"/>
<path d="M232.524 120.359H213.522C212.493 120.359 211.654 119.52 211.654 118.489V106.787C211.654 105.757 212.493 104.917 213.522 104.917H232.524C233.553 104.917 234.391 105.757 234.391 106.787V113.17C234.391 113.232 234.425 113.292 234.479 113.325L237.262 114.958C237.582 115.144 237.732 115.511 237.634 115.87C237.536 116.226 237.223 116.466 236.852 116.466H234.569C234.471 116.466 234.391 116.547 234.391 116.645V118.489C234.391 119.52 233.553 120.359 232.524 120.359ZM213.522 105.795C212.975 105.795 212.529 106.242 212.529 106.79V118.492C212.529 119.039 212.975 119.486 213.522 119.486H232.524C233.071 119.486 233.517 119.039 233.517 118.492V116.647C233.517 116.066 233.989 115.593 234.569 115.593H236.612L234.038 114.082C233.718 113.894 233.517 113.545 233.517 113.173V106.79C233.517 106.242 233.071 105.795 232.524 105.795H213.522Z" fill="#1E1E1E"/>
<path d="M193.266 138.198C193.194 138.198 193.121 138.188 193.049 138.17C192.693 138.072 192.453 137.759 192.453 137.39V135.104C192.453 135.006 192.373 134.926 192.275 134.926C190.906 134.926 189.794 133.81 189.794 132.441V121.356C189.794 120.326 190.632 119.486 191.661 119.486H210.664C211.693 119.486 212.531 120.326 212.531 121.356V133.058C212.531 134.089 211.693 134.928 210.664 134.928H195.745C195.683 134.928 195.623 134.962 195.59 135.016L193.96 137.803C193.81 138.059 193.549 138.204 193.268 138.204L193.266 138.198ZM191.659 120.359C191.112 120.359 190.666 120.806 190.666 121.354V132.438C190.666 133.327 191.388 134.05 192.275 134.05C192.856 134.05 193.328 134.523 193.328 135.104V137.147L194.837 134.569C195.025 134.249 195.373 134.047 195.745 134.047H210.664C211.21 134.047 211.657 133.6 211.657 133.053V121.351C211.657 120.804 211.21 120.357 210.664 120.357H191.661L191.659 120.359Z" fill="#1E1E1E"/>
<path d="M222.163 129.752C223.973 129.752 225.441 128.282 225.441 126.468C225.441 124.655 223.973 123.185 222.163 123.185C220.352 123.185 218.884 124.655 218.884 126.468C218.884 128.282 220.352 129.752 222.163 129.752Z" fill="#8B8B8B"/>
<path d="M222.163 130.121C219.227 130.121 216.715 131.924 215.668 134.484H228.66C227.61 131.924 225.098 130.121 222.165 130.121H222.163Z" fill="#8B8B8B"/>
<path d="M230.917 138.198C230.636 138.198 230.373 138.051 230.226 137.798L228.596 135.011C228.565 134.957 228.505 134.923 228.441 134.923H213.522C212.493 134.923 211.654 134.084 211.654 133.053V121.351C211.654 120.32 212.493 119.481 213.522 119.481H232.524C233.553 119.481 234.391 120.32 234.391 121.351V133.053C234.391 134.084 233.553 134.923 232.524 134.923H231.907C231.809 134.923 231.729 135.003 231.729 135.101V137.387C231.729 137.757 231.49 138.072 231.134 138.167C231.061 138.188 230.989 138.196 230.917 138.196V138.198ZM213.522 120.357C212.975 120.357 212.529 120.804 212.529 121.351V133.053C212.529 133.6 212.975 134.047 213.522 134.047H228.441C228.812 134.047 229.16 134.246 229.349 134.569L230.858 137.147V135.104C230.858 134.523 231.33 134.05 231.91 134.05H232.526C233.073 134.05 233.52 133.603 233.52 133.055V121.354C233.52 120.806 233.073 120.359 232.526 120.359H213.524L213.522 120.357Z" fill="#1E1E1E"/>
<path d="M163.841 16.9713C163.769 16.4857 163.56 16.0181 163.245 15.641C162.936 15.2613 162.523 14.9694 162.066 14.8041C161.752 14.693 161.427 14.6387 161.091 14.6387H156.647L158.463 16.4857C158.463 16.4857 158.476 16.496 158.484 16.5012C158.478 16.496 158.473 16.4857 158.473 16.4857C162.569 19.2755 161.244 22.352 161.244 22.352C161.244 22.352 162.407 23.6694 161.937 24.8215C161.937 24.8215 161.937 24.8189 161.932 24.8138C161.888 24.7466 161.842 24.6794 161.788 24.6149C161.788 24.6149 161.788 24.6149 161.788 24.6123C161.728 24.5399 161.664 24.4728 161.594 24.4108C161.594 24.4108 161.594 24.4108 161.592 24.4082C161.532 24.354 161.468 24.3049 161.401 24.2584C161.238 24.1473 161.042 24.0543 160.815 24.0233C160.805 24.0233 160.795 24.0207 160.784 24.0207C160.751 24.0181 160.717 24.0156 160.684 24.0156C160.622 24.0156 160.557 24.0156 160.496 24.0259C160.472 24.0285 160.452 24.0336 160.428 24.0388C160.364 24.0517 160.297 24.0672 160.235 24.0905C160.227 24.0931 160.22 24.0982 160.209 24.1008C160.155 24.1215 160.101 24.1447 160.047 24.168C160.005 24.1886 159.962 24.2067 159.918 24.23C159.871 24.2532 159.825 24.2765 159.778 24.3023C159.763 24.31 159.748 24.3178 159.732 24.3255C159.665 24.3591 159.595 24.3953 159.523 24.4315C159.27 24.5554 158.976 24.6794 158.602 24.7518C158.602 24.7518 158.597 24.7518 158.595 24.7518C158.589 24.7518 158.584 24.7518 158.579 24.7518C158.368 24.7931 158.13 24.8189 157.857 24.8189C157.834 24.8189 157.813 24.8189 157.79 24.8189C157.769 24.8189 157.749 24.8189 157.73 24.8189C157.687 24.8189 157.645 24.8138 157.601 24.8112C157.558 24.8112 157.514 24.806 157.473 24.8034C157.398 24.7983 157.326 24.7931 157.251 24.7853C157.217 24.7828 157.184 24.7776 157.15 24.7724C156.892 24.7414 156.634 24.6949 156.384 24.6304C156.371 24.6278 156.356 24.6226 156.343 24.62C156.294 24.6071 156.245 24.5968 156.196 24.5813C155.93 24.5012 155.672 24.4005 155.419 24.2842C155.386 24.2687 155.352 24.2532 155.319 24.2377C155.27 24.2145 155.223 24.1912 155.177 24.1654C155.12 24.137 155.066 24.106 155.012 24.075C154.991 24.0646 154.971 24.0543 154.95 24.0414C154.945 24.0414 154.942 24.0362 154.937 24.0336C154.772 23.9381 154.617 23.8373 154.47 23.734C154.455 23.7237 154.439 23.7108 154.424 23.7004C154.282 23.5971 154.148 23.4938 154.024 23.3879C154.011 23.3775 153.996 23.3672 153.983 23.3543C153.962 23.3362 153.944 23.3181 153.923 23.3C153.833 23.22 153.748 23.1425 153.668 23.0624C153.64 23.034 153.609 23.003 153.58 22.9746C153.505 22.8971 153.436 22.8221 153.369 22.7498C153.343 22.7214 153.317 22.6956 153.291 22.6672C153.276 22.6491 153.263 22.6284 153.248 22.6103C153.111 22.4502 153.002 22.3081 152.92 22.1919C152.904 22.1712 152.889 22.1531 152.874 22.1324C152.819 22.0601 152.77 21.9826 152.729 21.9051L151.468 20.5412V24.3049C151.468 24.7233 151.561 25.1418 151.744 25.5138C151.958 25.9503 152.288 26.3301 152.69 26.6013C153.103 26.8777 153.593 27.0378 154.088 27.0637C154.192 27.0688 160.955 27.0688 161.086 27.0688C161.383 27.0688 161.674 27.0301 161.955 26.9423C162.417 26.7976 162.843 26.5238 163.168 26.1596C163.498 25.7954 163.725 25.3433 163.823 24.8628C163.867 24.6536 163.877 24.434 163.877 24.2222V17.5009C163.877 17.32 163.872 17.1418 163.844 16.961L163.841 16.9713Z" fill="url(#paint26_linear_3823_3520)"/>
</g>
<defs>
<linearGradient id="paint0_linear_3823_3520" x1="153.157" y1="14.0214" x2="151.434" y2="23.7797" gradientUnits="userSpaceOnUse">
<stop stop-color="#E29E3A"/>
<stop offset="1" stop-color="#D23929"/>
</linearGradient>
<linearGradient id="paint1_linear_3823_3520" x1="156.34" y1="13.7527" x2="153.986" y2="27.078" gradientUnits="userSpaceOnUse">
<stop stop-color="#F9AD42"/>
<stop offset="1" stop-color="#EE3E31"/>
</linearGradient>
<linearGradient id="paint2_linear_3823_3520" x1="156.196" y1="14.5586" x2="154.473" y2="24.3169" gradientUnits="userSpaceOnUse">
<stop stop-color="#E29E3A"/>
<stop offset="1" stop-color="#D23929"/>
</linearGradient>
<linearGradient id="paint3_linear_3823_3520" x1="177.092" y1="35.5207" x2="184.162" y2="41.5339" gradientUnits="userSpaceOnUse">
<stop stop-color="#5A9ED3"/>
<stop offset="1" stop-color="#306997"/>
</linearGradient>
<linearGradient id="paint4_linear_3823_3520" x1="186.804" y1="45.3066" x2="184.261" y2="41.7583" gradientUnits="userSpaceOnUse">
<stop stop-color="#FFD33B"/>
<stop offset="1" stop-color="#FFE773"/>
</linearGradient>
<linearGradient id="paint5_linear_3823_3520" x1="135.935" y1="70.1974" x2="135.935" y2="65.0825" gradientUnits="userSpaceOnUse">
<stop stop-color="#FA7655"/>
<stop offset="0.41" stop-color="#E32B1E"/>
<stop offset="0.99" stop-color="#980000"/>
<stop offset="1" stop-color="#980000"/>
</linearGradient>
<linearGradient id="paint6_linear_3823_3520" x1="137.956" y1="69.6555" x2="134.416" y2="68.7018" gradientUnits="userSpaceOnUse">
<stop stop-color="#861101"/>
<stop offset="0.99" stop-color="#901209"/>
<stop offset="1" stop-color="#901209"/>
</linearGradient>
<linearGradient id="paint7_linear_3823_3520" x1="138.064" y1="71.0903" x2="137.995" y2="68.7354" gradientUnits="userSpaceOnUse">
<stop stop-color="#861101"/>
<stop offset="0.99" stop-color="#901209"/>
<stop offset="1" stop-color="#901209"/>
</linearGradient>
<linearGradient id="paint8_linear_3823_3520" x1="126.33" y1="69.4268" x2="128.596" y2="70.9467" gradientUnits="userSpaceOnUse">
<stop stop-color="white"/>
<stop offset="0.23" stop-color="#E47252"/>
<stop offset="0.46" stop-color="#DD3B20"/>
<stop offset="0.99" stop-color="#A50003"/>
<stop offset="1" stop-color="#A50003"/>
</linearGradient>
<linearGradient id="paint9_linear_3823_3520" x1="133.923" y1="65.225" x2="133.923" y2="70.6141" gradientUnits="userSpaceOnUse">
<stop stop-color="white"/>
<stop offset="0.23" stop-color="#E3714E"/>
<stop offset="0.56" stop-color="#BD1A0D"/>
<stop offset="0.99" stop-color="#A70D00"/>
<stop offset="1" stop-color="#A70D00"/>
</linearGradient>
<linearGradient id="paint10_linear_3823_3520" x1="138.213" y1="61.7629" x2="138.213" y2="65.1135" gradientUnits="userSpaceOnUse">
<stop stop-color="white"/>
<stop offset="0.18" stop-color="#E36342"/>
<stop offset="0.4" stop-color="#C72410"/>
<stop offset="0.99" stop-color="#A70D00"/>
<stop offset="1" stop-color="#A70D00"/>
</linearGradient>
<linearGradient id="paint11_linear_3823_3520" x1="134.941" y1="61.1903" x2="135.196" y2="59.7019" gradientUnits="userSpaceOnUse">
<stop stop-color="white"/>
<stop offset="0.54" stop-color="#C71F11"/>
<stop offset="0.99" stop-color="#BE0905"/>
<stop offset="1" stop-color="#BE0905"/>
</linearGradient>
<linearGradient id="paint12_linear_3823_3520" x1="125.028" y1="64.0797" x2="125.028" y2="67.7445" gradientUnits="userSpaceOnUse">
<stop stop-color="white"/>
<stop offset="0.31" stop-color="#DD4024"/>
<stop offset="0.99" stop-color="#BE190B"/>
<stop offset="1" stop-color="#BE190B"/>
</linearGradient>
<linearGradient id="paint13_linear_3823_3520" x1="122.675" y1="71.2242" x2="130.643" y2="59.2733" gradientUnits="userSpaceOnUse">
<stop stop-color="#BC0012"/>
<stop offset="0.07" stop-color="white"/>
<stop offset="0.17" stop-color="white"/>
<stop offset="0.27" stop-color="#C72F1C"/>
<stop offset="0.33" stop-color="#810C01"/>
<stop offset="0.46" stop-color="#A21601"/>
<stop offset="0.72" stop-color="#B21301"/>
<stop offset="0.99" stop-color="#E72609"/>
<stop offset="1" stop-color="#E72609"/>
</linearGradient>
<linearGradient id="paint14_linear_3823_3520" x1="133.712" y1="70.2932" x2="130.511" y2="70.2932" gradientUnits="userSpaceOnUse">
<stop stop-color="#8B0C01"/>
<stop offset="0.54" stop-color="#980C00"/>
<stop offset="0.99" stop-color="#A70D0E"/>
<stop offset="1" stop-color="#A70D0E"/>
</linearGradient>
<linearGradient id="paint15_linear_3823_3520" x1="138.831" y1="66.2407" x2="136.464" y2="66.2407" gradientUnits="userSpaceOnUse">
<stop stop-color="#7E110B"/>
<stop offset="0.99" stop-color="#9D0C00"/>
<stop offset="1" stop-color="#9D0C00"/>
</linearGradient>
<linearGradient id="paint16_linear_3823_3520" x1="139.068" y1="59.1619" x2="139.068" y2="59.1619" gradientUnits="userSpaceOnUse">
<stop stop-color="#79130D"/>
<stop offset="0.99" stop-color="#9D120B"/>
<stop offset="1" stop-color="#9D120B"/>
</linearGradient>
<radialGradient id="paint17_radial_3823_3520" cx="0" cy="0" r="1" gradientUnits="userSpaceOnUse" gradientTransform="translate(135.999 65.9737) scale(2.34523 1.22725)">
<stop stop-color="#A70D00"/>
<stop offset="0.99" stop-color="#7E0E08"/>
<stop offset="1" stop-color="#7E0E08"/>
</radialGradient>
<radialGradient id="paint18_radial_3823_3520" cx="0" cy="0" r="1" gradientUnits="userSpaceOnUse" gradientTransform="translate(127.363 70.5602) scale(4.90806 3.82631)">
<stop stop-color="#A20C00"/>
<stop offset="0.99" stop-color="#800E08"/>
<stop offset="1" stop-color="#800E08"/>
</radialGradient>
<linearGradient id="paint19_linear_3823_3520" x1="131.298" y1="70.9848" x2="129.673" y2="70.182" gradientUnits="userSpaceOnUse">
<stop stop-color="#8A2114"/>
<stop offset="0.43" stop-color="#9D100A"/>
<stop offset="0.99" stop-color="#B2100C"/>
<stop offset="1" stop-color="#B2100C"/>
</linearGradient>
<linearGradient id="paint20_linear_3823_3520" x1="134.076" y1="61.855" x2="134.662" y2="63.2556" gradientUnits="userSpaceOnUse">
<stop stop-color="#B21000"/>
<stop offset="0.44" stop-color="#900F08"/>
<stop offset="0.99" stop-color="#791C12"/>
<stop offset="1" stop-color="#791C12"/>
</linearGradient>
<linearGradient id="paint21_linear_3823_3520" x1="24.8545" y1="31.9432" x2="76.9111" y2="31.9432" gradientUnits="userSpaceOnUse">
<stop stop-color="#F4F4F4"/>
<stop offset="0.26" stop-color="#ADADAD"/>
<stop offset="0.52" stop-color="#6F6F6F"/>
<stop offset="0.74" stop-color="#434343"/>
<stop offset="0.9" stop-color="#282828"/>
<stop offset="1" stop-color="#1E1E1E"/>
</linearGradient>
<linearGradient id="paint22_linear_3823_3520" x1="24.8545" y1="26.1983" x2="70.4446" y2="26.1983" gradientUnits="userSpaceOnUse">
<stop stop-color="#F4F4F4"/>
<stop offset="0.31" stop-color="#DEEAF6"/>
<stop offset="0.74" stop-color="#C5DFF9"/>
<stop offset="1" stop-color="#BCDBFB"/>
</linearGradient>
<linearGradient id="paint23_linear_3823_3520" x1="24.8545" y1="20.4534" x2="66.2196" y2="20.4534" gradientUnits="userSpaceOnUse">
<stop stop-color="#F4F4F4"/>
<stop offset="1"/>
</linearGradient>
<linearGradient id="paint24_linear_3823_3520" x1="24.8594" y1="14.7085" x2="82.8614" y2="14.7085" gradientUnits="userSpaceOnUse">
<stop stop-color="#F4F4F4"/>
<stop offset="0.16" stop-color="#C5D4EF"/>
<stop offset="0.37" stop-color="#8EB0E9"/>
<stop offset="0.57" stop-color="#6394E4"/>
<stop offset="0.75" stop-color="#447FE1"/>
<stop offset="0.9" stop-color="#3173DF"/>
<stop offset="1" stop-color="#2B6FDF"/>
</linearGradient>
<linearGradient id="paint25_linear_3823_3520" x1="120.456" y1="119.357" x2="120.456" y2="200.499" gradientUnits="userSpaceOnUse">
<stop stop-color="#C2C2C2"/>
<stop offset="0.19" stop-color="#CFCFCF"/>
<stop offset="0.55" stop-color="#F3F3F3"/>
<stop offset="0.56" stop-color="#F4F4F4"/>
</linearGradient>
<linearGradient id="paint26_linear_3823_3520" x1="159.134" y1="14.2461" x2="156.782" y2="27.5714" gradientUnits="userSpaceOnUse">
<stop stop-color="#F9AD42"/>
<stop offset="1" stop-color="#EE3E31"/>
</linearGradient>
<clipPath id="clip0_3823_3520">
<rect width="248" height="193" fill="white"/>
</clipPath>
</defs>
</svg>
