<svg width="248" height="207" viewBox="0 0 248 207" fill="none" xmlns="http://www.w3.org/2000/svg">
<g clip-path="url(#clip0_3823_3671)">
<path d="M13.4375 73.1363C12.1735 72.3214 17.7996 72.15 17.7996 72.15L18.2856 74.4289C18.2856 74.4289 13.811 73.378 13.4375 73.1363Z" fill="#DDDDDD"/>
<path d="M36.8125 78.8969L33.5205 53.2836C33.5205 53.2836 64.0669 54.1996 70.4879 54.2811L72.6985 79.265C72.6985 79.265 57.893 79.3633 36.8125 78.8997V78.8969Z" fill="#EFEFEF"/>
<path d="M61.1261 75.5024L68.7016 113.662C68.7016 113.662 48.7249 113.159 35.1722 111.305C19.8105 109.2 19.6701 107.309 19.6701 107.309L13.249 72.9228C13.3164 73.2881 16.5775 74.2042 31.9476 74.8589C47.2615 75.5108 61.1261 75.5052 61.1261 75.5052V75.5024Z" fill="#646464"/>
<path opacity="0.05" d="M46.6267 112.496L44.7812 102.302L54.6123 102.684L55.6993 113.05L46.6267 112.496Z" fill="black"/>
<path d="M47.2363 99.868L51.5367 121.252C51.5367 121.252 68.6033 123.177 89.9675 123.129L86.111 101.596C86.2992 101.607 62.3536 101.397 47.2363 99.8709V99.868Z" fill="#1E1E1E"/>
<path d="M24.507 14.6065C24.507 14.6065 16.4877 13.2352 9.62847 11.3103L15.044 37.4238C15.044 37.4238 6.22132 38.0055 6.66512 39.787C7.10892 41.5686 30.0882 42.9399 30.0882 42.9399L24.507 14.6093V14.6065Z" fill="#EFEFEF"/>
<path d="M11.0865 18.3326C11.0865 18.3326 20.1704 20.3193 22.9483 20.5497L26.4791 39.3796C26.4791 39.3796 9.15119 38.7305 7.80294 35.5889C6.45469 32.4473 5.68506 18.3326 5.68506 18.3326H11.0865Z" fill="#B3DDFF"/>
<path d="M15.044 37.421L9.62851 11.3075L7.55557 1.31506C7.55557 1.31506 -0.764276 2.68354 0.0559116 6.62319L6.66516 39.7842C6.21855 38.0027 15.044 37.421 15.044 37.421Z" fill="#646464"/>
<path d="M41.9082 26.4366L45.189 47.9445C45.189 47.9445 60.1461 48.6779 80.78 49.1894L79.0694 28.3924C79.0694 28.3924 65.0701 28.0917 41.9082 26.4366Z" fill="#EFEFEF"/>
<path d="M91.8299 57.4255L90.5547 34.5126H128.671L129.154 57.4255H91.8299Z" fill="#EFEFEF"/>
<path opacity="0.6" d="M94.4364 55.1325L93.2202 36.5977H126.095L126.665 55.3517C126.665 55.3517 103.627 55.2815 94.4364 55.1353V55.1325Z" fill="#2B6FDF"/>
<mask id="mask0_3823_3671" style="mask-type:luminance" maskUnits="userSpaceOnUse" x="93" y="36" width="34" height="20">
<path d="M94.4364 55.1325L93.2202 36.5977H126.095L126.665 55.3517C126.665 55.3517 103.627 55.2815 94.4364 55.1353V55.1325Z" fill="white"/>
</mask>
<g mask="url(#mask0_3823_3671)">
<path d="M106.498 51.7127L100.113 56.2032L110.048 58.5973L119.017 55.377L113.599 51.665L106.498 51.7127Z" fill="#1E1E1E"/>
<path d="M106.888 48.0316H113.211V51.3952C113.211 53.1402 111.795 54.5593 110.048 54.5593C108.304 54.5593 106.885 53.143 106.885 51.3952V48.0316H106.888Z" fill="#FF8438"/>
<path d="M105.225 45.9017C105.254 44.7243 105.877 44.7945 106.296 45.5111C106.301 45.5223 106.307 45.5308 106.313 45.542C106.329 46.5199 106.447 48.5768 106.15 48.5824C106.15 48.5824 105.464 48.3998 105.256 46.548C105.228 46.3007 105.22 46.0871 105.223 45.9017H105.225Z" fill="#FF8438"/>
<path d="M108.543 48.2368C109.009 48.2452 109.037 47.7225 109.037 47.7225C109.037 47.7225 109.385 47.7282 110.582 47.7478C111.776 47.7675 111.641 46.9667 111.638 46.0141C111.635 45.2582 111.61 43.9908 111.599 43.4991C111.273 43.6733 110.899 43.7688 110.5 43.7604C109.618 43.7464 108.866 43.2321 108.498 42.4931C108.343 43.0411 106.843 43.4654 106.287 43.589C106.175 43.6143 106.057 43.6284 105.936 43.6255C106.003 44.9856 106.074 46.5985 106.085 47.5989L108.088 47.613C108.088 47.613 108.076 48.2255 108.543 48.2312V48.2368Z" fill="#FF8438"/>
<path d="M115.323 42.5549C115.337 41.6951 114.775 40.9588 113.992 40.7144C114.028 40.5542 114.051 40.3856 114.054 40.2142C114.076 38.8907 113.02 37.8004 111.697 37.7807C111.245 37.7723 110.818 37.8959 110.455 38.1067C110.048 37.6571 109.464 37.3676 108.809 37.3564C108.043 37.3451 107.357 37.7161 106.939 38.2921C106.192 38.3258 105.591 38.9328 105.579 39.6887C105.579 39.6915 105.579 39.6943 105.579 39.6971C104.714 39.7702 104.026 40.4896 104.012 41.3747C104.006 41.7316 104.11 42.0632 104.29 42.3414C104.209 42.5128 104.161 42.7039 104.158 42.909C104.147 43.6789 104.759 44.314 105.529 44.3252C105.678 44.3252 105.826 44.2943 105.961 44.2522C105.961 44.2522 105.925 43.6199 105.93 43.6199C106.051 43.6199 107.222 43.6087 107.335 43.5834C107.891 43.4597 108.338 43.0354 108.492 42.4875C108.86 43.2265 109.613 43.7408 110.495 43.7548C110.891 43.7604 111.264 43.6649 111.593 43.4935C111.604 43.9852 111.63 45.2525 111.632 46.0084C111.638 46.961 111.773 47.7619 110.576 47.7422L109.031 47.7169C109.031 47.7169 109.003 48.2396 108.537 48.2312C108.071 48.2227 108.082 47.613 108.082 47.613L105.782 47.5989C105.782 47.79 105.782 47.9614 105.782 48.1019C105.759 49.4282 106.265 51.71 108.7 51.71C112.644 51.71 113.101 48.5712 113.101 48.5712C112.66 48.5627 113.287 46.5086 113.304 45.5307L112.408 45.4802C112.408 45.4802 113.292 45.5251 113.304 45.5307C113.922 44.817 113.75 45.0418 114.028 45.8988C114.509 45.778 114.868 45.3481 114.877 44.8282C114.882 44.5219 114.761 44.2409 114.565 44.033C115.011 43.693 115.306 43.1591 115.318 42.5549H115.323Z" fill="#FFC302"/>
<path d="M114.034 45.9017C114.006 44.7243 113.382 44.7945 112.964 45.5111C112.958 45.5223 112.952 45.5308 112.947 45.542C112.93 46.5199 112.812 48.5768 113.11 48.5824C113.11 48.5824 113.795 48.3998 114.003 46.548C114.031 46.3007 114.039 46.0871 114.037 45.9017H114.034Z" fill="#FF8438"/>
<path d="M106.147 43.6255H105.79V47.7788H106.147V43.6255Z" fill="#FFC302"/>
<path opacity="0.15" d="M110.5 43.7604C109.619 43.7464 108.866 43.2321 108.498 42.4931C108.343 43.0411 107.897 43.4654 107.341 43.589C107.256 43.6087 106.315 43.6199 105.796 43.6255H105.79V43.87C106.032 43.8644 106.43 43.8616 107.054 43.8616C108.318 43.8616 108.531 43.1141 108.531 43.1141C109.529 44.3786 111.116 44.0218 111.607 43.87C111.604 43.7239 111.602 43.5946 111.599 43.4991C111.273 43.6733 110.899 43.7688 110.5 43.7604Z" fill="black"/>
<path opacity="0.5" d="M107.248 44.7436L107.245 44.7436C106.631 44.7514 106.139 45.2558 106.147 45.8703L106.147 45.8731C106.155 46.4876 106.659 46.9795 107.273 46.9718L107.276 46.9718C107.89 46.9641 108.382 46.4596 108.374 45.8451L108.374 45.8423C108.366 45.2278 107.862 44.7359 107.248 44.7436Z" fill="url(#paint0_linear_3823_3671)"/>
<path opacity="0.5" d="M110.261 44.7057L110.258 44.7057C109.644 44.7135 109.152 45.2179 109.16 45.8324L109.16 45.8352C109.168 46.4497 109.672 46.9416 110.286 46.9339L110.289 46.9339C110.903 46.9262 111.395 46.4217 111.387 45.8072L111.387 45.8044C111.38 45.1899 110.875 44.698 110.261 44.7057Z" fill="url(#paint1_linear_3823_3671)"/>
<path d="M107.259 47.1353C106.56 47.1353 105.99 46.5705 105.981 45.8708C105.976 45.5279 106.105 45.2048 106.343 44.9603C106.582 44.7158 106.902 44.5782 107.242 44.5753C107.95 44.5669 108.529 45.1345 108.537 45.8399C108.543 46.1827 108.414 46.5058 108.175 46.7503C107.936 46.9948 107.616 47.1325 107.276 47.1353C107.27 47.1353 107.265 47.1353 107.259 47.1353ZM107.259 44.9069C107.259 44.9069 107.251 44.9069 107.248 44.9069C106.995 44.9097 106.759 45.0109 106.582 45.1936C106.405 45.3762 106.31 45.6151 106.313 45.868C106.318 46.3906 106.745 46.8093 107.273 46.8037C107.526 46.8009 107.762 46.6997 107.939 46.5171C108.116 46.3344 108.211 46.0956 108.209 45.8427C108.203 45.3228 107.779 44.9069 107.262 44.9069H107.259Z" fill="#1E1E1E"/>
<path d="M110.276 47.0987C109.576 47.0987 109.006 46.5339 108.998 45.8342C108.992 45.4914 109.121 45.1682 109.36 44.9238C109.599 44.6793 109.919 44.5416 110.259 44.5388C110.958 44.5304 111.545 45.098 111.554 45.8033C111.559 46.1461 111.43 46.4693 111.191 46.7137C110.953 46.9582 110.632 47.0959 110.293 47.0987C110.293 47.0987 110.281 47.0987 110.276 47.0987ZM110.276 44.8704C110.276 44.8704 110.267 44.8704 110.265 44.8704C110.012 44.8732 109.776 44.9743 109.599 45.157C109.422 45.3396 109.326 45.5785 109.329 45.8314C109.335 46.3541 109.765 46.7728 110.29 46.7671C110.543 46.7643 110.779 46.6632 110.956 46.4805C111.132 46.2979 111.228 46.059 111.225 45.8061C111.22 45.2863 110.795 44.8704 110.279 44.8704H110.276Z" fill="#1E1E1E"/>
<path d="M108.374 46.0084C108.284 46.0084 108.208 45.9353 108.208 45.8454C108.208 45.7527 108.282 45.6796 108.371 45.6768L109.161 45.6656C109.242 45.6656 109.326 45.7386 109.329 45.8286C109.329 45.9213 109.256 45.9944 109.166 45.9972L108.377 46.0084H108.374Z" fill="#1E1E1E"/>
<path d="M111.388 45.9691C111.318 45.9691 111.253 45.9241 111.231 45.8539C111.203 45.7668 111.25 45.674 111.337 45.6431L112.672 45.2048C112.759 45.1767 112.851 45.2244 112.882 45.3116C112.91 45.3987 112.863 45.4914 112.776 45.5223L111.441 45.9607C111.425 45.9663 111.408 45.9691 111.391 45.9691H111.388Z" fill="#1E1E1E"/>
<path d="M108.677 49.4985C108.377 49.4985 108.073 49.4451 107.79 49.3411C107.517 49.24 107.377 48.9365 107.475 48.6639C107.576 48.3913 107.877 48.2508 108.149 48.3492C108.458 48.4644 108.801 48.4728 109.116 48.3773C109.394 48.293 109.689 48.4475 109.776 48.7257C109.86 49.0039 109.705 49.299 109.427 49.3861C109.183 49.462 108.93 49.4985 108.675 49.4985H108.677Z" fill="#FF8438"/>
<path d="M110.048 55.495C107.798 55.495 105.97 53.6657 105.97 51.4149C105.97 51.1226 106.206 50.8866 106.498 50.8866C106.79 50.8866 107.026 51.1226 107.026 51.4149C107.026 53.084 108.383 54.4385 110.048 54.4385C111.714 54.4385 113.071 53.0812 113.071 51.4149C113.071 51.1226 113.306 50.8866 113.599 50.8866C113.891 50.8866 114.127 51.1226 114.127 51.4149C114.127 53.6657 112.298 55.495 110.048 55.495Z" fill="#646464"/>
</g>
<path opacity="0.1" d="M119.994 34.5126V40.6862H128.8L128.671 34.5126H119.994Z" fill="black"/>
<path opacity="0.1" d="M100.243 52.6822L100.265 57.4255H113.377L113.326 52.5839L100.243 52.6822Z" fill="black"/>
<path d="M88.3271 67.1398H114.969L115.385 84.0645L89.3636 84.1067L88.3271 67.1398Z" fill="#EFEFEF"/>
<path d="M97.144 53.0897L97.4081 60.2889H111.292L111.031 53.0897H97.144Z" fill="#EFEFEF"/>
<path d="M148.47 61.5169H123.491V69.4496H148.47V61.5169Z" fill="#EFEFEF"/>
<path d="M163.765 52.9941L146.504 53.0813V45.2188L163.765 45.1317V52.9941Z" fill="#EFEFEF"/>
<path d="M136.539 96.5494C136.539 96.5494 148.853 96.5775 168.026 96.9934L168.385 76.0981H136.539V96.5494Z" fill="#EFEFEF"/>
<path d="M178.531 44.9631L179.054 26.9537C179.054 26.9537 196.095 26.5688 206.769 25.8241L205.103 44.5304C205.103 44.5304 197.106 44.7889 178.531 44.9631Z" fill="#EFEFEF"/>
<path d="M171.86 54.2277C171.86 54.2277 189.199 54.3795 202.603 54.2277L201.819 71.574C201.819 71.574 179.598 71.5121 171.596 71.3801L171.857 54.2249L171.86 54.2277Z" fill="#EFEFEF"/>
<path d="M185.744 77.3964C185.744 77.3964 202.081 77.4469 211.968 77.742L210.681 92.9077C210.681 92.9077 197.033 92.2782 185.183 92.1124L185.744 77.3964Z" fill="#EFEFEF"/>
<path d="M212.83 65.982C212.586 65.982 213.982 49.6109 213.982 49.6109C213.982 49.6109 229.649 49.5603 238.888 49.5603L236.638 66.8026C236.638 66.8026 229.113 65.9792 212.83 65.9792V65.982Z" fill="#EFEFEF"/>
<path d="M239.216 34.3159L241.758 7.99451C229.419 9.66928 216.67 10.2172 216.67 10.2172L214.914 40.2057C226.048 39.9697 244.098 38.812 244.373 37.0023C244.649 35.1927 239.216 34.3131 239.216 34.3131V34.3159Z" fill="#EFEFEF"/>
<path d="M242.233 3.0882L241.803 7.53083L239.216 34.3159C239.216 34.3159 244.646 35.1927 244.373 37.0051L247.994 5.66217C248.193 3.74012 242.233 3.0882 242.233 3.0882Z" fill="#646464"/>
<path d="M117.036 38.8457L116.511 17.3659H154.363V38.8457H117.036Z" fill="#EFEFEF"/>
<path d="M119.983 26.9088L119.826 20.4766H127.924L128.039 26.9088H119.983Z" fill="#B3DDFF"/>
<path d="M128.856 26.9087L128.8 24.1015H131.637L131.677 26.9087H128.856Z" fill="#B3DDFF"/>
<path opacity="0.7" d="M180.834 31.2249L180.913 28.6313L183.716 28.5638L183.66 31.1378L180.834 31.2249Z" fill="#AAAAAA"/>
<path opacity="0.7" d="M184.18 31.1153L184.258 28.5217L187.087 28.4542L187.005 31.0282L184.18 31.1153Z" fill="#AAAAAA"/>
<path d="M187.233 13.2998L164.099 13.6988V0.814905L187.233 0V13.2998Z" fill="#EFEFEF"/>
<path opacity="0.1" d="M62.5503 27.718L63.0531 31.5537L79.4962 32.2731L79.0692 28.3924L62.5503 27.718Z" fill="black"/>
<path d="M56.0845 1.10712L59.9438 29.3843C59.9438 29.3843 87.319 30.5983 99.501 30.5983L97.8466 4.215C97.8466 4.215 78.0442 3.31298 56.0845 1.10431V1.10712Z" fill="#EFEFEF"/>
<path opacity="0.7" d="M165.97 4.64496L165.956 2.57117L168.259 2.4953L168.25 4.57471L165.97 4.64496Z" fill="#AAAAAA"/>
<path d="M120.573 142.51H95.5659L96.5153 142.347H121.006L120.573 142.51Z" fill="url(#paint2_linear_3823_3671)"/>
<path d="M121.006 142.347L125.419 159.067L125.132 159.286L120.573 142.51L121.006 142.347Z" fill="#7F7F7F"/>
<path d="M150.856 21.5219C150.822 21.5219 150.788 21.5079 150.763 21.4826L149.85 20.5693C149.799 20.5188 149.799 20.4345 149.85 20.3839C149.9 20.3333 149.985 20.3333 150.035 20.3839L150.948 21.2971C150.999 21.3477 150.999 21.432 150.948 21.4826C150.923 21.5079 150.889 21.5219 150.856 21.5219Z" fill="#CDCDCD"/>
<path d="M149.943 21.5219C149.909 21.5219 149.875 21.5079 149.85 21.4826C149.799 21.432 149.799 21.3477 149.85 21.2971L150.763 20.3839C150.813 20.3333 150.898 20.3333 150.948 20.3839C150.999 20.4345 150.999 20.5188 150.948 20.5693L150.035 21.4826C150.01 21.5079 149.976 21.5219 149.943 21.5219Z" fill="#CDCDCD"/>
<path d="M148.749 21.4854C148.445 21.4854 148.195 21.2381 148.195 20.9318C148.195 20.6255 148.443 20.3782 148.749 20.3782C149.055 20.3782 149.302 20.6255 149.302 20.9318C149.302 21.2381 149.055 21.4854 148.749 21.4854ZM148.749 20.6424C148.589 20.6424 148.459 20.7716 148.459 20.9318C148.459 21.092 148.589 21.2212 148.749 21.2212C148.909 21.2212 149.038 21.092 149.038 20.9318C149.038 20.7716 148.909 20.6424 148.749 20.6424Z" fill="#CDCDCD"/>
<path d="M161.903 47.6664C161.869 47.6664 161.835 47.6523 161.81 47.627L160.897 46.7138C160.847 46.6632 160.847 46.5789 160.897 46.5283C160.948 46.4777 161.032 46.4777 161.083 46.5283L161.996 47.4415C162.046 47.4921 162.046 47.5764 161.996 47.627C161.97 47.6523 161.937 47.6664 161.903 47.6664Z" fill="#CDCDCD"/>
<path d="M160.99 47.6664C160.956 47.6664 160.923 47.6523 160.897 47.627C160.847 47.5764 160.847 47.4921 160.897 47.4415L161.81 46.5283C161.861 46.4777 161.945 46.4777 161.996 46.5283C162.046 46.5789 162.046 46.6632 161.996 46.7138L161.083 47.627C161.057 47.6523 161.024 47.6664 160.99 47.6664Z" fill="#CDCDCD"/>
<path d="M159.796 47.6298C159.493 47.6298 159.243 47.3825 159.243 47.0762C159.243 46.7699 159.49 46.5226 159.796 46.5226C160.102 46.5226 160.349 46.7699 160.349 47.0762C160.349 47.3825 160.102 47.6298 159.796 47.6298ZM159.796 46.7868C159.636 46.7868 159.507 46.916 159.507 47.0762C159.507 47.2364 159.636 47.3656 159.796 47.3656C159.956 47.3656 160.085 47.2364 160.085 47.0762C160.085 46.916 159.956 46.7868 159.796 46.7868Z" fill="#CDCDCD"/>
<path d="M94.3835 8.37946C94.3498 8.37946 94.3161 8.36541 94.2909 8.34012L93.392 7.41282C93.3415 7.36224 93.3443 7.27794 93.3948 7.22736C93.4454 7.17678 93.5296 7.17959 93.5802 7.23017L94.479 8.15747C94.5296 8.20805 94.5268 8.29235 94.4762 8.34293C94.451 8.36822 94.4172 8.37946 94.3864 8.37946H94.3835Z" fill="#CDCDCD"/>
<path d="M93.4705 8.3654C93.4368 8.3654 93.4031 8.35135 93.3779 8.32606C93.3273 8.27548 93.3301 8.19118 93.3807 8.1406L94.3076 7.24139C94.3581 7.19081 94.4424 7.19362 94.493 7.2442C94.5435 7.29478 94.5407 7.37908 94.4902 7.42966L93.5632 8.32887C93.538 8.35416 93.5042 8.3654 93.4734 8.3654H93.4705Z" fill="#CDCDCD"/>
<path d="M92.2853 8.31189C92.2853 8.31189 92.2797 8.31189 92.2769 8.31189C91.9735 8.30627 91.7291 8.05618 91.732 7.74989C91.7348 7.4436 91.9876 7.19913 92.2937 7.20475C92.5971 7.21037 92.8415 7.46046 92.8386 7.76675C92.8386 7.91568 92.7769 8.05337 92.6701 8.15453C92.5662 8.25569 92.4314 8.30908 92.2853 8.30908V8.31189ZM92.2853 7.46889C92.128 7.46889 91.9988 7.59534 91.996 7.75551C91.996 7.91568 92.1224 8.04775 92.2825 8.05056C92.3611 8.05056 92.4342 8.02246 92.4904 7.96907C92.5465 7.91568 92.5774 7.84262 92.5774 7.76394C92.5774 7.60377 92.451 7.4717 92.2909 7.46889C92.2909 7.46889 92.2881 7.46889 92.2853 7.46889Z" fill="#CDCDCD"/>
<path d="M109.442 55.481C109.408 55.481 109.375 55.4669 109.349 55.4416L108.436 54.5284C108.386 54.4778 108.386 54.3935 108.436 54.3429C108.487 54.2923 108.571 54.2923 108.622 54.3429L109.535 55.2562C109.585 55.3068 109.585 55.3911 109.535 55.4416C109.509 55.4669 109.476 55.481 109.442 55.481Z" fill="#CDCDCD"/>
<path d="M108.529 55.481C108.495 55.481 108.462 55.4669 108.436 55.4416C108.386 55.3911 108.386 55.3068 108.436 55.2562L109.349 54.3429C109.4 54.2923 109.484 54.2923 109.535 54.3429C109.585 54.3935 109.585 54.4778 109.535 54.5284L108.622 55.4416C108.596 55.4669 108.563 55.481 108.529 55.481Z" fill="#CDCDCD"/>
<path d="M107.335 55.4444C107.032 55.4444 106.782 55.1971 106.782 54.8909C106.782 54.5846 107.029 54.3373 107.335 54.3373C107.641 54.3373 107.888 54.5846 107.888 54.8909C107.888 55.1971 107.641 55.4444 107.335 55.4444ZM107.335 54.6014C107.175 54.6014 107.046 54.7307 107.046 54.8909C107.046 55.051 107.175 55.1803 107.335 55.1803C107.495 55.1803 107.624 55.051 107.624 54.8909C107.624 54.7307 107.495 54.6014 107.335 54.6014Z" fill="#CDCDCD"/>
<path d="M147.224 63.4867C147.19 63.4867 147.156 63.4727 147.131 63.4474L146.218 62.5341C146.168 62.4835 146.168 62.3992 146.218 62.3487C146.269 62.2981 146.353 62.2981 146.403 62.3487L147.316 63.2619C147.367 63.3125 147.367 63.3968 147.316 63.4474C147.291 63.4727 147.257 63.4867 147.224 63.4867Z" fill="#CDCDCD"/>
<path d="M146.311 63.4867C146.277 63.4867 146.243 63.4727 146.218 63.4474C146.168 63.3968 146.168 63.3125 146.218 63.2619L147.131 62.3487C147.182 62.2981 147.266 62.2981 147.316 62.3487C147.367 62.3992 147.367 62.4835 147.316 62.5341L146.403 63.4474C146.378 63.4727 146.344 63.4867 146.311 63.4867Z" fill="#CDCDCD"/>
<path d="M145.117 63.453C144.813 63.453 144.563 63.2057 144.563 62.8994C144.563 62.5931 144.811 62.3458 145.117 62.3458C145.423 62.3458 145.67 62.5931 145.67 62.8994C145.67 63.2057 145.423 63.453 145.117 63.453ZM145.117 62.61C144.957 62.61 144.828 62.7392 144.828 62.8994C144.828 63.0596 144.957 63.1888 145.117 63.1888C145.277 63.1888 145.406 63.0596 145.406 62.8994C145.406 62.7392 145.277 62.61 145.117 62.61Z" fill="#CDCDCD"/>
<path d="M199.839 57.2766C199.806 57.2766 199.772 57.2625 199.747 57.2372L198.834 56.324C198.783 56.2734 198.783 56.1891 198.834 56.1385C198.884 56.0879 198.969 56.0879 199.019 56.1385L199.932 57.0518C199.983 57.1024 199.983 57.1867 199.932 57.2372C199.907 57.2625 199.873 57.2766 199.839 57.2766Z" fill="#CDCDCD"/>
<path d="M198.927 57.2766C198.893 57.2766 198.859 57.2625 198.834 57.2372C198.783 57.1867 198.783 57.1024 198.834 57.0518L199.747 56.1385C199.797 56.0879 199.882 56.0879 199.932 56.1385C199.983 56.1891 199.983 56.2734 199.932 56.324L199.019 57.2372C198.994 57.2625 198.96 57.2766 198.927 57.2766Z" fill="#CDCDCD"/>
<path d="M197.733 57.24C197.429 57.24 197.179 56.9927 197.179 56.6864C197.179 56.3802 197.426 56.1329 197.733 56.1329C198.039 56.1329 198.286 56.3802 198.286 56.6864C198.286 56.9927 198.039 57.24 197.733 57.24ZM197.733 56.397C197.572 56.397 197.443 56.5263 197.443 56.6864C197.443 56.8466 197.572 56.9759 197.733 56.9759C197.893 56.9759 198.022 56.8466 198.022 56.6864C198.022 56.5263 197.893 56.397 197.733 56.397Z" fill="#CDCDCD"/>
<path d="M209.614 80.8077C209.581 80.8077 209.544 80.7936 209.519 80.7655L208.637 79.8214C208.586 79.768 208.589 79.6865 208.642 79.6359C208.696 79.5853 208.777 79.5881 208.828 79.6415L209.71 80.5857C209.76 80.6391 209.758 80.7206 209.704 80.7712C209.679 80.7936 209.648 80.8077 209.614 80.8077Z" fill="#CDCDCD"/>
<path d="M208.704 80.7768C208.67 80.7768 208.634 80.7628 208.608 80.7347C208.558 80.6813 208.561 80.5998 208.614 80.5492L209.558 79.6669C209.611 79.6163 209.693 79.6191 209.743 79.6725C209.794 79.7259 209.791 79.8074 209.738 79.8579L208.794 80.7403C208.769 80.7628 208.738 80.7768 208.704 80.7768Z" fill="#CDCDCD"/>
<path d="M207.524 80.7009C207.524 80.7009 207.513 80.7009 207.505 80.7009C207.359 80.6953 207.221 80.6335 207.12 80.5267C207.019 80.4199 206.965 80.2794 206.971 80.1305C206.977 79.9844 207.039 79.8467 207.145 79.7455C207.252 79.6444 207.395 79.591 207.541 79.5966C207.845 79.6078 208.086 79.8635 208.075 80.167C208.064 80.4649 207.819 80.7009 207.524 80.7009ZM207.524 79.8579C207.451 79.8579 207.381 79.886 207.325 79.9366C207.269 79.99 207.235 80.0602 207.232 80.1389C207.232 80.2176 207.258 80.2907 207.311 80.3469C207.364 80.4031 207.435 80.4368 207.513 80.4396C207.676 80.4424 207.808 80.3188 207.814 80.1586C207.819 79.9984 207.693 79.8635 207.533 79.8579C207.53 79.8579 207.527 79.8579 207.522 79.8579H207.524Z" fill="#CDCDCD"/>
<path d="M203.875 29.123C203.845 29.123 203.811 29.1118 203.788 29.0893L202.836 28.2154C202.783 28.1676 202.78 28.0833 202.828 28.0299C202.876 27.9765 202.96 27.9737 203.013 28.0215L203.965 28.8954C204.019 28.9432 204.022 29.0275 203.974 29.0809C203.949 29.109 203.912 29.123 203.878 29.123H203.875Z" fill="#CDCDCD"/>
<path d="M202.963 29.1623C202.932 29.1623 202.898 29.1511 202.876 29.1286C202.822 29.0809 202.82 28.9966 202.867 28.9432L203.741 27.9906C203.789 27.9372 203.873 27.9344 203.926 27.9821C203.98 28.0299 203.982 28.1142 203.935 28.1676L203.061 29.1202C203.036 29.1483 202.999 29.1623 202.966 29.1623H202.963Z" fill="#CDCDCD"/>
<path d="M201.752 29.1792C201.615 29.1792 201.483 29.1286 201.379 29.0331C201.269 28.9319 201.207 28.797 201.199 28.6509C201.185 28.3474 201.424 28.0889 201.727 28.0749C202.027 28.0608 202.289 28.2997 202.303 28.6032C202.317 28.9066 202.078 29.1652 201.775 29.1792C201.766 29.1792 201.758 29.1792 201.749 29.1792H201.752ZM201.752 28.3362C201.752 28.3362 201.744 28.3362 201.738 28.3362C201.578 28.3418 201.454 28.4795 201.46 28.6397C201.463 28.7184 201.497 28.7886 201.553 28.842C201.609 28.8954 201.685 28.9207 201.761 28.9179C201.921 28.9123 202.044 28.7746 202.039 28.6144C202.033 28.4598 201.904 28.3362 201.749 28.3362H201.752Z" fill="#CDCDCD"/>
<path d="M236.717 53.0756C236.683 53.0756 236.647 53.0616 236.621 53.0335L235.731 52.0977C235.68 52.0443 235.683 51.9629 235.737 51.9123C235.79 51.8617 235.871 51.8645 235.922 51.9179L236.812 52.8536C236.863 52.907 236.86 52.9885 236.807 53.0391C236.782 53.0644 236.748 53.0756 236.717 53.0756Z" fill="#CDCDCD"/>
<path d="M235.804 53.0503C235.77 53.0503 235.733 53.0363 235.708 53.0082C235.658 52.9548 235.66 52.8733 235.714 52.8227L236.649 51.9319C236.702 51.8814 236.784 51.8842 236.834 51.9376C236.885 51.9909 236.882 52.0724 236.829 52.123L235.893 53.0138C235.868 53.0391 235.835 53.0503 235.804 53.0503Z" fill="#CDCDCD"/>
<path d="M234.621 52.9857C234.621 52.9857 234.613 52.9857 234.607 52.9857C234.461 52.9829 234.324 52.9211 234.22 52.8143C234.119 52.7075 234.065 52.567 234.068 52.4209C234.071 52.272 234.133 52.1371 234.239 52.0331C234.346 51.932 234.486 51.8786 234.633 51.8814C234.936 51.8898 235.177 52.1427 235.172 52.449C235.169 52.5979 235.107 52.7328 235.001 52.8368C234.897 52.9351 234.762 52.9885 234.621 52.9885V52.9857ZM234.621 52.1427C234.545 52.1427 234.475 52.1708 234.422 52.2214C234.366 52.2748 234.335 52.3479 234.332 52.4237C234.329 52.4996 234.357 52.5755 234.411 52.6317C234.464 52.6879 234.537 52.7188 234.613 52.7216C234.692 52.7216 234.765 52.6963 234.821 52.6429C234.877 52.5895 234.908 52.5165 234.911 52.4406C234.913 52.2804 234.787 52.1455 234.627 52.1427C234.627 52.1427 234.621 52.1427 234.619 52.1427H234.621Z" fill="#CDCDCD"/>
<path d="M185.062 2.97582C185.031 2.97582 184.997 2.96458 184.975 2.9421L184.023 2.06818C183.969 2.02041 183.967 1.93611 184.014 1.88272C184.062 1.82933 184.146 1.82652 184.2 1.87429L185.152 2.74821C185.205 2.79598 185.208 2.88028 185.16 2.93367C185.135 2.96177 185.099 2.97582 185.065 2.97582H185.062Z" fill="#CDCDCD"/>
<path d="M184.149 3.01513C184.118 3.01513 184.085 3.00389 184.062 2.98141C184.009 2.93364 184.006 2.84934 184.054 2.79595L184.927 1.84335C184.975 1.78996 185.059 1.78715 185.113 1.83492C185.166 1.88269 185.169 1.96699 185.121 2.02038L184.248 2.97298C184.222 3.00108 184.186 3.01513 184.152 3.01513H184.149Z" fill="#CDCDCD"/>
<path d="M182.936 3.03199C182.798 3.03199 182.666 2.98141 182.562 2.88587C182.453 2.78752 182.391 2.64983 182.382 2.50371C182.368 2.20022 182.607 1.9417 182.91 1.92765C183.211 1.9136 183.472 2.15245 183.486 2.45594C183.5 2.75942 183.262 3.01794 182.958 3.03199C182.95 3.03199 182.941 3.03199 182.933 3.03199H182.936ZM182.936 2.18898C182.936 2.18898 182.927 2.18898 182.922 2.18898C182.762 2.1946 182.638 2.3323 182.644 2.49247C182.646 2.57115 182.68 2.6414 182.736 2.69479C182.793 2.74818 182.868 2.77347 182.944 2.77066C183.104 2.76504 183.228 2.62735 183.222 2.46718C183.217 2.31262 183.087 2.18898 182.933 2.18898H182.936Z" fill="#CDCDCD"/>
<path d="M113.821 69.326C113.787 69.326 113.753 69.3119 113.728 69.2866L112.815 68.3734C112.765 68.3228 112.765 68.2385 112.815 68.1879C112.866 68.1373 112.95 68.1373 113.001 68.1879L113.914 69.1012C113.964 69.1517 113.964 69.236 113.914 69.2866C113.888 69.3119 113.855 69.326 113.821 69.326Z" fill="#CDCDCD"/>
<path d="M112.908 69.326C112.874 69.326 112.841 69.3119 112.815 69.2866C112.765 69.236 112.765 69.1517 112.815 69.1012L113.728 68.1879C113.779 68.1373 113.863 68.1373 113.914 68.1879C113.964 68.2385 113.964 68.3228 113.914 68.3734L113.001 69.2866C112.975 69.3119 112.942 69.326 112.908 69.326Z" fill="#CDCDCD"/>
<path d="M111.714 69.2894C111.411 69.2894 111.161 69.0421 111.161 68.7358C111.161 68.4295 111.408 68.1823 111.714 68.1823C112.02 68.1823 112.267 68.4295 112.267 68.7358C112.267 69.0421 112.02 69.2894 111.714 69.2894ZM111.714 68.4464C111.554 68.4464 111.425 68.5757 111.425 68.7358C111.425 68.896 111.554 69.0253 111.714 69.0253C111.874 69.0253 112.003 68.896 112.003 68.7358C112.003 68.5757 111.874 68.4464 111.714 68.4464Z" fill="#CDCDCD"/>
<path d="M68.0113 58.9907C67.9776 58.9907 67.9439 58.9766 67.9186 58.9513L67.0057 58.0381C66.9551 57.9875 66.9551 57.9032 67.0057 57.8526C67.0563 57.8021 67.1405 57.8021 67.1911 57.8526L68.104 58.7659C68.1545 58.8165 68.1545 58.9008 68.104 58.9513C68.0787 58.9766 68.045 58.9907 68.0113 58.9907Z" fill="#CDCDCD"/>
<path d="M67.0984 58.9907C67.0647 58.9907 67.031 58.9766 67.0057 58.9513C66.9551 58.9008 66.9551 58.8165 67.0057 58.7659L67.9186 57.8526C67.9691 57.8021 68.0534 57.8021 68.104 57.8526C68.1545 57.9032 68.1545 57.9875 68.104 58.0381L67.1911 58.9513C67.1658 58.9766 67.1321 58.9907 67.0984 58.9907Z" fill="#CDCDCD"/>
<path d="M65.9044 58.9569C65.6011 58.9569 65.3511 58.7097 65.3511 58.4034C65.3511 58.0971 65.5983 57.8498 65.9044 57.8498C66.2106 57.8498 66.4578 58.0971 66.4578 58.4034C66.4578 58.7097 66.2106 58.9569 65.9044 58.9569ZM65.9044 58.1139C65.7443 58.1139 65.6151 58.2432 65.6151 58.4034C65.6151 58.5635 65.7443 58.6928 65.9044 58.6928C66.0645 58.6928 66.1937 58.5635 66.1937 58.4034C66.1937 58.2432 66.0645 58.1139 65.9044 58.1139Z" fill="#CDCDCD"/>
<path d="M22.4737 17.6582C22.44 17.6582 22.4091 17.6469 22.381 17.6217L21.308 16.5763C21.2575 16.5257 21.2547 16.4443 21.308 16.3909C21.3586 16.3403 21.44 16.3375 21.4934 16.3909L22.5664 17.4362C22.617 17.4868 22.6198 17.5683 22.5664 17.6217C22.5411 17.6469 22.5074 17.661 22.4737 17.661V17.6582Z" fill="#CDCDCD"/>
<path d="M21.5605 17.5458C21.5296 17.5458 21.4959 17.5345 21.4734 17.5121C21.42 17.4643 21.4172 17.38 21.465 17.3266L22.2178 16.5061C22.2655 16.4527 22.3498 16.4499 22.4031 16.4976C22.4565 16.5454 22.4593 16.6297 22.4116 16.6831L21.6588 17.5036C21.6335 17.5317 21.597 17.5458 21.5633 17.5458H21.5605Z" fill="#CDCDCD"/>
<path d="M20.4119 17.3659C20.3894 17.3659 20.3669 17.3659 20.3445 17.3631C20.0551 17.3266 19.7855 17.0681 19.7349 16.773C19.7068 16.6157 19.7462 16.4695 19.8445 16.3684C19.94 16.27 20.0748 16.2251 20.2265 16.2419C20.5158 16.2785 20.7854 16.537 20.836 16.832C20.8641 16.9894 20.8248 17.1355 20.7265 17.2367C20.645 17.321 20.5355 17.3659 20.4091 17.3659H20.4119ZM20.1619 16.4976C20.1085 16.4976 20.0636 16.5145 20.0327 16.5454C19.9933 16.5876 19.9793 16.6494 19.9933 16.7253C20.0242 16.9079 20.2012 17.0793 20.3753 17.099C20.4428 17.1074 20.5017 17.0906 20.5383 17.054C20.5776 17.0119 20.5916 16.9501 20.5776 16.8742C20.5467 16.6915 20.3725 16.5201 20.1956 16.5005C20.1843 16.5005 20.1731 16.5005 20.1619 16.5005V16.4976Z" fill="#CDCDCD"/>
<path d="M165.473 79.886C165.439 79.886 165.406 79.872 165.38 79.8467L164.468 78.9334C164.417 78.8828 164.417 78.7985 164.468 78.748C164.518 78.6974 164.602 78.6974 164.653 78.748L165.566 79.6612C165.616 79.7118 165.616 79.7961 165.566 79.8467C165.541 79.872 165.507 79.886 165.473 79.886Z" fill="#CDCDCD"/>
<path d="M164.56 79.886C164.527 79.886 164.493 79.872 164.468 79.8467C164.417 79.7961 164.417 79.7118 164.468 79.6612L165.38 78.748C165.431 78.6974 165.515 78.6974 165.566 78.748C165.616 78.7985 165.616 78.8828 165.566 78.9334L164.653 79.8467C164.628 79.872 164.594 79.886 164.56 79.886Z" fill="#CDCDCD"/>
<path d="M163.366 79.8523C163.063 79.8523 162.813 79.605 162.813 79.2988C162.813 78.9925 163.06 78.7452 163.366 78.7452C163.672 78.7452 163.92 78.9925 163.92 79.2988C163.92 79.605 163.672 79.8523 163.366 79.8523ZM163.366 79.0093C163.206 79.0093 163.077 79.1386 163.077 79.2988C163.077 79.4589 163.206 79.5882 163.366 79.5882C163.526 79.5882 163.656 79.4589 163.656 79.2988C163.656 79.1386 163.526 79.0093 163.366 79.0093Z" fill="#CDCDCD"/>
<path d="M151.033 46.6575H148.212V48.5318H151.033V46.6575Z" fill="#BBBBBB"/>
<path d="M177.2 56.1722H174.38V57.1108H177.2V56.1722Z" fill="#BBBBBB"/>
<g opacity="0.6">
<path d="M148.993 50.1223H148.212V51.9769H148.993V50.1223Z" fill="#2B6FDF"/>
<path d="M150.827 51.0496H150.046V51.9769H150.827V51.0496Z" fill="#2B6FDF"/>
<path d="M154.496 50.763H153.715V51.9769H154.496V50.763Z" fill="#2B6FDF"/>
<path d="M156.33 50.1223H155.549V51.9769H156.33V50.1223Z" fill="#2B6FDF"/>
<path d="M158.167 49.3018H157.386V51.977H158.167V49.3018Z" fill="#2B6FDF"/>
<path d="M160.001 48.5319H159.22V51.9769H160.001V48.5319Z" fill="#2B6FDF"/>
<path d="M161.836 48.5319H161.055V51.9769H161.836V48.5319Z" fill="#2B6FDF"/>
<path d="M152.662 51.4037H151.881V51.9741H152.662V51.4037Z" fill="#2B6FDF"/>
</g>
<path opacity="0.3" d="M120.773 52.5923C121.966 52.5923 122.933 51.6248 122.933 50.4314C122.933 49.238 121.966 48.2705 120.773 48.2705C119.58 48.2705 118.613 49.238 118.613 50.4314C118.613 51.6248 119.58 52.5923 120.773 52.5923Z" fill="black"/>
<path d="M120.419 50.2432C120.528 50.2122 120.593 50.0998 120.565 49.9903L120.506 49.7655C120.469 49.6278 120.332 49.5435 120.194 49.5744C120.076 49.5997 119.992 49.698 119.983 49.8188V49.8722C119.961 50.2291 120.099 50.5747 120.354 50.8192L120.503 50.9597C120.761 51.207 121.118 51.325 121.472 51.2857C121.587 51.2632 121.677 51.1705 121.691 51.0553C121.708 50.9204 121.624 50.7939 121.492 50.7602L121.273 50.7012C121.16 50.6703 121.048 50.7377 121.02 50.8501L120.944 50.822C120.686 50.7265 120.489 50.5101 120.419 50.2432Z" fill="white"/>
<path d="M101.299 54.6015H98.6501C98.5771 54.6015 98.5181 54.5425 98.5181 54.4694C98.5181 54.3964 98.5771 54.3373 98.6501 54.3373H101.299C101.372 54.3373 101.431 54.3964 101.431 54.4694C101.431 54.5425 101.372 54.6015 101.299 54.6015Z" fill="#CDCDCD"/>
<path d="M104.389 55.481H98.653C98.58 55.481 98.521 55.422 98.521 55.3489C98.521 55.2759 98.58 55.2169 98.653 55.2169H104.389C104.462 55.2169 104.521 55.2759 104.521 55.3489C104.521 55.422 104.462 55.481 104.389 55.481Z" fill="#CDCDCD"/>
<path d="M101.114 56.3577H98.653C98.58 56.3577 98.521 56.2987 98.521 56.2256C98.521 56.1526 98.58 56.0936 98.653 56.0936H101.114C101.187 56.0936 101.246 56.1526 101.246 56.2256C101.246 56.2987 101.187 56.3577 101.114 56.3577Z" fill="#CDCDCD"/>
<path d="M101.51 58.7013H98.653C98.58 58.7013 98.521 58.6423 98.521 58.5692C98.521 58.4961 98.58 58.4371 98.653 58.4371H101.51C101.583 58.4371 101.642 58.4961 101.642 58.5692C101.642 58.6423 101.583 58.7013 101.51 58.7013Z" fill="#CDCDCD"/>
<path opacity="0.1" d="M67.5448 4.99057L59.8569 4.38641L60.8063 10.9956L68.4942 11.5154L67.5448 4.99057Z" fill="black"/>
<mask id="mask1_3823_3671" style="mask-type:luminance" maskUnits="userSpaceOnUse" x="59" y="4" width="10" height="8">
<path d="M67.5448 4.99057L59.8569 4.38641L60.8063 10.9956L68.4942 11.5154L67.5448 4.99057Z" fill="white"/>
</mask>
<g mask="url(#mask1_3823_3671)">
<path opacity="0.6" d="M67.5474 11.4424C67.3985 10.501 66.7104 9.65241 65.8452 9.21686C66.1205 8.89371 66.2497 8.44129 66.1683 7.92706C65.9997 6.85925 64.9857 5.93195 63.9071 5.85889C62.8285 5.78302 62.0898 6.58949 62.2583 7.6573C62.3398 8.17153 62.6179 8.65204 63.0027 9.02016C62.2555 9.34331 61.8258 10.1133 61.9746 11.0574L62.3313 13.3167L67.9041 13.7016L67.5474 11.4424Z" fill="#2B6FDF"/>
</g>
<path d="M77.4206 16.3683C77.4206 16.3683 77.415 16.3683 77.4122 16.3683L61.5983 15.5309C61.5253 15.5281 61.4719 15.4663 61.4747 15.3933C61.4775 15.3202 61.5393 15.264 61.6124 15.2696L77.4262 16.107C77.4993 16.1098 77.5526 16.1716 77.5498 16.2447C77.547 16.3149 77.488 16.3683 77.4178 16.3683H77.4206Z" fill="#CDCDCD"/>
<path d="M76.1734 18.2314H76.1678L61.9296 17.5036C61.8566 17.5008 61.8004 17.439 61.8061 17.3659C61.8089 17.2928 61.8707 17.2366 61.9437 17.2423L76.1818 17.9701C76.2548 17.9729 76.311 18.0347 76.3054 18.1078C76.3026 18.178 76.2436 18.2314 76.1734 18.2314Z" fill="#CDCDCD"/>
<path d="M74.9234 20.0972H74.9178L62.2583 19.479C62.1852 19.4762 62.129 19.4144 62.1347 19.3413C62.1375 19.2683 62.1993 19.2121 62.2723 19.2177L74.9318 19.8359C75.0049 19.8387 75.061 19.9005 75.0554 19.9736C75.0526 20.0438 74.9936 20.0972 74.9234 20.0972Z" fill="#CDCDCD"/>
<path d="M73.6764 21.9603C73.6764 21.9603 73.6736 21.9603 73.6708 21.9603L62.5898 21.4517C62.5168 21.4488 62.4606 21.387 62.4662 21.314C62.469 21.2409 62.5308 21.1847 62.6038 21.1903L73.6848 21.6989C73.7578 21.7018 73.814 21.7636 73.8084 21.8366C73.8056 21.9069 73.7466 21.9631 73.6764 21.9631V21.9603Z" fill="#CDCDCD"/>
<path d="M72.4265 23.8233C72.4265 23.8233 72.4237 23.8233 72.4209 23.8233L62.9185 23.4243C62.8455 23.4215 62.7893 23.3596 62.7921 23.2866C62.7949 23.2135 62.8567 23.1573 62.9297 23.1601L72.4321 23.5592C72.5051 23.562 72.5613 23.6238 72.5585 23.6968C72.5557 23.7671 72.4967 23.8233 72.4265 23.8233Z" fill="#CDCDCD"/>
<path opacity="0.7" d="M81.1509 16.2363L81.8475 24.3291C81.8475 24.3291 91.1588 24.6298 95.3244 24.7591L94.8385 16.7983L81.1509 16.2335V16.2363Z" fill="#AAAAAA"/>
<path opacity="0.1" d="M143.757 78.3489H138.96V82.5218L143.757 82.5134V78.3489Z" fill="black"/>
<mask id="mask2_3823_3671" style="mask-type:luminance" maskUnits="userSpaceOnUse" x="138" y="78" width="6" height="5">
<path d="M143.757 78.3489H138.96V82.5218L143.757 82.5134V78.3489Z" fill="white"/>
</mask>
<g mask="url(#mask2_3823_3671)">
<path opacity="0.6" d="M142.311 81.1674C142.519 80.9482 142.648 80.656 142.648 80.33C142.648 79.6556 142.103 79.1105 141.429 79.1105C140.755 79.1105 140.21 79.6556 140.21 80.33C140.21 80.656 140.339 80.9482 140.547 81.1674C140.044 81.4063 139.693 81.9149 139.693 82.5106V83.9353H143.167V82.5106C143.167 81.9149 142.816 81.4063 142.314 81.1674H142.311Z" fill="#2B6FDF"/>
</g>
<path opacity="0.1" d="M149.406 78.3489H144.608V82.5218L149.406 82.5134V78.3489Z" fill="black"/>
<mask id="mask3_3823_3671" style="mask-type:luminance" maskUnits="userSpaceOnUse" x="144" y="78" width="6" height="5">
<path d="M149.406 78.3489H144.608V82.5218L149.406 82.5134V78.3489Z" fill="white"/>
</mask>
<g mask="url(#mask3_3823_3671)">
<path opacity="0.6" d="M147.959 81.1674C148.167 80.9482 148.296 80.656 148.296 80.33C148.296 79.6556 147.751 79.1105 147.077 79.1105C146.403 79.1105 145.858 79.6556 145.858 80.33C145.858 80.656 145.987 80.9482 146.195 81.1674C145.692 81.4063 145.341 81.9149 145.341 82.5106V83.9353H148.816V82.5106C148.816 81.9149 148.465 81.4063 147.962 81.1674H147.959Z" fill="#2B6FDF"/>
</g>
<path d="M145.319 86.5345H138.938C138.865 86.5345 138.806 86.4755 138.806 86.4025C138.806 86.3294 138.865 86.2704 138.938 86.2704H145.319C145.392 86.2704 145.451 86.3294 145.451 86.4025C145.451 86.4755 145.392 86.5345 145.319 86.5345Z" fill="#CDCDCD"/>
<path d="M145.319 87.9508H138.938C138.865 87.9508 138.806 87.8918 138.806 87.8187C138.806 87.7457 138.865 87.6866 138.938 87.6866H145.319C145.392 87.6866 145.451 87.7457 145.451 87.8187C145.451 87.8918 145.392 87.9508 145.319 87.9508Z" fill="#CDCDCD"/>
<path d="M141.749 89.3642H138.941C138.868 89.3642 138.809 89.3052 138.809 89.2321C138.809 89.159 138.868 89.1 138.941 89.1H141.749C141.823 89.1 141.881 89.159 141.881 89.2321C141.881 89.3052 141.823 89.3642 141.749 89.3642Z" fill="#CDCDCD"/>
<path d="M145.03 90.7804H138.941C138.868 90.7804 138.809 90.7214 138.809 90.6484C138.809 90.5753 138.868 90.5163 138.941 90.5163H145.03C145.103 90.5163 145.162 90.5753 145.162 90.6484C145.162 90.7214 145.103 90.7804 145.03 90.7804Z" fill="#CDCDCD"/>
<path d="M154.954 86.5345H148.572C148.499 86.5345 148.44 86.4755 148.44 86.4025C148.44 86.3294 148.499 86.2704 148.572 86.2704H154.954C155.027 86.2704 155.086 86.3294 155.086 86.4025C155.086 86.4755 155.027 86.5345 154.954 86.5345Z" fill="#CDCDCD"/>
<path d="M151.62 87.9508H148.575C148.502 87.9508 148.443 87.8918 148.443 87.8187C148.443 87.7457 148.502 87.6866 148.575 87.6866H151.62C151.693 87.6866 151.752 87.7457 151.752 87.8187C151.752 87.8918 151.693 87.9508 151.62 87.9508Z" fill="#CDCDCD"/>
<path d="M152.909 89.3642H148.575C148.502 89.3642 148.443 89.3052 148.443 89.2321C148.443 89.159 148.502 89.1 148.575 89.1H152.909C152.982 89.1 153.041 89.159 153.041 89.2321C153.041 89.3052 152.982 89.3642 152.909 89.3642Z" fill="#CDCDCD"/>
<path d="M154.665 90.7804H148.575C148.502 90.7804 148.443 90.7214 148.443 90.6484C148.443 90.5753 148.502 90.5163 148.575 90.5163H154.665C154.738 90.5163 154.797 90.5753 154.797 90.6484C154.797 90.7214 154.738 90.7804 154.665 90.7804Z" fill="#CDCDCD"/>
<path d="M162.546 86.5345H158.209C158.136 86.5345 158.077 86.4755 158.077 86.4025C158.077 86.3294 158.136 86.2704 158.209 86.2704H162.546C162.619 86.2704 162.678 86.3294 162.678 86.4025C162.678 86.4755 162.619 86.5345 162.546 86.5345Z" fill="#CDCDCD"/>
<path d="M164.588 87.9508H158.206C158.133 87.9508 158.074 87.8918 158.074 87.8187C158.074 87.7457 158.133 87.6866 158.206 87.6866H164.588C164.661 87.6866 164.72 87.7457 164.72 87.8187C164.72 87.8918 164.661 87.9508 164.588 87.9508Z" fill="#CDCDCD"/>
<path d="M162.392 89.3642H158.209C158.136 89.3642 158.077 89.3052 158.077 89.2321C158.077 89.159 158.136 89.1 158.209 89.1H162.392C162.465 89.1 162.524 89.159 162.524 89.2321C162.524 89.3052 162.465 89.3642 162.392 89.3642Z" fill="#CDCDCD"/>
<path d="M160.661 90.7804H158.206C158.133 90.7804 158.074 90.7214 158.074 90.6484C158.074 90.5753 158.133 90.5163 158.206 90.5163H160.661C160.734 90.5163 160.793 90.5753 160.793 90.6484C160.793 90.7214 160.734 90.7804 160.661 90.7804Z" fill="#CDCDCD"/>
<path d="M165.897 94.0092C151.341 93.7394 139.083 93.7029 138.963 93.7029C138.89 93.7029 138.831 93.6439 138.831 93.568C138.831 93.4949 138.89 93.4359 138.963 93.4359C139.083 93.4359 151.344 93.4724 165.902 93.7422C165.975 93.7422 166.034 93.804 166.032 93.8771C166.032 93.9501 165.97 94.0092 165.9 94.0092H165.897Z" fill="#CDCDCD"/>
<path d="M140.71 29.8424H120.079C120.006 29.8424 119.947 29.7834 119.947 29.7103C119.947 29.6373 120.006 29.5782 120.079 29.5782H140.71C140.783 29.5782 140.842 29.6373 140.842 29.7103C140.842 29.7834 140.783 29.8424 140.71 29.8424Z" fill="#CDCDCD"/>
<path d="M129.924 31.2586H120.076C120.003 31.2586 119.944 31.1996 119.944 31.1266C119.944 31.0535 120.003 30.9945 120.076 30.9945H129.924C129.997 30.9945 130.056 31.0535 130.056 31.1266C130.056 31.1996 129.997 31.2586 129.924 31.2586Z" fill="#CDCDCD"/>
<path d="M134.098 32.6721H120.079C120.006 32.6721 119.947 32.6131 119.947 32.54C119.947 32.467 120.006 32.408 120.079 32.408H134.098C134.171 32.408 134.23 32.467 134.23 32.54C134.23 32.6131 134.171 32.6721 134.098 32.6721Z" fill="#CDCDCD"/>
<path d="M139.772 34.0883H120.079C120.006 34.0883 119.947 34.0293 119.947 33.9562C119.947 33.8832 120.006 33.8242 120.079 33.8242H139.772C139.845 33.8242 139.904 33.8832 139.904 33.9562C139.904 34.0293 139.845 34.0883 139.772 34.0883Z" fill="#CDCDCD"/>
<path d="M127.615 67.6484C126.528 67.6484 125.643 66.7632 125.643 65.6758C125.643 64.5883 126.528 63.7031 127.615 63.7031C128.702 63.7031 129.587 64.5883 129.587 65.6758C129.587 66.7632 128.702 67.6484 127.615 67.6484ZM127.615 63.9673C126.671 63.9673 125.904 64.7344 125.904 65.6786C125.904 66.6227 126.671 67.3899 127.615 67.3899C128.559 67.3899 129.325 66.6227 129.325 65.6786C129.325 64.7344 128.559 63.9673 127.615 63.9673Z" fill="#CDCDCD"/>
<path d="M92.8693 81.7716C92.1587 81.7716 91.5801 81.1927 91.5801 80.4818C91.5801 79.7708 92.1587 79.192 92.8693 79.192C93.58 79.192 94.1586 79.7708 94.1586 80.4818C94.1586 81.1927 93.58 81.7716 92.8693 81.7716ZM92.8693 79.4561C92.302 79.4561 91.8441 79.9169 91.8441 80.4818C91.8441 81.0466 92.3048 81.5074 92.8693 81.5074C93.4339 81.5074 93.8946 81.0466 93.8946 80.4818C93.8946 79.9169 93.4339 79.4561 92.8693 79.4561Z" fill="#CDCDCD"/>
<path d="M95.987 81.7716C95.2764 81.7716 94.6978 81.1927 94.6978 80.4818C94.6978 79.7708 95.2764 79.192 95.987 79.192C96.6977 79.192 97.2763 79.7708 97.2763 80.4818C97.2763 81.1927 96.6977 81.7716 95.987 81.7716ZM95.987 79.4561C95.4196 79.4561 94.9618 79.9169 94.9618 80.4818C94.9618 81.0466 95.4224 81.5074 95.987 81.5074C96.5516 81.5074 97.0123 81.0466 97.0123 80.4818C97.0123 79.9169 96.5516 79.4561 95.987 79.4561Z" fill="#CDCDCD"/>
<path d="M132.258 67.6484C131.171 67.6484 130.286 66.7632 130.286 65.6758C130.286 64.5883 131.171 63.7031 132.258 63.7031C133.345 63.7031 134.23 64.5883 134.23 65.6758C134.23 66.7632 133.345 67.6484 132.258 67.6484ZM132.258 63.9673C131.314 63.9673 130.547 64.7344 130.547 65.6786C130.547 66.6227 131.314 67.3899 132.258 67.3899C133.202 67.3899 133.969 66.6227 133.969 65.6786C133.969 64.7344 133.202 63.9673 132.258 63.9673Z" fill="#CDCDCD"/>
<path d="M136.943 67.6484C135.856 67.6484 134.971 66.7632 134.971 65.6758C134.971 64.5883 135.856 63.7031 136.943 63.7031C138.03 63.7031 138.915 64.5883 138.915 65.6758C138.915 66.7632 138.03 67.6484 136.943 67.6484ZM136.943 63.9673C135.999 63.9673 135.232 64.7344 135.232 65.6786C135.232 66.6227 135.999 67.3899 136.943 67.3899C137.887 67.3899 138.654 66.6227 138.654 65.6786C138.654 64.7344 137.887 63.9673 136.943 63.9673Z" fill="#CDCDCD"/>
<path d="M147.288 65.1053H140.567C140.491 65.1053 140.429 65.0435 140.429 64.9676C140.429 64.8918 140.491 64.83 140.567 64.83H147.288C147.364 64.83 147.426 64.8918 147.426 64.9676C147.426 65.0435 147.364 65.1053 147.288 65.1053Z" fill="#CDCDCD"/>
<path d="M147.288 66.5215H140.567C140.491 66.5215 140.429 66.4597 140.429 66.3838C140.429 66.308 140.491 66.2462 140.567 66.2462H147.288C147.364 66.2462 147.426 66.308 147.426 66.3838C147.426 66.4597 147.364 66.5215 147.288 66.5215Z" fill="#CDCDCD"/>
<path opacity="0.6" d="M180.366 43.0832L180.778 32.0567C180.778 32.0567 190.18 31.8094 195.494 31.6914L194.744 42.8472L180.363 43.0804L180.366 43.0832Z" fill="#2B6FDF"/>
<path d="M181.705 33.2397C181.641 33.2397 181.587 33.1863 181.584 33.1217C181.584 33.0543 181.635 33.0009 181.702 32.9981L185.671 32.9025C185.739 32.9025 185.792 32.9531 185.795 33.0205C185.798 33.088 185.744 33.1414 185.677 33.1442L181.708 33.2397C181.708 33.2397 181.708 33.2397 181.705 33.2397Z" fill="#CDCDCD"/>
<path d="M181.677 34.2373C181.612 34.2373 181.559 34.1839 181.556 34.1193C181.556 34.0518 181.607 33.9984 181.674 33.9956L192.283 33.7427C192.353 33.7427 192.404 33.7933 192.407 33.8608C192.41 33.9282 192.356 33.9816 192.289 33.9844L181.68 34.2373C181.68 34.2373 181.68 34.2373 181.677 34.2373Z" fill="#CDCDCD"/>
<path d="M181.652 35.2348C181.587 35.2348 181.534 35.1814 181.531 35.1168C181.531 35.0494 181.582 34.996 181.649 34.9932L190.565 34.7824C190.629 34.7824 190.685 34.833 190.688 34.9004C190.688 34.9679 190.638 35.0213 190.57 35.0241L181.655 35.2348C181.655 35.2348 181.655 35.2348 181.652 35.2348Z" fill="#CDCDCD"/>
<path d="M181.627 36.2324C181.562 36.2324 181.509 36.179 181.506 36.1144C181.506 36.047 181.556 35.9936 181.624 35.9908L186.135 35.884C186.202 35.884 186.256 35.9346 186.258 36.002C186.258 36.0694 186.208 36.1228 186.14 36.1256L181.629 36.2324C181.629 36.2324 181.629 36.2324 181.627 36.2324Z" fill="#CDCDCD"/>
<path d="M181.598 37.2271C181.534 37.2271 181.48 37.1737 181.478 37.1091C181.478 37.0417 181.528 36.9883 181.596 36.9855L183.784 36.9349C183.851 36.9349 183.904 36.9855 183.907 37.0529C183.91 37.1203 183.857 37.1737 183.789 37.1765L181.601 37.2271C181.601 37.2271 181.601 37.2271 181.598 37.2271Z" fill="#CDCDCD"/>
<path d="M181.573 38.2247C181.509 38.2247 181.455 38.1713 181.453 38.1067C181.453 38.0392 181.503 37.9858 181.571 37.983L184.68 37.91C184.747 37.91 184.801 37.9606 184.804 38.028C184.806 38.0954 184.753 38.1488 184.686 38.1516L181.576 38.2247C181.576 38.2247 181.576 38.2247 181.573 38.2247Z" fill="#CDCDCD"/>
<path d="M181.545 39.2222C181.48 39.2222 181.427 39.1688 181.424 39.1042C181.424 39.0368 181.475 38.9834 181.542 38.9806L192.573 38.7192C192.643 38.7192 192.693 38.7698 192.696 38.8373C192.699 38.9047 192.646 38.9581 192.578 38.9609L181.548 39.2222C181.548 39.2222 181.548 39.2222 181.545 39.2222Z" fill="#CDCDCD"/>
<path d="M181.52 40.2198C181.455 40.2198 181.402 40.1664 181.399 40.1018C181.399 40.0343 181.449 39.9809 181.517 39.9781L186.834 39.8517C186.901 39.8517 186.955 39.9023 186.958 39.9697C186.96 40.0371 186.907 40.0905 186.84 40.0933L181.523 40.2198C181.523 40.2198 181.523 40.2198 181.52 40.2198Z" fill="#CDCDCD"/>
<path d="M181.495 41.2174C181.43 41.2174 181.377 41.164 181.374 41.0993C181.374 41.0319 181.425 40.9785 181.492 40.9757L190.407 40.765C190.475 40.765 190.528 40.8155 190.531 40.883C190.534 40.9504 190.48 41.0038 190.413 41.0066L181.498 41.2174C181.498 41.2174 181.498 41.2174 181.495 41.2174Z" fill="#CDCDCD"/>
<path d="M181.466 42.2149C181.402 42.2149 181.349 42.1615 181.346 42.0969C181.346 42.0295 181.396 41.9761 181.464 41.9733L187.893 41.8215C187.963 41.8215 188.014 41.8721 188.017 41.9396C188.02 42.007 187.966 42.0604 187.899 42.0632L181.469 42.2149C181.469 42.2149 181.469 42.2149 181.466 42.2149Z" fill="#CDCDCD"/>
<path d="M185.672 38.1038C185.607 38.1038 185.554 38.0505 185.551 37.9858C185.551 37.9184 185.601 37.865 185.669 37.8622L188.778 37.7891C188.848 37.7891 188.899 37.8397 188.902 37.9071C188.905 37.9746 188.851 38.028 188.784 38.0308L185.674 38.1038C185.674 38.1038 185.674 38.1038 185.672 38.1038Z" fill="#CDCDCD"/>
<path opacity="0.6" d="M174.352 58.5411L199.814 58.5692L199.376 69.2585L174.127 69.1602L174.352 58.5411Z" fill="#2B6FDF"/>
<path d="M186.837 66.027C188.012 66.027 188.964 65.0746 188.964 63.8998C188.964 62.725 188.012 61.7726 186.837 61.7726C185.663 61.7726 184.711 62.725 184.711 63.8998C184.711 65.0746 185.663 66.027 186.837 66.027Z" fill="#E8E8E8"/>
<path opacity="0.6" d="M186.194 63.3575V64.4422C186.194 64.5461 186.298 64.6164 186.393 64.5771L187.688 64.0347C187.806 63.9841 187.806 63.8183 187.688 63.7678L186.393 63.2254C186.298 63.1861 186.194 63.2563 186.194 63.3603V63.3575Z" fill="#2B6FDF"/>
<path d="M182.93 57.878H174.383C174.309 57.878 174.25 57.819 174.25 57.7459C174.25 57.6728 174.309 57.6138 174.383 57.6138H182.93C183.003 57.6138 183.062 57.6728 183.062 57.7459C183.062 57.819 183.003 57.878 182.93 57.878Z" fill="#CDCDCD"/>
<path opacity="0.7" d="M187.514 84.4776L187.551 79.2032L194.185 79.2959L194.112 84.5703L187.514 84.4776Z" fill="#AAAAAA"/>
<path opacity="0.1" d="M194.783 84.5787L194.808 79.2819L196.533 79.3156L196.494 84.6125L194.783 84.5787Z" fill="black"/>
<path opacity="0.1" d="M197.104 84.5787L197.132 79.3605L198.853 79.3943L198.814 84.6125L197.104 84.5787Z" fill="black"/>
<path d="M204.421 87.1218L187.517 86.8829C187.458 86.8829 187.41 86.8323 187.41 86.7733C187.41 86.7143 187.466 86.6694 187.52 86.6666L204.423 86.9054C204.482 86.9054 204.53 86.956 204.53 87.015C204.53 87.074 204.482 87.1218 204.423 87.1218H204.421Z" fill="#CDCDCD"/>
<path d="M195.55 88.1559L187.483 88.0406C187.424 88.0406 187.376 87.9901 187.376 87.9311C187.376 87.8721 187.427 87.8243 187.486 87.8243L195.553 87.9395C195.612 87.9395 195.66 87.9901 195.66 88.0491C195.66 88.1081 195.612 88.1559 195.553 88.1559H195.55Z" fill="#CDCDCD"/>
<path d="M198.932 89.3642L187.447 89.2012C187.388 89.2012 187.34 89.1506 187.34 89.0916C187.34 89.0326 187.399 88.9849 187.449 88.9849L198.935 89.1478C198.994 89.1478 199.042 89.1984 199.042 89.2574C199.042 89.3164 198.994 89.3642 198.935 89.3642H198.932Z" fill="#CDCDCD"/>
<path d="M203.544 90.7018L187.41 90.3618C187.351 90.3618 187.303 90.3112 187.306 90.2522C187.306 90.1932 187.362 90.1482 187.416 90.1482L203.55 90.4882C203.609 90.4882 203.657 90.5388 203.654 90.5978C203.654 90.6568 203.606 90.7018 203.547 90.7018H203.544Z" fill="#CDCDCD"/>
<path opacity="0.6" d="M46.0371 29.9941L46.8798 35.1674L56.7108 35.5889L55.9187 30.5983L46.0371 29.9941Z" fill="#2B6FDF"/>
<path opacity="0.6" d="M48.0625 42.2795L48.5372 45.5476L67.806 46.2473L67.3453 43.1619L48.0625 42.2795Z" fill="#2B6FDF"/>
<path d="M57.1577 37.7357C57.1577 37.7357 57.1549 37.7357 57.1521 37.7357L47.2481 37.3283C47.1751 37.3255 47.1189 37.2636 47.1217 37.1934C47.1245 37.1203 47.1863 37.0641 47.2565 37.0669L57.1606 37.4744C57.2336 37.4772 57.2898 37.539 57.287 37.6093C57.2841 37.6795 57.2252 37.7357 57.1549 37.7357H57.1577Z" fill="#CDCDCD"/>
<path d="M59.492 38.6208C59.492 38.6208 59.4892 38.6208 59.4864 38.6208L47.3858 38.0841C47.3127 38.0813 47.2566 38.0195 47.2594 37.9464C47.2622 37.8734 47.324 37.8172 47.397 37.82L59.4976 38.3567C59.5706 38.3595 59.6268 38.4213 59.624 38.4944C59.6212 38.5646 59.5622 38.6208 59.492 38.6208Z" fill="#CDCDCD"/>
<path d="M61.8261 39.5088C61.8261 39.5088 61.8233 39.5088 61.8205 39.5088L47.5234 38.84C47.4504 38.8372 47.3942 38.7754 47.3998 38.7023C47.4026 38.6293 47.4644 38.5731 47.5374 38.5787L61.8345 39.2475C61.9076 39.2503 61.9637 39.3121 61.9581 39.3852C61.9553 39.4554 61.8963 39.5116 61.8261 39.5116V39.5088Z" fill="#CDCDCD"/>
<path d="M64.1603 40.3968H64.1547L47.6611 39.5959C47.5881 39.5931 47.5319 39.5313 47.5375 39.4583C47.5403 39.3852 47.6021 39.329 47.6751 39.3346L64.1688 40.1355C64.2418 40.1383 64.298 40.2001 64.2924 40.2732C64.2895 40.3434 64.2306 40.3968 64.1603 40.3968Z" fill="#CDCDCD"/>
<path d="M66.4946 41.282H66.4889L47.7988 40.3491C47.7258 40.3462 47.6696 40.2844 47.6752 40.2114C47.6808 40.1383 47.7398 40.0821 47.8128 40.0877L66.503 41.0207C66.576 41.0235 66.6322 41.0853 66.6266 41.1583C66.6238 41.2286 66.5648 41.282 66.4946 41.282Z" fill="#CDCDCD"/>
<path d="M107.442 73.052H91.1979C91.1249 73.052 91.0659 72.993 91.0659 72.92C91.0659 72.8469 91.1249 72.7879 91.1979 72.7879H107.442C107.515 72.7879 107.574 72.8469 107.574 72.92C107.574 72.993 107.515 73.052 107.442 73.052Z" fill="#CDCDCD"/>
<path d="M93.7935 74.1114C93.7402 74.1114 91.1757 74.058 91.1729 74.0047C91.156 74.0047 91.1392 73.9878 91.1392 73.9681C91.1392 73.8951 91.1953 73.8361 91.2712 73.8361L105.976 73.8473C106.049 73.8473 106.108 73.9063 106.108 73.9794C106.108 74.0524 106.049 74.1114 105.976 74.1114H93.7935Z" fill="#CDCDCD"/>
<path d="M96.3917 75.1708C96.3552 75.1708 91.2852 75.1202 91.2824 75.0837C91.2459 75.0837 91.2178 75.0528 91.2178 75.0162C91.2178 74.9432 91.274 74.8842 91.3498 74.8842L104.515 74.9066C104.588 74.9066 104.647 74.9657 104.647 75.0387C104.647 75.1118 104.588 75.1708 104.515 75.1708H96.3917Z" fill="#CDCDCD"/>
<path d="M98.9897 76.2302C98.9729 76.2302 91.3918 76.1796 91.3918 76.1627C91.3384 76.1627 91.2935 76.1178 91.2935 76.0616C91.2935 75.9885 91.3468 75.9267 91.4255 75.9323L103.051 75.9688C103.124 75.9688 103.183 76.0278 103.181 76.1009C103.181 76.174 103.122 76.2302 103.049 76.2302H98.9869H98.9897Z" fill="#CDCDCD"/>
<path d="M101.585 77.2896L91.4984 77.2418C91.4254 77.2418 91.3664 77.1828 91.3692 77.1097C91.3692 77.0367 91.4226 76.9748 91.5013 76.9805L101.588 77.0282C101.661 77.0282 101.72 77.0872 101.717 77.1603C101.717 77.2334 101.658 77.2896 101.585 77.2896Z" fill="#CDCDCD"/>
<path d="M69.8031 70.7057L38.4422 70.1914C38.3692 70.1914 38.313 70.1296 38.313 70.0594C38.313 69.9863 38.3832 69.9273 38.445 69.9301L69.8059 70.4443C69.879 70.4443 69.9352 70.5061 69.9352 70.5764C69.9352 70.6466 69.8762 70.7057 69.8031 70.7057Z" fill="#CDCDCD"/>
<path d="M69.9323 71.5936L38.577 71.13C38.5039 71.13 38.4478 71.0681 38.4478 70.9979C38.4478 70.9248 38.5152 70.8658 38.5798 70.8686L69.9351 71.3323C70.0081 71.3323 70.0643 71.3941 70.0643 71.4644C70.0643 71.5374 70.0053 71.5936 69.9323 71.5936Z" fill="#CDCDCD"/>
<path d="M70.0616 72.4788L38.7147 72.0685C38.6416 72.0685 38.5854 72.0095 38.5854 71.9364C38.5854 71.8634 38.6501 71.8044 38.7175 71.8072L70.0644 72.2174C70.1374 72.2174 70.1936 72.2764 70.1936 72.3495C70.1936 72.4226 70.1346 72.4788 70.0616 72.4788Z" fill="#CDCDCD"/>
<path d="M70.1908 73.3667L38.8524 73.0099C38.7793 73.0099 38.7231 72.9509 38.7231 72.8778C38.7231 72.8047 38.7849 72.7485 38.8552 72.7485L70.1936 73.1054C70.2667 73.1054 70.3228 73.1644 70.3228 73.2375C70.3228 73.3105 70.2639 73.3667 70.1908 73.3667Z" fill="#CDCDCD"/>
<path d="M70.323 74.2519L38.993 73.9456C38.9199 73.9456 38.8638 73.8866 38.8638 73.8135C38.8638 73.7405 38.9228 73.6843 38.9958 73.6843L70.3258 73.9906C70.3989 73.9906 70.455 74.0496 70.455 74.1226C70.455 74.1957 70.3961 74.2519 70.323 74.2519Z" fill="#CDCDCD"/>
<path d="M119.506 85.3908H105.751V93.124H119.506V85.3908Z" fill="#EFEFEF"/>
<path d="M71.1709 46.2922C70.772 46.2922 70.3395 46.1321 69.9771 45.8145C69.6541 45.5307 69.4322 45.1654 69.3592 44.7833C69.2833 44.3898 69.3676 44.0274 69.5979 43.7632C69.8282 43.4991 70.1765 43.367 70.5782 43.3895C70.9658 43.412 71.3563 43.5834 71.6793 43.8644C72.3562 44.4573 72.5276 45.379 72.0585 45.9157C71.8394 46.1658 71.5192 46.2894 71.1709 46.2894V46.2922ZM70.4855 43.6508C70.2018 43.6508 69.9575 43.752 69.7945 43.9374C69.6176 44.1398 69.553 44.4236 69.6148 44.7355C69.6794 45.0586 69.8676 45.3734 70.1485 45.6178C70.7187 46.1152 71.4855 46.1742 71.8619 45.7443C72.2354 45.3172 72.0781 44.5613 71.5079 44.0639C71.2271 43.8194 70.8928 43.6733 70.5614 43.6508C70.5361 43.6508 70.5108 43.6508 70.4855 43.6508Z" fill="#CDCDCD"/>
<path opacity="0.7" d="M39.8391 59.8551C40.4578 59.2971 40.3751 58.1963 39.6543 57.3962C38.9335 56.5962 37.8476 56.4 37.2288 56.958C36.61 57.5159 36.6927 58.6168 37.4135 59.4168C38.1343 60.2168 39.2203 60.4131 39.8391 59.8551Z" fill="#AAAAAA"/>
<path opacity="0.7" d="M44.4182 60.0223C45.0369 59.4643 44.9542 58.3634 44.2334 57.5634C43.5126 56.7634 42.4267 56.5672 41.8079 57.1251C41.1891 57.6831 41.2718 58.784 41.9926 59.584C42.7134 60.384 43.7994 60.5802 44.4182 60.0223Z" fill="#AAAAAA"/>
<path opacity="0.7" d="M48.902 60.1221C49.5208 59.5641 49.4381 58.4632 48.7173 57.6632C47.9965 56.8632 46.9106 56.667 46.2918 57.2249C45.673 57.7829 45.7557 58.8838 46.4765 59.6838C47.1973 60.4838 48.2833 60.68 48.902 60.1221Z" fill="#AAAAAA"/>
<path d="M74.887 46.4805C74.8561 46.4805 74.8252 46.4805 74.7943 46.4777C74.4067 46.4552 74.0163 46.2838 73.6932 46.0028C73.0163 45.4099 72.845 44.4882 73.314 43.9515C73.5444 43.6874 73.8927 43.5553 74.2943 43.5778C74.682 43.6003 75.0724 43.7717 75.3982 44.0527C75.7212 44.3365 75.9431 44.7018 76.0162 45.0839C76.092 45.4774 76.0077 45.8398 75.7774 46.104C75.5639 46.3485 75.2522 46.4805 74.8898 46.4805H74.887ZM73.5107 44.1229C73.1371 44.55 73.2944 45.3059 73.8646 45.8033C74.1455 46.0478 74.4797 46.1939 74.8112 46.2164C75.1286 46.2361 75.401 46.1349 75.578 45.9326C75.7549 45.7303 75.8195 45.4464 75.7577 45.1345C75.6931 44.8114 75.505 44.4967 75.2241 44.2522C74.9432 44.0077 74.6089 43.8616 74.2775 43.8391C73.9601 43.8194 73.6876 43.9206 73.5107 44.1229Z" fill="#CDCDCD"/>
<path d="M62.5507 29.6289C62.5507 29.6289 62.5479 29.6289 62.5451 29.6289L59.8289 29.5108L59.5874 27.7349C59.579 27.6618 59.6267 27.5972 59.6997 27.586C59.77 27.5747 59.8374 27.6253 59.8458 27.6984L60.0593 29.2579L62.5564 29.3647C62.6294 29.3675 62.6856 29.4293 62.6828 29.5024C62.6799 29.5727 62.621 29.6289 62.5507 29.6289Z" fill="#CDCDCD"/>
<path d="M97.3045 57.5576C97.2371 57.5576 97.1781 57.5042 97.1753 57.4368L97.018 55.1803C97.0123 55.1073 97.0685 55.0454 97.1387 55.0398C97.2118 55.0342 97.2736 55.0904 97.2792 55.1606L97.4365 57.4171C97.4421 57.4902 97.3859 57.552 97.3157 57.5576C97.3129 57.5576 97.3101 57.5576 97.3073 57.5576H97.3045Z" fill="#CDCDCD"/>
<path d="M107.442 71.574H91.0043L90.9004 69.8206H107.335L107.442 71.574Z" fill="#B3DDFF"/>
<path opacity="0.6" d="M37.3384 61.7501L38.2091 67.949L69.6543 68.4801L68.8538 62.2896L37.3384 61.7501Z" fill="#2B6FDF"/>
<path opacity="0.15" d="M127.497 207C154.198 207 175.844 205.453 175.844 203.544C175.844 201.635 154.198 200.087 127.497 200.087C100.797 200.087 79.1514 201.635 79.1514 203.544C79.1514 205.453 100.797 207 127.497 207Z" fill="black"/>
<path d="M119.323 183.191V195.898L107.099 200.138C106.588 200.315 106.231 200.776 106.186 201.312L105.844 205.426C105.83 205.612 105.973 205.769 106.161 205.769H107.476C107.636 205.769 107.773 205.648 107.79 205.488L108.167 202.178C108.189 201.978 108.335 201.813 108.532 201.765L121.068 198.727L136.581 201.981C136.766 202.021 136.915 202.158 136.969 202.341L137.907 205.539C137.946 205.674 138.07 205.766 138.21 205.766H139.39C139.598 205.766 139.752 205.567 139.696 205.365L138.64 201.487C138.502 200.978 138.109 200.576 137.604 200.427L122.419 195.934V183.188H119.326L119.323 183.191Z" fill="#646464"/>
<path d="M119.323 195.898L104.841 196.533C104.136 196.564 103.546 197.086 103.431 197.783L102.841 201.357C102.81 201.551 102.959 201.726 103.153 201.726H103.827C103.973 201.726 104.099 201.627 104.133 201.487L104.838 198.727C104.911 198.446 105.167 198.255 105.456 198.266L111.768 198.519L119.321 195.9L119.323 195.898Z" fill="#444444"/>
<path d="M122.416 195.937L133.337 196.906C133.885 196.954 134.328 197.373 134.413 197.918L134.663 199.562L133.064 199.09L132.977 198.719C132.941 198.559 132.798 198.446 132.635 198.443L130.747 198.407L122.416 195.94V195.937Z" fill="#444444"/>
<path d="M133.368 201.312L133.508 202.035C133.536 202.184 133.668 202.29 133.82 202.29H134.531C134.722 202.29 134.87 202.122 134.845 201.931L134.803 201.613L133.368 201.312Z" fill="url(#paint3_linear_3823_3671)"/>
<path d="M107.754 174.977C107.754 174.977 110.667 183.879 120.456 184.202C130.244 184.525 131.579 180.946 132.753 178.386L130.368 177.93C130.368 177.93 129.638 183.151 120.697 182.665C111.759 182.179 109.816 174.572 109.816 174.572L107.754 174.977Z" fill="#646464"/>
<path d="M144.918 147.619C144.918 147.619 143.134 151.623 142.165 155.709C141.193 159.797 142.263 166.85 142.502 169.981C142.741 173.111 141.314 177.273 141.314 177.273L138.699 178.661H134.859L127.764 177.037L111.521 175.396L112.313 167.842C112.313 167.842 138.539 150.271 138.738 150.139C138.938 150.007 144.918 147.619 144.918 147.619Z" fill="#646464"/>
<path opacity="0.3" d="M120.722 175.916C120.722 175.916 134.399 179.774 137.744 173.566C140.12 169.155 138.876 163.616 138.876 163.616L124.843 164.631C124.843 164.631 118.093 174.87 120.725 175.916H120.722Z" fill="black"/>
<path d="M77.8844 145.458C77.8844 145.458 78.4152 144.075 79.4966 144.249C80.5781 144.427 87.8474 149.074 90.4119 151.002C92.9792 152.93 80.4489 152.831 80.4489 152.831L77.8815 150.263C77.8815 150.263 77.1428 148.006 77.8815 145.455L77.8844 145.458Z" fill="#1E1E1E"/>
<path opacity="0.3" d="M79.2945 144.775C79.1456 144.803 79.0108 144.87 78.8872 144.96L80.9882 145.879C80.5248 145.106 79.8928 144.657 79.2945 144.775Z" fill="#B93DFD"/>
<path d="M81.5613 147.408C81.4462 146.826 81.2439 146.304 80.9883 145.879L78.8873 144.96L76.8256 144.058L76.7441 150.288L80.1176 151.179V150.712C80.2356 150.729 80.3535 150.729 80.4715 150.707C81.3984 150.524 81.8872 149.046 81.5613 147.408Z" fill="white"/>
<path opacity="0.3" d="M81.5613 147.408C81.4462 146.826 81.2439 146.304 80.9883 145.879L79.7524 145.34C80.1457 146.02 80.7973 147.782 79.817 151.1L80.1204 151.179V150.712C80.2384 150.729 80.3563 150.729 80.4743 150.707C81.4012 150.524 81.89 149.046 81.5642 147.408H81.5613Z" fill="black"/>
<path d="M77.3059 155.641L74.8257 155.712L73.5083 149.687L75.0082 149.912L77.3059 152.587C77.3059 152.587 78.5699 155.15 77.3059 155.641Z" fill="white"/>
<g opacity="0.3">
<path d="M77.3059 152.587L75.0082 149.912L74.3032 149.808C74.851 150.814 76.0419 153.242 76.2582 155.672L77.3059 155.641C78.5699 155.15 77.3059 152.587 77.3059 152.587Z" fill="black"/>
</g>
<path d="M171.363 121.514C171.363 121.514 171.961 120.651 172.259 120.064C172.504 119.586 172.602 117.209 172.63 116.349C172.636 116.166 172.765 116.009 172.942 115.964C173.161 115.91 173.383 116.045 173.439 116.264L173.793 117.7C173.81 117.771 173.908 117.782 173.939 117.714L175.857 113.654C175.942 113.477 176.149 113.398 176.329 113.48C176.498 113.556 176.582 113.747 176.526 113.924L175.36 117.439C175.343 117.487 175.405 117.518 175.436 117.481L177.97 114.309C178.104 114.14 178.349 114.115 178.515 114.247C178.669 114.371 178.706 114.59 178.599 114.758L176.498 118.083C176.47 118.125 176.526 118.173 176.565 118.139L179.337 115.719C179.481 115.593 179.697 115.599 179.837 115.728C179.984 115.863 179.998 116.09 179.868 116.242L177.568 118.968C177.537 119.004 177.579 119.058 177.624 119.035L179.936 117.731C180.073 117.653 180.25 117.692 180.34 117.824C180.43 117.953 180.408 118.133 180.287 118.237L177.868 120.308C177.458 120.702 174.782 123.174 174.003 124.259C173.225 125.344 170.841 122.314 171.363 121.516V121.514Z" fill="#FF8438"/>
<path d="M110.321 110.372C110.321 110.372 110.307 108.672 110.414 107.573C110.518 106.474 110.31 105.598 109.852 104.735C109.602 104.266 109.293 103.808 109.06 103.487C108.886 103.249 108.546 103.215 108.327 103.414C108.181 103.549 108.13 103.757 108.198 103.943L108.565 104.96C108.661 105.227 108.591 105.527 108.38 105.721L108.203 105.884L107.169 104.735L107.998 101.697C108.04 101.54 107.97 101.374 107.827 101.296C107.653 101.203 107.439 101.27 107.349 101.447L105.212 105.668C104.99 106.109 104.993 106.629 105.22 107.067L106.257 109.051L106.88 111.94L110.318 110.372H110.321Z" fill="#FF8438"/>
<path d="M110.321 110.372C110.321 110.372 110.307 108.672 110.414 107.573C110.518 106.474 110.31 105.598 109.852 104.735C109.602 104.266 109.293 103.808 109.06 103.487C108.886 103.249 108.546 103.215 108.327 103.414C108.181 103.549 108.13 103.757 108.198 103.943L108.565 104.96C108.661 105.227 108.591 105.527 108.38 105.721L108.203 105.884L107.169 104.735L107.998 101.697C108.04 101.54 107.97 101.374 107.827 101.296C107.653 101.203 107.439 101.27 107.349 101.447L105.212 105.668C104.99 106.109 104.993 106.629 105.22 107.067L106.257 109.051L106.88 111.94L110.318 110.372H110.321Z" fill="#FF8438"/>
<path opacity="0.3" d="M108.521 105.772C108.521 105.772 109.231 106.601 108.984 107.039C108.737 107.478 107.973 109.06 106.866 108.214C105.76 107.368 108.518 105.775 108.518 105.775L108.521 105.772Z" fill="black"/>
<path d="M107.293 104.285L108.31 105.423L108.447 104.642L108.195 103.943C108.127 103.757 108.178 103.549 108.324 103.414C108.417 103.327 108.534 103.288 108.652 103.285L108.824 102.15C108.841 102.035 108.765 101.925 108.65 101.902L108.178 101.807C108.065 101.784 107.953 101.852 107.925 101.964L107.762 102.56L107.293 104.283V104.285Z" fill="#1E1E1E"/>
<path d="M108.652 101.905L111.293 87.6051L111.006 87.5096L108.178 101.813L108.652 101.905Z" fill="#1850AF"/>
<path d="M106.667 113.488C106.667 113.488 106.119 111.636 106.291 111.131C106.462 110.625 107.088 109.681 108.498 109.56C109.908 109.439 110.549 109.807 110.813 110.65C111.077 111.493 111.184 112.572 111.184 112.572L106.664 113.491L106.667 113.488Z" fill="#3EAAFF"/>
<path d="M169.956 122.41C169.956 122.41 170.599 121.494 171.2 121.123C171.801 120.752 172.959 120.85 173.961 121.682C174.961 122.511 175.248 123.644 174.877 124.172C174.506 124.7 173.947 125.644 173.947 125.644L169.956 122.41Z" fill="#3EAAFF"/>
<path d="M114.995 157.518C114.995 157.518 108.04 152.508 104.08 151.997C102.083 151.738 96.3976 151.398 90.4119 151.005C88.7518 150.895 87.0693 150.783 85.4346 150.665C83.9403 150.558 82.4853 150.448 81.1258 150.336C78.7102 150.136 76.5979 149.929 75.1036 149.715C74.2974 149.6 74.6429 149.87 74.6429 149.87C74.6429 149.87 77.4855 152.137 77.2945 155.945L97.3161 159.71C97.3161 159.71 103.389 168.326 109.077 171.864C114.765 175.401 124.486 177.63 130.368 171.209C130.368 171.209 129.598 162.731 114.995 157.521V157.518Z" fill="#1E1E1E"/>
<path d="M173.102 122.497C170.335 120.536 168.866 123.118 166.754 125.464C164.639 127.811 157.192 136.145 157.192 136.145C157.192 136.145 148.968 140.414 145.356 141.335C141.744 142.257 139.668 141.527 137.171 140.144C134.674 138.759 128.09 138.452 126.77 138.528C126.77 138.528 121.492 134.029 119.146 131.416C116.801 128.803 116.34 128.494 115.956 127.226C115.571 125.959 112.189 114.424 111.689 112.541C111.189 110.659 109.228 110.234 107.922 110.695C106.616 111.156 106.077 112.502 106.307 113.848C106.537 115.194 110.189 129.458 110.765 130.955C111.341 132.456 114.877 137.297 116.644 139.374C118.41 141.451 119.141 145.68 119.641 148.717C120.141 151.755 114.992 157.521 114.992 157.521C129.595 162.731 130.365 171.209 130.365 171.209C136.244 164.788 140.471 156.161 142.162 150.901C142.162 150.901 157.456 145.104 159.263 144.334C161.069 143.564 169.793 133.299 171.714 130.225C173.635 127.148 175.866 124.459 173.099 122.497H173.102Z" fill="#2B6FDF"/>
<g opacity="0.3">
<path d="M130.368 171.206C132.396 168.992 134.23 166.513 135.829 164.001H126.132C130.056 167.814 130.368 171.206 130.368 171.206Z" fill="black"/>
</g>
<path d="M129.542 137.938C129.542 137.938 127.537 137.317 127.497 139.886C127.458 142.454 128.983 143.533 131.084 144.016C133.185 144.5 136.289 142.974 136.753 141.102C137.216 139.231 136.559 138.767 135.604 138.643C134.651 138.517 129.539 137.938 129.539 137.938H129.542Z" fill="#3EAAFF"/>
<path d="M92.5044 164.316C92.9004 164.515 102.29 173.274 105.181 173.71C108.071 174.145 118.475 175.168 118.475 175.168L114.728 171.203C114.728 171.203 103.319 163.959 103.201 163.998C103.083 164.038 92.5044 164.316 92.5044 164.316Z" fill="#1E1E1E"/>
<path d="M98.0518 172.785V173.814C98.0518 174.002 98.1922 174.165 98.3804 174.187L129.666 178.383V175.927L98.4731 172.409C98.2484 172.383 98.0518 172.558 98.0518 172.785Z" fill="#A3A3A3"/>
<path opacity="0.3" d="M103.841 173.016L105.049 175.084L129.665 178.386L125.949 175.511L103.841 173.016Z" fill="black"/>
<path d="M129.666 175.93C129.666 175.93 136.797 178.428 139.452 177.158C142.106 175.887 141.862 170.447 140.957 164.712C140.053 158.977 142.415 161.146 142.794 164.712C143.176 168.278 144.839 175.491 141.749 177.95C138.659 180.406 134.634 179.052 129.666 178.386" fill="#1E1E1E"/>
<path d="M130.958 129.452C130.958 129.452 128.809 127.982 128.056 126.274C127.303 124.565 129.508 124.768 129.508 124.768C129.508 124.768 127.663 122.654 129.43 121.955C131.199 121.258 137.901 121.182 140.013 124.234C142.255 127.474 141.098 132.245 138.143 133.31C135.185 134.375 130.96 129.452 130.96 129.452H130.958Z" fill="#1E1E1E"/>
<path d="M129.062 138.326C128.494 139.633 129.301 141.248 130.573 141.906C132.138 142.715 134.121 141.993 135 140.293C135.084 140.133 135.14 139.964 135.21 139.804C135.463 139.228 136.309 136.221 136.708 135.524C137.194 134.679 137.09 134.62 137.09 134.62C137.09 134.62 137.983 134.76 138.668 133.628C139.354 132.495 139.325 131.798 138.64 131.63C137.955 131.461 137.23 132.664 137.23 132.664C137.23 132.664 136.643 132.608 136.474 132.357C136.306 132.107 137.174 130.416 137.941 129.466C137.941 129.466 136.404 128.126 137.146 126.589C137.146 126.589 133.654 126.56 131.753 126.42C131.753 126.42 130.607 128.446 129.559 130.641C128.511 132.835 128.553 133.574 129.219 134.549C129.472 134.92 130.177 135.786 129.899 136.412C129.621 137.039 129.317 137.744 129.062 138.329V138.326Z" fill="#FF8438"/>
<path opacity="0.3" d="M136.193 134.931C136.213 134.881 136.148 134.844 136.112 134.884C135.435 135.609 134.415 135.923 133.519 134.884C132.556 133.765 131.564 133.361 130.517 133.347C129.534 133.333 128.674 133.864 129.43 134.85C129.727 135.28 130.115 135.918 129.896 136.412C129.618 137.042 129.315 137.744 129.059 138.329C128.843 138.826 128.826 139.368 128.961 139.888C134.685 137.885 135.935 135.631 136.193 134.934V134.931Z" fill="black"/>
<path d="M132.109 128.7L132.098 128.916L132.981 128.962L132.993 128.746L132.109 128.7Z" fill="#1E1E1E"/>
<path opacity="0.5" d="M131.191 129.547L129.432 129.424C129.126 129.401 128.952 129.191 129.048 128.949L129.315 128.263C129.41 128.022 129.733 127.845 130.042 127.867L131.8 127.991C132.107 128.013 132.281 128.224 132.185 128.466L131.918 129.151C131.823 129.393 131.5 129.57 131.191 129.547Z" fill="url(#paint4_linear_3823_3671)"/>
<path opacity="0.5" d="M134.918 129.767L133.16 129.643C132.854 129.62 132.68 129.41 132.775 129.168L133.042 128.482C133.138 128.241 133.461 128.064 133.77 128.086L135.528 128.21C135.834 128.232 136.008 128.443 135.913 128.685L135.646 129.37C135.55 129.612 135.227 129.789 134.918 129.767Z" fill="url(#paint5_linear_3823_3671)"/>
<path d="M131.241 129.657C131.222 129.657 131.202 129.657 131.182 129.657L129.424 129.533C129.225 129.519 129.062 129.435 128.975 129.297C128.902 129.182 128.893 129.047 128.946 128.912L129.213 128.227C129.326 127.94 129.694 127.735 130.048 127.76L131.806 127.884C132.005 127.898 132.168 127.982 132.255 128.12C132.328 128.235 132.337 128.37 132.283 128.505L132.017 129.191C131.91 129.46 131.578 129.657 131.241 129.657ZM131.196 129.441C131.455 129.458 131.738 129.309 131.814 129.112L132.081 128.426C132.109 128.356 132.106 128.289 132.07 128.232C132.022 128.156 131.918 128.106 131.789 128.097L130.031 127.974C129.772 127.954 129.489 128.106 129.41 128.303L129.143 128.988C129.115 129.059 129.118 129.126 129.154 129.182C129.202 129.258 129.306 129.309 129.435 129.317L131.194 129.441H131.196Z" fill="#1E1E1E"/>
<path d="M134.969 129.876C134.949 129.876 134.93 129.876 134.91 129.876L133.152 129.753C132.952 129.738 132.789 129.654 132.702 129.517C132.629 129.401 132.621 129.266 132.674 129.132L132.941 128.446C133.053 128.159 133.418 127.957 133.775 127.979L135.533 128.103C135.733 128.117 135.896 128.201 135.983 128.339C136.056 128.454 136.064 128.589 136.014 128.724L135.747 129.41C135.64 129.679 135.309 129.876 134.972 129.876H134.969ZM133.719 128.193C133.472 128.193 133.216 128.339 133.143 128.525L132.876 129.21C132.848 129.28 132.851 129.348 132.887 129.404C132.935 129.48 133.039 129.531 133.168 129.539L134.927 129.663C135.188 129.682 135.469 129.531 135.547 129.334L135.814 128.648C135.842 128.578 135.84 128.511 135.803 128.454C135.755 128.378 135.651 128.328 135.522 128.319L133.764 128.196C133.75 128.196 133.736 128.196 133.722 128.196L133.719 128.193Z" fill="#1E1E1E"/>
<path d="M136.955 130.48C136.924 130.48 136.89 130.466 136.87 130.438L135.733 128.994C135.696 128.946 135.705 128.879 135.75 128.842C135.797 128.806 135.865 128.814 135.901 128.859L137.039 130.303C137.075 130.351 137.067 130.419 137.022 130.455C137.002 130.472 136.98 130.478 136.955 130.478V130.48Z" fill="#1E1E1E"/>
<path d="M137.811 131.635C137.783 131.635 137.755 131.621 137.738 131.599L137.328 131.04C137.3 131 137.308 130.944 137.348 130.913C137.387 130.885 137.443 130.893 137.474 130.933L137.884 131.492C137.912 131.531 137.904 131.588 137.865 131.618C137.848 131.63 137.831 131.635 137.811 131.635Z" fill="#FF8438"/>
<path d="M106.142 104.656L106.616 104.417C106.939 104.254 107.333 104.33 107.574 104.6L108.383 105.505C108.557 105.702 108.566 105.994 108.403 106.199L108.265 106.37C108.2 106.452 108.077 106.455 108.007 106.376L107.894 106.244" fill="#FF8438"/>
<path d="M108.139 106.578C108.049 106.578 107.964 106.539 107.905 106.472L107.793 106.34C107.742 106.28 107.748 106.193 107.807 106.14C107.866 106.089 107.953 106.095 108.006 106.154L108.119 106.286H108.161L108.299 106.112C108.419 105.96 108.414 105.744 108.285 105.6L107.476 104.696C107.276 104.474 106.95 104.412 106.684 104.544L106.209 104.783C106.139 104.816 106.054 104.788 106.021 104.721C105.987 104.651 106.015 104.566 106.082 104.533L106.557 104.294C106.936 104.103 107.4 104.193 107.683 104.51L108.492 105.415C108.714 105.662 108.723 106.03 108.518 106.289L108.38 106.46C108.324 106.533 108.237 106.576 108.147 106.578H108.141H108.139Z" fill="#1E1E1E"/>
<path d="M106.071 105.215L106.355 105.159C106.633 105.106 106.922 105.199 107.116 105.407L107.964 106.317C108.158 106.525 108.184 106.837 108.029 107.076L107.737 107.458L107.661 107.371" fill="#FF8438"/>
<path d="M107.745 107.683L107.557 107.466C107.507 107.407 107.512 107.32 107.571 107.267C107.616 107.227 107.675 107.222 107.726 107.247L107.919 106.991C108.035 106.814 108.012 106.576 107.863 106.413L107.015 105.502C106.852 105.328 106.616 105.252 106.383 105.297L106.099 105.353C106.023 105.367 105.95 105.319 105.934 105.241C105.92 105.165 105.967 105.092 106.046 105.075L106.33 105.019C106.658 104.954 106.993 105.064 107.22 105.308L108.068 106.219C108.307 106.474 108.338 106.857 108.15 107.149L107.748 107.677L107.745 107.683Z" fill="#1E1E1E"/>
<path d="M105.937 106.05H106.077C106.363 106.05 106.633 106.174 106.821 106.39L107.599 107.289C107.796 107.517 107.776 107.86 107.554 108.062C107.431 108.174 107.265 108.228 107.099 108.203L106.74 108.152C106.611 108.132 106.495 108.056 106.428 107.944L106.383 107.868C106.299 107.728 106.372 107.545 106.532 107.503L106.796 107.435L106.071 107.334" fill="#FF8438"/>
<path d="M107.181 108.351C107.147 108.351 107.113 108.351 107.082 108.343L106.723 108.292C106.552 108.267 106.4 108.169 106.31 108.02L106.265 107.944C106.2 107.837 106.192 107.714 106.237 107.598C106.251 107.565 106.268 107.537 106.288 107.508L106.052 107.475C105.976 107.463 105.922 107.393 105.931 107.315C105.942 107.239 106.012 107.185 106.091 107.194L106.816 107.295C106.883 107.303 106.934 107.36 106.936 107.427C106.939 107.494 106.897 107.553 106.83 107.57L106.566 107.638C106.532 107.646 106.507 107.669 106.495 107.7C106.481 107.73 106.484 107.764 106.504 107.795L106.549 107.871C106.594 107.947 106.672 108 106.762 108.011L107.122 108.062C107.245 108.079 107.369 108.042 107.462 107.955C107.627 107.803 107.641 107.548 107.495 107.376L106.717 106.477C106.557 106.292 106.324 106.185 106.08 106.185H105.939C105.861 106.185 105.799 106.123 105.799 106.044C105.799 105.966 105.861 105.904 105.939 105.904H106.08C106.406 105.904 106.715 106.044 106.931 106.292L107.709 107.191C107.956 107.478 107.934 107.902 107.653 108.16C107.523 108.281 107.355 108.343 107.181 108.343V108.351Z" fill="#1E1E1E"/>
<path d="M209.005 162.25H35.8301V165.232H209.005V162.25Z" fill="#A3A3A3"/>
<path d="M209.005 162.25H35.8301V162.728H209.005V162.25Z" fill="url(#paint6_linear_3823_3671)"/>
<path d="M209.002 162.25L200.604 155.641H44.2763L35.8301 162.25H209.002Z" fill="url(#paint7_linear_3823_3671)"/>
<path opacity="0.1" d="M69.803 155.641L68.5756 155.855C68.3986 155.886 68.2666 156.04 68.2666 156.22C68.2666 156.392 68.3818 156.54 68.5475 156.58L79.6453 159.339C80.061 159.443 80.4852 159.494 80.9121 159.494H82.7294C84.2996 159.494 85.5748 158.221 85.5748 156.647L103.841 156.105V155.636H69.803V155.641Z" fill="black"/>
<path opacity="0.1" d="M128.405 157.861L129.023 158.092L126.351 160.227L129.621 162.25H102.684L100.125 160.129L128.405 157.861Z" fill="black"/>
<path d="M135.109 156.962L137.095 160.424L147.468 160.084L145.095 156.65L135.109 156.962Z" fill="white"/>
<path d="M125.132 159.286H100.125V160.126H125.132V159.286Z" fill="#7F7F7F"/>
<path d="M128.405 157.018L125.132 159.286H100.125L103.397 157.018H128.405Z" fill="#CCCCCC"/>
<path d="M120.573 142.51L125.132 159.286H100.125L95.5659 142.51H120.573Z" fill="url(#paint8_linear_3823_3671)"/>
<path opacity="0.15" d="M169.456 160.227C172.984 160.227 175.844 159.749 175.844 159.159C175.844 158.57 172.984 158.092 169.456 158.092C165.929 158.092 163.069 158.57 163.069 159.159C163.069 159.749 165.929 160.227 169.456 160.227Z" fill="black"/>
<path d="M131.211 157.24C131.081 157.291 131.02 157.437 131.073 157.566L131.713 159.159L132.177 158.971L131.536 157.378C131.486 157.249 131.34 157.187 131.211 157.24Z" fill="#1E1E1E"/>
<path d="M128.405 157.018L125.132 159.286V160.129L128.405 157.861V157.018Z" fill="#A3A3A3"/>
<path d="M137.671 153.039C137.629 153.039 137.589 153.014 137.573 152.975C137.55 152.921 137.573 152.857 137.629 152.834L142.356 150.828C142.409 150.805 142.474 150.828 142.497 150.884C142.519 150.937 142.497 151.002 142.44 151.024L137.713 153.031C137.713 153.031 137.685 153.039 137.671 153.039Z" fill="#1E1E1E"/>
<path d="M74.8931 155.905L77.3059 155.641L75.9239 154.975L74.9521 155.366L74.8931 155.905Z" fill="white"/>
<g opacity="0.3">
<path d="M76.1907 155.105C76.216 155.352 76.1991 155.577 76.1626 155.768L77.3058 155.641L76.1907 155.105Z" fill="black"/>
</g>
<path d="M66.1237 140.293C65.84 139.93 64.649 140.068 64.6041 140.518C64.5591 140.965 65.0058 145.913 66.7276 150.342C68.4494 154.77 69.0028 156.29 69.8538 156.268C70.7049 156.245 74.6401 156.288 74.9519 156.043C75.2637 155.799 74.8115 153.947 74.5699 152.837C74.3312 151.727 73.9267 149.914 73.6599 149.22C73.3902 148.526 70.1937 146.132 70.1937 146.132C70.1937 146.132 66.5928 140.897 66.1237 140.293Z" fill="#3EAAFF"/>
<g opacity="0.3">
<path d="M69.0278 153.017C67.879 150.614 65.9577 144.789 65.3538 142.344C64.7499 139.905 64.6038 140.515 64.6432 141.296C64.792 142.94 65.3538 146.804 66.7273 150.339C68.2104 154.152 68.8256 155.807 69.5109 156.181C69.966 156.341 70.0025 155.06 69.0278 153.017Z" fill="#1E1E1E"/>
</g>
<path d="M79.2047 148.883C78.9154 147.369 78.5615 144.806 77.8677 143.241C77.1739 141.676 73.7049 135.35 73.1235 134.296C72.5421 133.245 71.0449 132.731 70.059 133.403C69.0759 134.074 68.1574 136.758 69.5225 142.15C70.8876 147.543 72.6966 150.314 73.9268 150.339C75.1571 150.364 77.9295 150.136 78.5109 150.004C79.0923 149.87 79.2749 149.265 79.2019 148.886L79.2047 148.883Z" fill="#3EAAFF"/>
<path opacity="0.3" d="M75.3369 144.755C74.8903 141.411 73.3229 137.202 72.6095 135.434C71.896 133.667 71.0899 132.838 70.059 133.397C69.0759 134.069 68.1574 136.752 69.5225 142.145C70.8876 147.537 72.6966 150.308 73.9268 150.333C76.0728 150.333 75.7835 148.096 75.3369 144.752V144.755Z" fill="#1E1E1E"/>
<path d="M114.265 174.083C114.248 174.083 114.234 174.083 114.217 174.075C112.512 173.451 110.714 172.605 109.529 171.866C107.321 170.492 104.172 168.149 101.959 165.687C101.908 165.628 101.911 165.541 101.97 165.488C102.029 165.437 102.116 165.44 102.17 165.499C104.363 167.938 107.487 170.265 109.678 171.627C110.849 172.355 112.627 173.193 114.315 173.811C114.388 173.836 114.425 173.918 114.399 173.991C114.38 174.047 114.324 174.083 114.267 174.083H114.265Z" fill="white"/>
<path d="M126.25 167.528C126.214 167.528 126.177 167.514 126.152 167.486C125.703 167.036 123.728 165.356 123.708 165.339C123.649 165.288 123.641 165.201 123.691 165.142C123.742 165.083 123.829 165.075 123.888 165.125C123.969 165.195 125.888 166.828 126.349 167.286C126.405 167.342 126.405 167.429 126.349 167.486C126.32 167.514 126.284 167.528 126.25 167.528Z" fill="white"/>
<path d="M90.4119 151.145C90.4119 151.145 90.4063 151.145 90.4035 151.145C88.7435 151.036 87.0609 150.923 85.4262 150.805C83.7942 150.687 82.3842 150.58 81.1174 150.476C81.0387 150.471 80.9826 150.403 80.9882 150.325C80.9938 150.246 81.0612 150.19 81.1399 150.195C82.4067 150.299 83.8139 150.409 85.4458 150.524C87.0806 150.642 88.7631 150.755 90.4203 150.864C90.499 150.87 90.5552 150.937 90.5524 151.013C90.5467 151.086 90.4849 151.145 90.4119 151.145Z" fill="white"/>
<path d="M169.456 143.864C169.405 143.864 169.358 143.828 169.349 143.775C169.338 143.716 169.377 143.659 169.436 143.651L170.043 143.547C170.102 143.536 170.158 143.575 170.166 143.634C170.178 143.693 170.138 143.749 170.079 143.758L169.473 143.862C169.473 143.862 169.461 143.862 169.453 143.862L169.456 143.864Z" fill="#1E1E1E"/>
<path d="M168.81 141.656C168.776 141.656 168.743 141.639 168.723 141.611C168.689 141.563 168.701 141.496 168.748 141.462L169.187 141.15C169.234 141.116 169.302 141.128 169.335 141.175C169.369 141.223 169.358 141.291 169.31 141.324L168.872 141.636C168.852 141.65 168.83 141.656 168.81 141.656Z" fill="#1E1E1E"/>
<path d="M166.487 141.529C166.451 141.529 166.414 141.51 166.394 141.476L166.071 140.917C166.041 140.866 166.06 140.799 166.111 140.771C166.161 140.74 166.229 140.759 166.257 140.81L166.58 141.369C166.611 141.42 166.591 141.487 166.54 141.515C166.524 141.524 166.504 141.529 166.487 141.529Z" fill="#1E1E1E"/>
<path d="M165.521 144.989C165.501 144.989 165.481 144.983 165.465 144.972L164.965 144.66C164.914 144.629 164.9 144.561 164.931 144.511C164.962 144.46 165.029 144.446 165.08 144.477L165.58 144.789C165.63 144.82 165.644 144.887 165.613 144.938C165.594 144.972 165.557 144.989 165.521 144.989Z" fill="#1E1E1E"/>
<path d="M173.821 151.232C173.821 150.628 171.228 150.142 168.029 150.142C164.83 150.142 162.237 150.631 162.237 151.232C162.237 151.26 162.246 151.289 162.254 151.314L163.847 158.572C163.847 159.008 165.72 159.359 168.029 159.359C170.338 159.359 172.212 159.005 172.212 158.572L173.804 151.314C173.815 151.286 173.821 151.26 173.821 151.232Z" fill="#F8F8F8"/>
<path d="M168.029 151.997C170.676 151.997 172.821 151.654 172.821 151.232C172.821 150.81 170.676 150.468 168.029 150.468C165.383 150.468 163.237 150.81 163.237 151.232C163.237 151.654 165.383 151.997 168.029 151.997Z" fill="#1E1E1E"/>
<path d="M169.765 150.521V143.002C169.765 141.76 168.76 140.754 167.518 140.754C166.277 140.754 165.271 141.76 165.271 143.002V150.609C166.052 150.521 167.001 150.468 168.026 150.468C168.639 150.468 169.226 150.488 169.765 150.521Z" fill="#80A8EB"/>
<path d="M168.029 150.468C167.004 150.468 166.055 150.519 165.274 150.609V151.859C166.055 151.946 167.004 152 168.029 152C168.642 152 169.229 151.98 169.768 151.946V150.521C169.229 150.488 168.645 150.468 168.029 150.468Z" fill="#80A8EB"/>
<path d="M169.928 149.324H169.167C168.538 149.324 168.026 148.813 168.026 148.184C168.026 147.554 168.538 147.043 169.167 147.043H169.928C170.026 147.043 170.108 146.961 170.108 146.863V145.039C170.108 144.41 170.619 143.898 171.248 143.898C171.877 143.898 172.389 144.41 172.389 145.039V146.863C172.389 148.22 171.285 149.322 169.931 149.322L169.928 149.324Z" fill="#80A8EB"/>
<path d="M165.619 149.178C165.619 149.178 165.591 149.178 165.58 149.17L164.889 148.889C164.833 148.866 164.807 148.805 164.83 148.748C164.852 148.692 164.914 148.667 164.97 148.689L165.661 148.97C165.718 148.993 165.743 149.055 165.72 149.111C165.703 149.153 165.664 149.178 165.619 149.178Z" fill="#1E1E1E"/>
<path d="M166.582 146.554C166.549 146.554 166.515 146.537 166.495 146.509L166.015 145.843C165.981 145.795 165.993 145.728 166.04 145.694C166.088 145.66 166.155 145.671 166.189 145.719L166.67 146.385C166.703 146.433 166.692 146.5 166.644 146.534C166.625 146.548 166.602 146.554 166.582 146.554Z" fill="#1E1E1E"/>
<path d="M165.619 147.324C165.599 147.324 165.58 147.318 165.563 147.307L164.872 146.891C164.821 146.86 164.804 146.795 164.835 146.742C164.866 146.691 164.931 146.675 164.984 146.705L165.675 147.121C165.726 147.152 165.743 147.217 165.712 147.27C165.692 147.304 165.656 147.324 165.619 147.324Z" fill="#1E1E1E"/>
<path d="M165.619 142.948C165.585 142.948 165.554 142.934 165.532 142.906L165.08 142.305C165.043 142.257 165.054 142.19 165.102 142.153C165.15 142.117 165.217 142.128 165.254 142.176L165.706 142.777C165.743 142.825 165.731 142.892 165.684 142.929C165.664 142.943 165.641 142.951 165.619 142.951V142.948Z" fill="#1E1E1E"/>
<path d="M167.521 141.251C167.521 141.251 167.507 141.251 167.498 141.251C167.439 141.24 167.403 141.184 167.414 141.125L167.58 140.299C167.591 140.24 167.647 140.203 167.706 140.214C167.765 140.226 167.802 140.282 167.791 140.341L167.625 141.167C167.614 141.217 167.569 141.254 167.518 141.254L167.521 141.251Z" fill="#1E1E1E"/>
<path d="M169.31 142.648C169.265 142.648 169.223 142.62 169.209 142.575C169.189 142.519 169.22 142.457 169.276 142.437L170.173 142.136C170.229 142.117 170.29 142.148 170.31 142.204C170.33 142.26 170.299 142.322 170.243 142.341L169.347 142.642C169.347 142.642 169.324 142.648 169.313 142.648H169.31Z" fill="#1E1E1E"/>
<path d="M166.979 142.78C166.942 142.78 166.906 142.76 166.886 142.726L166.552 142.142C166.524 142.091 166.54 142.024 166.591 141.996C166.642 141.965 166.709 141.985 166.737 142.035L167.071 142.62C167.099 142.67 167.082 142.738 167.032 142.766C167.015 142.774 166.995 142.78 166.979 142.78Z" fill="#1E1E1E"/>
<path d="M168.026 143.634C168.009 143.634 167.995 143.631 167.978 143.623C167.925 143.598 167.903 143.533 167.928 143.48L168.234 142.856C168.259 142.802 168.324 142.78 168.377 142.805C168.431 142.83 168.453 142.895 168.428 142.948L168.122 143.572C168.102 143.612 168.065 143.631 168.026 143.631V143.634Z" fill="#1E1E1E"/>
<path d="M167.041 144.699C167.004 144.699 166.968 144.679 166.948 144.646L166.552 143.957C166.521 143.907 166.541 143.839 166.591 143.811C166.642 143.78 166.709 143.8 166.737 143.85L167.133 144.539C167.164 144.589 167.145 144.657 167.094 144.685C167.077 144.693 167.057 144.699 167.041 144.699Z" fill="#1E1E1E"/>
<path d="M168.895 145.365C168.866 145.365 168.838 145.354 168.816 145.331C168.774 145.289 168.777 145.219 168.819 145.18L169.38 144.649C169.423 144.606 169.493 144.609 169.532 144.651C169.574 144.693 169.571 144.764 169.529 144.803L168.968 145.334C168.948 145.354 168.92 145.365 168.895 145.365Z" fill="#1E1E1E"/>
<path d="M168.029 146.219C167.984 146.219 167.942 146.188 167.925 146.143L167.79 145.711C167.773 145.654 167.804 145.593 167.86 145.576C167.917 145.559 167.978 145.59 167.995 145.646L168.13 146.079C168.147 146.135 168.116 146.197 168.06 146.214C168.049 146.217 168.037 146.219 168.029 146.219Z" fill="#1E1E1E"/>
<path d="M166.844 148.262C166.844 148.262 166.83 148.262 166.824 148.262L166.605 148.22C166.546 148.209 166.509 148.153 166.521 148.094C166.532 148.035 166.588 147.998 166.647 148.009L166.866 148.051C166.925 148.063 166.962 148.119 166.95 148.178C166.942 148.228 166.894 148.265 166.844 148.265V148.262Z" fill="#1E1E1E"/>
<path d="M167.187 150.013C167.161 150.013 167.136 150.004 167.117 149.985C167.072 149.945 167.069 149.878 167.108 149.833L167.442 149.459C167.482 149.414 167.549 149.411 167.594 149.451C167.639 149.49 167.642 149.558 167.602 149.603L167.268 149.976C167.246 150.002 167.218 150.013 167.187 150.013Z" fill="#1E1E1E"/>
<path d="M169.456 150.249C169.403 150.249 169.358 150.21 169.349 150.156C169.341 150.097 169.38 150.044 169.439 150.032L170.192 149.92C170.251 149.912 170.304 149.951 170.316 150.01C170.324 150.069 170.285 150.122 170.226 150.134L169.473 150.246C169.473 150.246 169.462 150.246 169.456 150.246V150.249Z" fill="#1E1E1E"/>
<path d="M131.946 159.317C132.084 159.317 132.196 159.205 132.196 159.067C132.196 158.929 132.084 158.817 131.946 158.817C131.808 158.817 131.696 158.929 131.696 159.067C131.696 159.205 131.808 159.317 131.946 159.317Z" fill="#7F7F7F"/>
<path d="M126.767 138.635H125.132C125.073 138.635 125.025 138.587 125.025 138.528C125.025 138.469 125.073 138.422 125.132 138.422H126.767C126.826 138.422 126.874 138.469 126.874 138.528C126.874 138.587 126.826 138.635 126.767 138.635Z" fill="#1E1E1E"/>
<path d="M111.455 151.796C111.577 151.175 111.024 150.544 110.22 150.386C109.416 150.229 108.666 150.605 108.544 151.227C108.423 151.848 108.976 152.479 109.78 152.637C110.584 152.794 111.334 152.418 111.455 151.796Z" fill="#CCCCCC"/>
<path opacity="0.15" d="M153.133 158.328C154.598 158.328 155.785 158.027 155.785 157.656C155.785 157.285 154.598 156.984 153.133 156.984C151.669 156.984 150.482 157.285 150.482 157.656C150.482 158.027 151.669 158.328 153.133 158.328Z" fill="black"/>
<path d="M152.799 153.936C151.665 153.936 150.746 154.113 150.746 154.329V157.479C150.746 157.695 151.665 158.019 152.799 158.019C153.934 158.019 154.853 157.695 154.853 157.479V154.329C154.853 154.113 153.934 153.936 152.799 153.936Z" fill="url(#paint9_linear_3823_3671)"/>
<path d="M154.288 154.413C154.06 154.318 153.482 154.247 152.799 154.247C152.117 154.247 151.538 154.318 151.311 154.413C151.538 154.509 152.117 154.579 152.799 154.579C153.482 154.579 154.06 154.509 154.288 154.413Z" fill="#1E1E1E"/>
<path opacity="0.15" d="M154.271 155.61L154.858 156.198V155.529L154.271 155.61Z" fill="black"/>
<path opacity="0.15" d="M154.271 157.077L154.858 157.451V156.996L154.271 157.077Z" fill="black"/>
<path d="M154.785 157.136H154.454C154.274 157.136 154.125 156.99 154.125 156.807C154.125 156.625 154.271 156.479 154.454 156.479H154.785C154.903 156.479 154.996 156.383 154.996 156.268V155.872C154.996 155.754 154.9 155.661 154.785 155.661H154.454C154.274 155.661 154.125 155.515 154.125 155.332C154.125 155.15 154.271 155.003 154.454 155.003H154.785C155.263 155.003 155.653 155.391 155.653 155.872V156.268C155.653 156.746 155.265 157.136 154.785 157.136Z" fill="#E7E7E7"/>
<path opacity="0.6" d="M165.973 9.94181L165.942 12.2432L167.939 12.2095L167.919 9.89685L165.973 9.94181Z" fill="#2B6FDF"/>
<path opacity="0.6" d="M168.818 8.72225L168.793 12.1758L170.79 12.142L170.765 8.6239L168.818 8.72225Z" fill="#2B6FDF"/>
<path opacity="0.6" d="M171.658 6.36745L171.644 12.1083L173.644 12.0746L173.605 6.2691L171.658 6.36745Z" fill="#2B6FDF"/>
<path opacity="0.6" d="M174.517 8.13497L174.495 12.0409L176.495 12.0072L176.466 8.03381L174.517 8.13497Z" fill="#2B6FDF"/>
<path opacity="0.6" d="M177.351 4.2712L177.346 11.9763L179.346 11.9426L179.298 4.17285L177.351 4.2712Z" fill="#2B6FDF"/>
<path d="M180.674 7.62359C180.604 7.62359 180.545 7.56739 180.542 7.49714C180.542 7.42408 180.596 7.36507 180.669 7.36226L185.253 7.2049C185.323 7.2049 185.385 7.25829 185.388 7.33135C185.388 7.40441 185.334 7.46342 185.261 7.46623L180.677 7.62359C180.677 7.62359 180.674 7.62359 180.672 7.62359H180.674Z" fill="#CDCDCD"/>
<path d="M180.661 8.66892C180.591 8.66892 180.532 8.61271 180.529 8.54246C180.529 8.4694 180.585 8.41039 180.655 8.40758L185.192 8.27551C185.265 8.27551 185.324 8.33171 185.326 8.40196C185.326 8.47502 185.27 8.53403 185.2 8.53684L180.664 8.66892C180.664 8.66892 180.664 8.66892 180.661 8.66892Z" fill="#CDCDCD"/>
<path d="M180.65 9.71425C180.579 9.71425 180.52 9.65805 180.518 9.58499C180.518 9.51193 180.574 9.45292 180.644 9.45011L185.135 9.34052C185.208 9.34052 185.267 9.39671 185.27 9.46697C185.27 9.54003 185.214 9.59904 185.144 9.60185L180.652 9.71144C180.652 9.71144 180.652 9.71144 180.65 9.71144V9.71425Z" fill="#CDCDCD"/>
<path d="M180.635 10.7596C180.565 10.7596 180.506 10.7034 180.503 10.6303C180.503 10.5573 180.56 10.4982 180.633 10.4982L185.076 10.4139C185.149 10.4139 185.208 10.4701 185.208 10.5432C185.208 10.6163 185.152 10.6753 185.079 10.6753L180.635 10.7596Z" fill="#CDCDCD"/>
<path d="M180.621 11.8049C180.551 11.8049 180.492 11.7487 180.489 11.6756C180.489 11.6026 180.545 11.5436 180.618 11.5436L185.014 11.4846C185.087 11.4846 185.146 11.5408 185.146 11.6138C185.146 11.6869 185.09 11.7459 185.017 11.7459L180.621 11.8049Z" fill="#CDCDCD"/>
<path opacity="0.6" d="M216.06 51.8533L215.611 56.9282C215.611 56.9282 226.647 56.9872 229.936 57.153L230.296 51.8533H216.06Z" fill="#2B6FDF"/>
<path d="M215.092 64.2623C215.092 64.2623 215.083 64.2623 215.08 64.2623C215.007 64.2567 214.954 64.1921 214.962 64.119L215.268 60.6205C215.274 60.5475 215.339 60.4941 215.412 60.5025C215.485 60.5081 215.538 60.5728 215.53 60.6458L215.224 64.1443C215.218 64.2117 215.162 64.2651 215.094 64.2651L215.092 64.2623Z" fill="#CDCDCD"/>
<path d="M217.282 64.327C217.282 64.327 217.274 64.327 217.268 64.327C217.195 64.3186 217.145 64.2567 217.15 64.1837L217.619 59.4179C217.628 59.3448 217.69 59.2942 217.763 59.2999C217.836 59.3083 217.886 59.3701 217.881 59.4432L217.412 64.209C217.406 64.2764 217.347 64.327 217.282 64.327Z" fill="#CDCDCD"/>
<path d="M219.473 64.341C219.473 64.341 219.465 64.341 219.462 64.341C219.389 64.3354 219.339 64.2708 219.344 64.1977L219.476 62.8039C219.482 62.7309 219.546 62.6803 219.619 62.6859C219.692 62.6915 219.743 62.7562 219.737 62.8292L219.605 64.223C219.6 64.2904 219.541 64.341 219.476 64.341H219.473Z" fill="#CDCDCD"/>
<path d="M221.661 64.4056C221.661 64.4056 221.653 64.4056 221.647 64.4056C221.574 64.3972 221.524 64.3326 221.529 64.2623L221.76 62.0199C221.768 61.9469 221.83 61.8963 221.903 61.9019C221.976 61.9103 222.026 61.975 222.021 62.0452L221.79 64.2876C221.785 64.3551 221.726 64.4056 221.661 64.4056Z" fill="#CDCDCD"/>
<path d="M223.852 64.4169C223.852 64.4169 223.844 64.4169 223.838 64.4169C223.765 64.4084 223.715 64.3438 223.723 64.2736L224.17 60.1091C224.178 60.036 224.243 59.9855 224.313 59.9939C224.386 60.0023 224.437 60.067 224.428 60.1372L223.981 64.3017C223.973 64.3691 223.917 64.4197 223.852 64.4197V64.4169Z" fill="#CDCDCD"/>
<path d="M226.043 64.4843C226.043 64.4843 226.032 64.4843 226.029 64.4843C225.956 64.4759 225.906 64.4113 225.914 64.3382L226.526 59.0779C226.535 59.0048 226.599 58.9542 226.672 58.9626C226.745 58.9711 226.796 59.0357 226.788 59.1088L226.175 64.3691C226.167 64.4366 226.111 64.4843 226.046 64.4843H226.043Z" fill="#CDCDCD"/>
<path d="M228.234 64.549C228.234 64.549 228.223 64.549 228.217 64.549C228.144 64.5377 228.097 64.4731 228.105 64.4L228.65 60.4463C228.661 60.3761 228.726 60.3255 228.799 60.3339C228.872 60.3452 228.92 60.4098 228.911 60.4829L228.366 64.4365C228.358 64.5012 228.302 64.549 228.237 64.549H228.234Z" fill="#CDCDCD"/>
<path d="M230.422 64.667C230.422 64.667 230.411 64.667 230.403 64.667C230.333 64.6557 230.282 64.5911 230.29 64.518L230.717 61.4635C230.729 61.3933 230.793 61.3427 230.866 61.3511C230.939 61.3624 230.987 61.427 230.979 61.5001L230.552 64.5546C230.543 64.6192 230.487 64.667 230.422 64.667Z" fill="#CDCDCD"/>
<path d="M232.613 64.785C232.613 64.785 232.602 64.785 232.596 64.785C232.523 64.7737 232.475 64.7091 232.484 64.6361L233.284 58.884C233.296 58.8137 233.36 58.7631 233.433 58.7715C233.506 58.7828 233.554 58.8474 233.546 58.9205L232.745 64.6726C232.737 64.7372 232.681 64.785 232.616 64.785H232.613Z" fill="#CDCDCD"/>
<path d="M234.804 64.8496C234.804 64.8496 234.793 64.8496 234.785 64.8496C234.714 64.8384 234.664 64.7737 234.672 64.7007L235.122 61.5506C235.133 61.4804 235.198 61.4298 235.271 61.4382C235.341 61.4495 235.391 61.5141 235.383 61.5872L234.934 64.7372C234.925 64.8018 234.869 64.8496 234.804 64.8496Z" fill="#CDCDCD"/>
<path opacity="0.7" d="M227.43 20.5512C228.74 17.9532 228.24 15.0589 226.314 14.0866C224.387 13.1142 221.763 14.4321 220.453 17.0301C219.143 19.6281 219.643 22.5224 221.569 23.4947C223.496 24.467 226.12 23.1492 227.43 20.5512Z" fill="#AAAAAA"/>
<path opacity="0.7" d="M236.995 19.5513C238.35 16.8646 237.918 13.9142 236.03 12.9615C234.142 12.0088 231.513 13.4144 230.159 16.1011C228.804 18.7877 229.236 21.738 231.124 22.6908C233.012 23.6435 235.64 22.2379 236.995 19.5513Z" fill="#AAAAAA"/>
</g>
<defs>
<linearGradient id="paint0_linear_3823_3671" x1="107.27" y1="46.7105" x2="107.249" y2="45.0752" gradientUnits="userSpaceOnUse">
<stop stop-color="#FF8438"/>
<stop offset="1" stop-color="#F4F4F4"/>
</linearGradient>
<linearGradient id="paint1_linear_3823_3671" x1="110.283" y1="46.6726" x2="110.262" y2="45.0373" gradientUnits="userSpaceOnUse">
<stop stop-color="#FF8438"/>
<stop offset="1" stop-color="#F4F4F4"/>
</linearGradient>
<linearGradient id="paint2_linear_3823_3671" x1="121.039" y1="142.429" x2="98.9085" y2="142.429" gradientUnits="userSpaceOnUse">
<stop stop-color="#F4F4F4"/>
<stop offset="1" stop-color="#D0D0D0"/>
</linearGradient>
<linearGradient id="paint3_linear_3823_3671" x1="134.109" y1="184.177" x2="134.109" y2="205.657" gradientUnits="userSpaceOnUse">
<stop stop-color="#F4F4F4"/>
<stop offset="1" stop-color="#D0D0D0"/>
</linearGradient>
<linearGradient id="paint4_linear_3823_3671" x1="130.615" y1="129.606" x2="130.615" y2="128.137" gradientUnits="userSpaceOnUse">
<stop stop-color="#FF8438"/>
<stop offset="1" stop-color="#F4F4F4"/>
</linearGradient>
<linearGradient id="paint5_linear_3823_3671" x1="134.343" y1="129.606" x2="134.343" y2="128.137" gradientUnits="userSpaceOnUse">
<stop stop-color="#FF8438"/>
<stop offset="1" stop-color="#F4F4F4"/>
</linearGradient>
<linearGradient id="paint6_linear_3823_3671" x1="203.825" y1="162.492" x2="81.3645" y2="162.492" gradientUnits="userSpaceOnUse">
<stop stop-color="#F4F4F4"/>
<stop offset="1" stop-color="#D0D0D0"/>
</linearGradient>
<linearGradient id="paint7_linear_3823_3671" x1="17.4039" y1="158.946" x2="191.244" y2="158.946" gradientUnits="userSpaceOnUse">
<stop stop-color="#F4F4F4"/>
<stop offset="1" stop-color="#D0D0D0"/>
</linearGradient>
<linearGradient id="paint8_linear_3823_3671" x1="110.349" y1="166.145" x2="110.349" y2="140.993" gradientUnits="userSpaceOnUse">
<stop stop-color="#F4F4F4"/>
<stop offset="1" stop-color="#D0D0D0"/>
</linearGradient>
<linearGradient id="paint9_linear_3823_3671" x1="152.799" y1="152.233" x2="152.799" y2="162.408" gradientUnits="userSpaceOnUse">
<stop stop-color="#F4F4F4"/>
<stop offset="1" stop-color="#D0D0D0"/>
</linearGradient>
<clipPath id="clip0_3823_3671">
<rect width="248" height="207" fill="white"/>
</clipPath>
</defs>
</svg>
